<svg width="33" height="33" viewBox="0 0 33 33" fill="none" xmlns="http://www.w3.org/2000/svg">
<path d="M16.5 3.09375C9.1025 3.09375 3.09375 9.1025 3.09375 16.5C3.09375 23.8975 9.1025 29.9062 16.5 29.9062C23.8975 29.9062 29.9062 23.8975 29.9062 16.5C29.9062 9.1025 23.8975 3.09375 16.5 3.09375ZM16.5 27.8438C10.2437 27.8438 5.15625 22.7563 5.15625 16.5C5.15625 10.2437 10.2437 5.15625 16.5 5.15625C22.7563 5.15625 27.8438 10.2437 27.8438 16.5C27.8438 22.7563 22.7563 27.8438 16.5 27.8438Z" fill="#717171"/>
<path d="M16.5 19.1812C17.0638 19.1812 17.5312 18.7137 17.5312 18.15V11C17.5312 10.4363 17.0638 9.96875 16.5 9.96875C15.9363 9.96875 15.4688 10.4363 15.4688 11V18.15C15.4688 18.7137 15.9363 19.1812 16.5 19.1812Z" fill="#717171"/>
<path d="M16.5 23.375C17.1075 23.375 17.6 22.8825 17.6 22.275C17.6 21.6675 17.1075 21.175 16.5 21.175C15.8925 21.175 15.4 21.6675 15.4 22.275C15.4 22.8825 15.8925 23.375 16.5 23.375Z" fill="#717171"/>
</svg>
