<svg width="100%" height="100%" viewBox="0 0 1915 798" fill="none" xmlns="http://www.w3.org/2000/svg"
preserveAspectRatio="none"
>
<mask id="mask0_146_10" style="mask-type:luminance" maskUnits="userSpaceOnUse" x="0" y="0" width="100%" height="100%" >
<path d="M1915 0H0V798H1915V0Z" fill="white"/>
</mask>
<g mask="url(#mask0_146_10)">
<path d="M16.19 364.42C35.45 360.03 58.11 355.86 60.41 360.17C64.39 367.63 -1.58001 396.63 -8.53001 390.78C-15.48 384.93 -17.52 379.31 -17.52 379.31L-17.36 379.1C-39.16 362.95 -46.48 305.57 -46.48 305.57C-46.48 305.57 50.15 249.04 56.92 252.67C63.64 256.26 -1.34001 317.86 -2.26001 318.75C-0.94001 318.02 81.44 272.04 88.17 279.49C99.55 292.07 -8.95 348.11 -16.66 352.08C-10.46 349.05 61.03 314.47 72.31 326.95C78.44 333.74 44.13 351.51 16.18 364.43L16.19 364.42Z" fill="#FFCC07"/>
<path d="M54.6 20.1797C45.4 24.8297 36.33 32.7797 36.31 43.0297C36.3 49.1997 39.61 54.8497 41.09 60.8397C42.57 66.8297 41.28 74.5997 35.48 76.7997C34.26 77.2597 32.87 77.4197 31.66 76.9297C28.47 75.6397 28.52 71.2697 28.24 67.8697C27.47 58.5997 19.45 50.4297 10.14 49.4497C0.82999 48.4597 -8.75002 54.7598 -11.48 63.6598C-13.43 70.0198 -12.08 77.0397 -9.01002 82.9398C-5.95002 88.8398 -1.30002 93.7797 3.56998 98.3297C6.11998 100.71 8.78998 103.06 10.55 106.06C12.31 109.06 13.03 112.92 11.44 116.02C9.84998 119.12 5.48997 120.8 2.60997 118.82C1.05997 117.75 0.239986 115.94 -0.580013 114.25C-3.40001 108.44 -7.04001 103.02 -11.36 98.2097C-13.17 96.1997 -15.19 94.2297 -17.74 93.3297C-36.82 86.6097 -42.77 122.38 -47.2 133.48C-56.52 156.81 -57.58 186.15 -46.91 202.66C-32.21 225.41 15.78 219.84 42.99 214.25C51.53 212.49 59.81 209.55 67.71 205.9C80.69 199.91 92.22 190.91 100.44 179.2C103.71 174.55 106.45 169.51 108.49 164.21C108.59 163.95 108.7 163.68 108.8 163.4C110.58 158.86 113.08 152.86 112.21 148.21C111.24 143.03 104.87 138.8 100.47 141.74C98.58 143 97.56 145.16 96.42 147.12C94.54 150.36 91.91 153.42 88.32 154.55C84.73 155.67 80.14 154.13 78.98 150.57C77.43 145.8 82.33 141.6 86.53 138.82C95.09 133.15 103.43 126.79 109.35 118.43C115.27 110.07 118.53 99.3697 116.05 89.4497C114.66 83.8997 110.61 78.2397 104.86 77.9398C99.82 77.6798 95.58 81.5898 92.6 85.6298C89.62 89.6798 87.06 94.3197 82.7 96.8297C81.74 97.3797 80.67 97.8197 79.56 97.7497C78.12 97.6598 76.88 96.7197 75.91 95.6697C71.68 91.1097 71.26 83.5197 74.95 78.5197C79.72 72.0697 89.8 70.2397 92.76 62.7897C94.18 59.2297 93.54 55.2197 92.7 51.4797C91.32 45.3097 89.46 39.2497 87.15 33.3597C84.53 26.6997 80.73 19.6997 73.99 17.1797C67.68 14.8297 60.6 17.1097 54.6 20.1497V20.1797ZM69.49 167.47C71.7 170.66 68.08 176.94 61.41 181.5C54.74 186.06 47.54 187.17 45.33 183.98C43.12 180.79 46.74 174.51 53.41 169.95C60.08 165.39 67.28 164.28 69.49 167.47ZM97.96 103.59C100.54 106.5 97.69 113.16 91.62 118.48C85.54 123.79 78.52 125.75 75.95 122.84C73.37 119.93 76.22 113.27 82.29 107.95C88.37 102.64 95.39 100.68 97.96 103.59Z" fill="#252D18"/>
<path d="M70.57 42.7798C70.51 43.0398 70.42 43.2897 70.32 43.5097C67.71 49.4397 66.82 55.9498 65.75 62.3398C62.9 79.4798 58.79 96.5697 52.94 112.95C51.09 118.12 49.06 123.22 46.84 128.24C35.51 153.98 19.78 178.03 0.169998 198.31C-5.26 203.93 -10.99 209.25 -16.98 214.27C-23.35 219.62 -29.98 225.39 -38.03 227.99C-40.33 228.74 -43.42 226.08 -41.82 223.72C-37.72 217.64 -31.27 213.97 -25.59 209.5C-18.67 204.05 -12.15 198.12 -6.05 191.79C5.73 179.58 16.04 165.98 24.91 151.56C29.06 144.81 32.91 137.88 36.49 130.81C40.07 123.74 43.38 116.53 46.46 109.22C49.54 101.9 52.38 94.4897 55.02 87.0097C57.68 79.4497 59.72 71.9998 61.3 64.1498C62.81 56.6598 64.45 49.0198 68.34 42.3398C68.73 41.6698 69.43 40.9198 70.14 41.2398C70.7 41.4898 70.73 42.1497 70.58 42.7897L70.57 42.7798Z" fill="#8C9122"/>
<path d="M1913.4 476.34C1911.84 475.6 1910.32 474.75 1908.84 473.86C1899.86 468.44 1891.92 460.1 1888.27 450.04C1884.36 439.27 1887.04 427.61 1879.23 418.02C1871.09 408.03 1854.85 404.56 1851.68 392.04C1849.53 383.54 1854.77 374.91 1854.84 366.14C1854.92 355.56 1847.4 346.33 1838.7 340.4C1830 334.48 1819.92 330.92 1810.9 325.49C1801.89 320.06 1793.54 311.93 1791.88 301.49C1789.52 286.62 1801.04 273.54 1806.04 259.33C1812 242.41 1806.6 225.72 1805.09 206.21C1812.81 223.02 1826.1 234.78 1844.29 239.09C1852.99 241.15 1862.14 241.26 1870.6 244.14C1880.95 247.67 1890.04 255.83 1893.03 266.4C1894.72 272.36 1894.52 278.97 1897.65 284.32C1900.82 289.75 1906.79 292.79 1912.55 295.25C1927.82 301.74 1944.15 306.22 1957.88 315.55C1979.78 330.44 1989.49 356.15 1990.51 381.94C1991.51 407.33 1986.37 439.35 1968.74 458.76C1965.02 462.86 1960.67 466.34 1955.87 469.08C1943.86 475.93 1926.95 482.75 1913.4 476.34Z" fill="#E28D16"/>
<path d="M1936.32 402.91C1938.83 399.56 1933.19 396.27 1930.72 399.62C1919.44 414.92 1903.81 428.87 1885.3 434.27C1885.62 436.54 1885.87 438.84 1886.2 441.13C1906.49 435.62 1924.42 418.81 1936.32 402.91Z" fill="#4D5E23"/>
<path d="M1897.02 361.6C1884.49 370.28 1868.44 377.41 1852.63 378.4C1852.1 380.51 1851.63 382.62 1851.37 384.71C1868.71 384.02 1886.37 376.25 1900.26 367.17C1903.73 364.9 1900.42 359.24 1897.02 361.59V361.6Z" fill="#4D5E23"/>
<path d="M1868.66 324.9C1855.92 331.6 1840.72 333.59 1825.85 333.23C1829.09 334.82 1832.3 336.44 1835.38 338.29C1847.38 337.36 1859.29 334.85 1871.19 330.92C1875.67 329.44 1872.93 322.65 1868.67 324.9H1868.66Z" fill="#EC6231"/>
<path d="M1842.99 288.87C1847.09 287.98 1845.35 281.35 1841.25 282.51C1825.47 287 1809.2 288.91 1792.9 288.71C1792.46 290.25 1792.09 291.79 1791.86 293.36C1808.94 294.22 1825.96 292.57 1842.98 288.87H1842.99Z" fill="#EC6231"/>
<path d="M1873.21 328.87C1884.56 315.46 1893.77 301.59 1898.55 285.63C1898.24 285.2 1897.93 284.78 1897.66 284.32C1896.39 282.14 1895.67 279.74 1895.15 277.27C1891.57 295.57 1881.64 310.63 1869.28 324.91C1866.93 327.62 1870.89 331.6 1873.21 328.86V328.87Z" fill="#4D5E23"/>
<path d="M1850.4 292.96C1856.78 276.55 1863.13 259.67 1862.65 242.16C1861.02 241.86 1859.38 241.59 1857.73 241.35C1857.21 258.76 1851.67 275.2 1845.26 291.55C1844 294.76 1849.16 296.16 1850.4 292.97V292.96Z" fill="#EC6231"/>
<path d="M1894.72 355.19C1891.72 357.46 1894.66 362.61 1897.69 360.31C1916.39 346.07 1925.01 324.47 1930.53 302.28C1928.71 301.58 1926.88 300.89 1925.06 300.2C1920.03 320.74 1912.17 341.96 1894.72 355.19Z" fill="#4D5E23"/>
<path d="M2033.47 438.03C1986.22 429.53 1941.19 397.24 1908.33 363.91C1880.51 335.69 1859.31 302.17 1837.78 268.75C1829.56 253.63 1821.81 238.4 1815.73 222.45C1811.47 217.78 1807.91 212.34 1805.1 206.22C1805.45 210.73 1806.01 215.08 1806.58 219.32C1811.02 234.42 1818.66 248.86 1825.73 262.46C1837.63 285.32 1850.21 307.87 1864.55 329.29C1891.61 369.7 1925.71 406.31 1968.95 429.28C1989.11 439.99 2010.64 447.46 2033.24 449.61C2033.74 445.67 2033.94 441.76 2033.48 438.04L2033.47 438.03Z" fill="#D73C3A"/>
<path d="M916.75 811.32C916.75 811.32 880.73 736.78 898.57 740.44C916.41 744.1 944.78 807.1 944.78 807.1C944.78 807.1 942.03 668.43 957.74 678.39C973.44 688.35 976.6 813.91 976.6 813.91C976.6 813.91 1005.65 732.1 1017.32 742.85C1028.99 753.6 1008.42 820.72 1008.42 820.72L916.75 811.33V811.32Z" fill="#B6BD3D"/>
<path d="M457.45 894.28C459.58 895.26 461.8 896.08 464.16 896.61C470.94 898.13 478.12 896.47 484.36 893.36C493.3 888.91 503.11 882.52 508.54 873.86C511.31 869.45 512.43 864.16 510.67 859.15C509.02 854.49 505.54 850.76 505.57 845.53C505.62 836.82 513.09 830.78 516.88 823.62C520.15 817.44 521.6 809.18 516.74 803.4C514.87 801.18 512.03 799.18 512.17 796.26C512.22 795.27 512.63 794.34 513.07 793.46C517.44 784.9 525.93 779.29 534.47 774.93C543.01 770.57 552.1 766.98 559.43 760.79C569.5 752.27 575.39 738.98 574.93 725.79C574.45 712.17 567.73 699.69 561.17 687.78C560.81 700.11 551.53 711.98 540.09 716.53C525.29 722.41 507.45 716.74 493.36 724.17C483.37 729.44 477.36 740.74 476.74 752.03C476.36 758.99 477.78 766.07 476.27 772.88C473.95 783.38 465.01 791.27 455.36 795.98C445.71 800.68 435.08 802.92 425.06 806.74C416.53 809.99 408.45 814.41 401.09 819.83C396.95 822.88 392.98 826.31 390.25 830.66C383.38 841.6 385.74 856.36 392.53 867.3C395.23 871.65 398.68 875.7 403.25 877.99C410.83 881.79 419.86 880.12 428.32 880.8C439.81 881.72 447.75 889.76 457.46 894.25L457.45 894.28Z" fill="#708128"/>
<path d="M464.47 814.28C464.47 814.28 464.51 814.31 464.52 814.32C465.39 812.86 466.28 811.4 467.17 809.94C462.72 805.59 459.21 800.69 456.54 795.4C456.15 795.6 455.76 795.81 455.36 796C454.24 796.54 453.11 797.05 451.97 797.53C455.16 803.74 459.42 809.42 464.46 814.27L464.47 814.28Z" fill="#4D5E23"/>
<path d="M521.7 750.08C523.23 752.83 527.16 749.88 525.65 747.15C521.5 739.66 526.24 727.13 528.96 719.79C529.05 719.55 529.15 719.32 529.24 719.09C527.52 719.29 525.78 719.42 524.03 719.51C523.57 720.78 523.13 722.05 522.72 723.33C520.02 731.81 517.14 741.85 521.7 750.08Z" fill="#4D5E23"/>
<path d="M493.04 774.42C494.2 773.19 495.39 772 496.62 770.84C488.42 761.99 483.75 750.74 479.78 739.36C478.7 741.83 477.9 744.43 477.38 747.07C480.82 757.18 485.52 766.8 493.04 774.41V774.42Z" fill="#4D5E23"/>
<path d="M561.81 745.48C552.18 746.82 542.53 742.6 532.88 742.52C530.22 742.5 530.68 746.64 533.32 746.65C545.13 746.7 557.22 752.99 568.76 747.81C569.24 747.6 569.69 747.35 570.15 747.11C571.24 744.94 572.16 742.69 572.9 740.38C569.68 742.97 566.03 744.91 561.82 745.49L561.81 745.48Z" fill="#4D5E23"/>
<path d="M467.71 808.97C476.62 804.67 484.83 799.5 494.34 796.49C500.43 794.56 506.81 793.39 513.2 793.25C514.05 791.62 515.05 790.1 516.18 788.67C498.46 788.15 479.52 795.18 465.91 805.66C464.27 806.92 465.72 809.94 467.72 808.97H467.71Z" fill="#4D5E23"/>
<path d="M513.87 766.14C504.5 768.02 494.01 770.89 487 777.69C485.56 779.08 487.12 781.42 488.88 780.25C501.66 771.75 520.77 765.89 535.64 771.4C536.74 771.81 537.83 772.26 538.89 772.76C540.53 771.97 542.18 771.18 543.81 770.37C542.42 769.58 541.1 768.93 539.98 768.44C531.65 764.81 522.73 764.36 513.86 766.14H513.87Z" fill="#4D5E23"/>
<path d="M560.9 690.66C561.35 698.65 560.45 706.75 557.12 714.11C552.96 723.29 545.74 730.77 537.91 736.91C521.13 750.08 501.79 758.91 486.16 773.74C460.06 798.5 443.33 832.45 442.87 868.7C442.63 887.49 445.79 910.47 463.36 920.83C464.97 921.78 466.6 920.57 467.21 919.04C468.05 916.95 466.62 914.8 465.87 912.91C463.79 907.69 461.77 902.44 459.98 897.11C454.9 881.98 452.22 866.84 455.41 851C458.41 836.11 464.99 822.13 472.78 809.18C474.09 807 475.45 804.84 476.83 802.7C479.01 799.34 481.27 796.03 483.59 792.76C490.96 782.38 498.44 773.18 508.58 765.39C518.62 757.68 529.64 751.4 540.04 744.22C543 742.18 554.95 733.43 562.61 716.08C565.71 709.04 564.27 698.4 562.18 689.68C561.84 689.05 561.49 688.42 561.15 687.8C561.12 688.76 561.02 689.71 560.89 690.66H560.9Z" fill="#B6BD3D"/>
<path d="M1926.05 198.32C1926.05 198.32 1831.76 121.71 1846.31 112.92C1863.28 102.67 1934.53 169.29 1934.53 169.29C1934.53 169.29 1827.65 66.8099 1844.61 56.5599C1854.37 50.6599 1929.44 128.3 1929.44 128.3C1929.44 128.3 1878.54 39.4799 1887.03 37.7699C1895.51 36.0599 1944.71 99.2599 1944.71 99.2599C1944.71 99.2599 1954.89 188.08 1926.05 198.33V198.32Z" fill="#E62B67"/>
<path d="M1528.86 899.09C1535.65 914.46 1720.57 905.92 1720.57 905.92C1720.57 905.92 1759.59 854.68 1742.63 839.31C1725.66 823.94 1710.4 842.73 1710.4 842.73C1710.4 842.73 1764.69 699.25 1718.88 689C1673.07 678.75 1596.73 806.86 1596.73 806.86C1596.73 806.86 1576.37 759.03 1544.14 781.24C1511.91 803.44 1522.08 883.72 1528.87 899.1L1528.86 899.09ZM1704.52 795.99C1697.28 803.97 1687.96 807.28 1683.72 803.37C1679.47 799.46 1681.9 789.83 1689.14 781.85C1696.38 773.87 1705.7 770.56 1709.94 774.47C1714.19 778.38 1711.76 788.01 1704.52 795.99ZM1685.78 857.92C1695.58 853.5 1705.43 854.19 1707.78 859.48C1710.13 864.77 1704.1 872.63 1694.3 877.06C1684.5 881.48 1674.65 880.79 1672.3 875.5C1669.95 870.22 1675.98 862.35 1685.78 857.92ZM1638.6 774.55C1639.32 766.94 1643.19 761.09 1647.24 761.48C1651.29 761.87 1653.99 768.35 1653.26 775.96C1652.54 783.57 1648.67 789.42 1644.62 789.03C1640.57 788.64 1637.87 782.16 1638.6 774.55ZM1559.14 809.5C1566.14 808.92 1572.7 819.12 1573.78 832.28C1574.86 845.44 1570.06 856.58 1563.05 857.17C1556.05 857.75 1549.49 847.55 1548.41 834.39C1547.33 821.23 1552.13 810.09 1559.14 809.5Z" fill="#465C24"/>
<path d="M1712.46 688.44C1714.55 688.36 1716.59 688.53 1718.58 688.94C1697.02 739.77 1670.01 787.9 1648.44 838.75C1638.63 861.87 1629.71 885.38 1619.4 908.28C1616.38 908.28 1613.36 908.27 1610.37 908.25C1621.51 884.04 1630.91 859.08 1641.34 834.56C1662.51 784.75 1688.62 737.04 1712.47 688.43L1712.46 688.44Z" fill="#67A441"/>
<path d="M11.79 795.34C9.81997 791.7 11.52 787.019 12.73 783.409C16.13 773.299 24.35 761.98 36.43 764.49C41.68 765.58 46.88 766.63 52.02 768.21C62.12 771.33 71.84 775.75 80.83 781.35C84.45 783.6 87.99 786.079 90.81 789.289C93.24 792.049 95.04 796.38 92.72 799.21C90.79 801.57 87.18 801.399 84.17 800.899C77.43 799.789 70.77 798.11 64.31 795.88C79.1 805.2 91.53 818.249 102.3 832.039C103.68 833.809 105.05 835.659 105.76 837.789C106.47 839.919 106.43 842.42 105.13 844.24C102.98 847.26 98.53 847.25 94.88 846.56C84.14 844.52 74.28 839.3 64.62 834.13C73.96 844.88 83.64 857.26 91.56 869.1C99.48 880.94 105.97 893.899 109.1 907.789C109.88 911.259 110.45 914.87 109.73 918.35C109.6 918.99 109.39 919.669 108.86 920.039C108.41 920.349 107.82 920.38 107.28 920.32C105.24 920.08 103.51 918.72 101.97 917.36C98.65 914.41 95.64 911.13 92.65 907.84C82.58 896.74 76.94 893.12 69.07 885.98C69.88 896.57 67.72 904.02 61.8 917.94C61.15 919.48 59.67 921.25 58.18 920.5C57.46 920.14 57.12 919.299 56.85 918.539C50.54 900.989 45.71 882.91 42.42 864.57C38.97 871.73 39.32 879.91 34.7 886.37C33.57 887.94 31.89 889.46 29.97 889.19C27.99 888.91 26.77 886.889 25.99 885.039C22.3 876.279 21.88 866.509 22.5 857.039C23.12 847.579 24.74 838.19 24.93 828.71C23.58 832.67 22.26 835.77 20.1 839.34C19.59 840.18 18.96 841.08 17.99 841.26C16.14 841.61 15.06 839.22 14.77 837.34C12.65 823.39 15.6 809.26 18.53 795.49C18.59 797.08 17.1 798.03 15.51 797.96C13.92 797.89 12.53 796.73 11.77 795.33L11.79 795.34Z" fill="#EC6E3B"/>
<path d="M1.27997 697.71C28.72 740.39 48.41 790.09 56.75 840.14C57.2799 843.29 52.75 844.589 51.9 841.399C38.69 791.969 20.96 745.38 -2.92005 700.08C-4.39005 697.3 -0.400034 695.1 1.27997 697.72V697.71Z" fill="#D01D37"/>
<path d="M235.7 725.27C231.58 725.3 228.25 721.58 225.63 718.8C218.3 711 212.14 698.36 219.94 688.83C223.33 684.69 226.66 680.57 230.43 676.76C237.86 669.27 246.24 662.74 255.34 657.41C259 655.27 262.82 653.29 266.95 652.31C270.5 651.46 275.15 651.91 276.57 655.3C277.75 658.13 275.94 661.25 274.1 663.69C270 669.15 265.45 674.26 260.49 678.94C275.54 670.23 292.79 665.36 309.92 662.32C312.12 661.93 314.38 661.59 316.58 661.97C318.79 662.35 320.97 663.57 321.97 665.58C323.63 668.92 321.57 672.86 319.27 675.77C312.51 684.34 303.34 690.61 294.32 696.74C308.1 693.53 323.49 690.8 337.58 689.37C351.67 687.94 366.09 688.3 379.76 692.1C383.18 693.05 386.62 694.25 389.35 696.53C389.85 696.95 390.35 697.45 390.44 698.1C390.51 698.65 390.26 699.18 389.95 699.63C388.79 701.32 386.8 702.22 384.88 702.94C380.74 704.49 376.46 705.61 372.18 706.71C357.74 710.4 343.23 713.8 328.65 716.91C343.22 721.01 357.28 727.02 366.8 738.85C367.85 740.16 368.73 742.3 367.38 743.27C366.73 743.74 365.84 743.64 365.04 743.53C346.67 740.84 328.51 736.58 310.84 730.82C315.55 737.26 322.92 740.82 326.46 747.97C327.32 749.71 327.88 751.93 326.76 753.5C325.6 755.13 323.25 755.26 321.26 755.07C311.84 754.2 303.04 749.96 294.99 744.93C286.95 739.91 279.43 734.04 271.17 729.38C274.03 732.45 276.15 735.08 278.3 738.69C278.8 739.54 279.31 740.53 279.02 741.47C278.47 743.28 275.87 743.11 274.08 742.48C260.82 737.77 249.74 728.47 238.97 719.36C240.4 720.06 240.55 721.83 239.75 723.21C238.95 724.59 237.29 725.27 235.7 725.28V725.27Z" fill="#E62B67"/>
<path d="M144.86 688.46C195.14 684.28 248.02 690.3 295.95 706.56C298.97 707.58 298.02 712.21 294.81 711.46C245.17 699.82 195.95 693.53 144.99 693.31C141.86 693.3 141.77 688.72 144.85 688.47L144.86 688.46Z" fill="#4B172C"/>
<path d="M178 668.49C194.25 666.97 210.56 665.45 226.46 661.77C233 660.26 239.58 658.32 245.1 654.51C246.86 653.3 248.67 651.16 247.66 649.26C246.78 647.61 244.48 647.56 242.62 647.74C237.09 648.28 231.55 648.83 226.02 649.37C236.29 643.27 246.47 635.2 255.9 627.86C260.82 624.03 265.73 619.91 268.71 614.42C269.65 612.68 270.16 610.06 268.44 609.08C267.57 608.59 266.5 608.78 265.53 608.99C257.1 610.86 248.85 613.53 240.91 616.93C252.36 605.83 265.26 593.75 274.84 580.99C278.47 576.15 281.96 570.63 281.71 564.56C281.68 563.82 281.57 563.03 281.07 562.47C280.07 561.36 278.26 561.88 276.92 562.51C269.15 566.11 261.73 570.48 254.8 575.52C261.18 564.99 264.3 552.39 266.46 540.24C267.41 534.88 268.37 529.42 267.68 524.01C267.46 522.23 267.04 520.44 266.1 518.9C265.85 518.5 265.55 518.1 265.11 517.93C264.54 517.71 263.9 517.94 263.35 518.21C260.44 519.65 258.25 522.2 256.33 524.82C248.59 535.39 244.15 547.98 238.09 559.61C237.9 554.52 235.63 549.72 232.36 545.81C230.84 543.99 228.66 542.28 226.34 542.69C225.12 542.9 224.07 543.68 223.21 544.57C221.26 546.58 220.06 549.21 219.09 551.85C215.26 562.34 214.54 573.69 213.87 584.86C212.83 582.27 211.76 580.4 210.28 578.04C209.22 576.34 207.9 574.6 205.99 574.03C203.51 573.28 200.87 574.77 199.16 576.7C196.99 579.15 195.76 582.29 194.87 585.44C190.87 599.57 192.91 614.85 189.46 629.13C188.69 623.66 185.91 619.26 181.71 615.67C180.8 614.89 179.72 614.15 178.53 614.19C177.11 614.24 175.97 615.38 175.19 616.57C173.71 618.81 172.95 621.45 172.3 624.06C171.15 628.7 170.33 633.41 169.84 638.17C169.48 641.69 169.29 645.26 169.69 648.78C170.17 653.02 171.49 657.13 172.8 661.2C173.72 664.05 175.05 668.74 178.02 668.46L178 668.49Z" fill="#FFCC07"/>
<path d="M158.75 682.45C185.41 655.59 209.34 626.69 231.42 595.37C233.31 592.68 237.11 595.51 235.53 598.28C217.26 630.39 193.36 660.15 166.07 685.65C163.6 684.65 161.16 683.57 158.75 682.45Z" fill="#D01D37"/>
<path d="M207.9 774.61C223.86 772.74 240.33 772.45 255.74 777.13C258.67 778.02 261.58 779.1 264.13 780.8C265.78 781.9 267.42 783.66 267.02 785.6C266.59 787.7 264.13 788.57 262.02 788.93C255.11 790.11 248.04 789.72 241.04 789.32C252.39 793.08 264.16 798.96 274.49 805.02C281.3 809.01 287.93 813.57 292.89 819.73C293.58 820.59 294.26 821.51 294.54 822.58C294.82 823.65 294.65 824.9 293.83 825.64C292.96 826.43 291.64 826.44 290.46 826.36C279.9 825.7 269.48 822.52 260.32 817.14C266.73 823.41 272.1 830.47 277.69 837.49C287.01 849.19 295.18 861.99 300.2 876.08C301.11 878.64 301.91 881.54 300.79 884.01C300.57 884.49 300.22 884.98 299.71 885.08C299.33 885.15 298.94 885 298.59 884.83C296.56 883.86 294.76 882.46 293.04 881.01C279.35 869.46 270.76 856.93 258.24 844.11C260.97 857.46 259.63 868.49 258.04 881.99C257.94 882.86 257.81 883.76 257.35 884.5C256.88 885.24 255.96 885.76 255.13 885.5C254.47 885.29 254.04 884.67 253.67 884.08C249.59 877.6 247.02 870.3 244.48 863.08C241.02 853.23 237.56 843.39 234.11 833.54C232.97 839.45 230.96 845.75 228.79 851.36C228.41 852.35 227.99 853.37 227.23 854.12C226.47 854.87 225.29 855.28 224.32 854.84C223.76 854.58 223.34 854.09 222.96 853.6C220.71 850.71 218.83 847.53 217.38 844.16C215.17 839.02 214 833.5 212.67 828.06C209.12 813.48 204.37 799.01 203.75 784.03C203.68 782.23 203.67 780.39 204.17 778.66C204.68 776.93 206.11 774.82 207.9 774.61Z" fill="#FFCC07"/>
<path d="M191.25 783.87C203.07 794.88 214.01 807.3 220.5 822.1C221.73 824.91 222.81 827.84 223.18 830.88C223.42 832.85 223.15 835.24 221.42 836.18C219.55 837.2 217.28 835.88 215.64 834.5C210.25 829.97 205.94 824.31 201.67 818.7C206.21 829.8 209.41 842.59 211.54 854.39C212.94 862.16 213.8 870.18 212.36 877.93C212.16 879.01 211.9 880.12 211.27 881.03C210.64 881.94 209.57 882.61 208.48 882.46C207.31 882.3 206.45 881.3 205.74 880.35C199.36 871.84 194.99 861.82 193.11 851.36C192.53 860.3 190.66 868.95 188.97 877.74C186.16 892.39 181.76 906.87 174.33 919.78C172.98 922.13 171.3 924.6 168.69 925.33C168.18 925.47 167.58 925.52 167.17 925.19C166.87 924.94 166.73 924.55 166.63 924.17C166.04 921.99 165.94 919.72 165.92 917.46C165.78 899.56 170.84 882.07 172.42 864.24C164.06 874.91 153.67 883.83 142.37 891.3C141.64 891.78 140.88 892.27 140.01 892.38C139.14 892.49 138.15 892.13 137.8 891.32C137.53 890.68 137.72 889.95 137.92 889.29C140.18 882 144.05 875.34 147.88 868.76C153.11 859.78 158.33 850.81 163.56 841.83C158.32 844.76 152.24 847.27 146.56 849.22C145.56 849.56 144.51 849.9 143.45 849.8C142.39 849.7 141.31 849.06 141.01 848.03C140.84 847.43 140.95 846.8 141.07 846.19C141.8 842.61 142.99 839.12 144.6 835.85C147.07 830.85 150.49 826.41 153.76 821.9C162.52 809.81 170.41 796.87 181.39 786.77C182.71 785.55 184.1 784.36 185.75 783.64C187.39 782.92 189.94 782.66 191.26 783.89L191.25 783.87Z" fill="#E62B67"/>
<path d="M180.82 758.8C181.23 773.14 182.35 788.31 184.45 802.5C185.06 806.65 188.94 805.59 189.34 802.16C190.58 791.63 188.75 775.63 186.45 764.2C184.84 761.67 183.24 759.15 181.57 756.8C181.1 757.3 180.8 757.96 180.82 758.81V758.8Z" fill="#681B38"/>
<path d="M231.54 797.56C217.82 782.38 201.13 770.47 186.14 756.67C184.8 755.43 182.68 755.6 181.57 756.8C183.24 759.15 184.85 761.67 186.45 764.2C186.32 763.57 186.2 762.95 186.07 762.35C199.83 772.95 215.1 789.53 228.57 800.44C230.6 802.08 233.38 799.6 231.54 797.56Z" fill="#D01D37"/>
<path d="M144.3 699.32C141.6 696.8 190.33 750.68 192.02 761.93C192.19 763.09 184.87 767.9 181.23 765.07C165.52 752.84 132.37 706.56 132.06 707.21C131.68 708.02 144.29 699.32 144.29 699.32H144.3Z" fill="#4B172C"/>
<path d="M184.64 685.18C188.17 687.62 187.36 693.07 183.28 694.32C154.3 703.22 63.17 737.83 43.19 728.92C-68.68 679.03 -125.64 725.46 -124.51 755.81L-124.53 674.28C-124.53 674.28 -90.95 643.57 61.79 691.22C91.82 700.59 144.91 657.63 184.63 685.17L184.64 685.18Z" fill="#681B38"/>
<path d="M453.67 671.91C451.65 661.66 437.65 656.21 425.5 660.31C418.63 662.63 415.21 667.09 413.77 672.25C412.96 675.15 412.08 678.04 411.17 680.93C408.75 688.64 412.76 694.38 419.96 698.77C424.45 701.51 430.94 700.66 435.09 696.95C437.58 694.73 440.36 692.78 443.08 690.75C450.64 685.1 454.11 678.49 453.67 671.91Z" fill="#ED8992"/>
<path d="M1867.43 515.91C1860.1 512.18 1852.53 508.26 1847.43 501.79C1842.34 495.33 1840.45 485.55 1845.3 478.9C1847.74 475.56 1851.5 473.44 1855.31 471.85C1860.7 469.61 1867.71 468.56 1871.7 472.82C1873.93 475.2 1874.56 478.63 1874.98 481.87C1876.64 494.63 1876.56 507.62 1874.74 520.35C1874.52 521.9 1873.86 523.85 1872.29 523.9C1871.21 523.93 1870.38 522.99 1869.73 522.13C1867.24 518.86 1864.75 515.58 1862.26 512.31" fill="#DA4E13"/>
<path d="M1745.58 815.51C1747.12 809.97 1748.67 804.44 1750.21 798.9C1750.9 796.43 1751.95 793.58 1754.41 792.87C1756.53 792.26 1758.68 793.57 1760.5 794.82C1765.28 798.1 1770.06 801.38 1774.84 804.66C1777.11 806.22 1779.69 808.63 1778.76 811.23C1778.09 813.11 1775.9 813.89 1773.96 814.38C1765.2 816.6 1756.17 817.76 1747.14 817.82C1746.57 817.82 1745.89 817.76 1745.61 817.27C1745.33 816.78 1746.16 816.06 1746.43 816.56" fill="#8C9122"/>
<path d="M1931.9 560.05C1929.8 568.85 1925.53 576.7 1919.7 582.52C1918.54 583.68 1917.22 584.8 1915.63 584.89C1912.23 585.08 1909.68 580.82 1907.98 577.16C1902.64 565.71 1897.3 554.25 1891.96 542.8C1889.62 537.77 1887.69 530.47 1891.66 527.98C1893.98 526.52 1897.03 527.81 1899.65 529.13C1909.41 534.04 1919.07 539.26 1928.63 544.78C1930.23 545.71 1931.9 546.7 1933.02 548.36C1936.23 553.11 1933.06 559.29 1929.93 563.37" fill="#DA4E13"/>
<path d="M1949.86 935.93C1948.56 936.47 1947.26 937 1945.96 937.54C1944.27 937.99 1942.6 938.51 1940.87 938.82C1934.68 939.93 1928.57 939.19 1922.54 937.81C1917.15 936.57 1911.75 936.33 1906.27 936.93C1898.52 937.78 1890.77 938.67 1882.95 938.6C1872.9 938.51 1863.09 936.68 1853.34 934.5C1851.78 934.15 1850.25 933.68 1848.89 932.77C1846.86 931.41 1846.33 929 1847.63 926.92C1848.39 925.72 1849.38 924.72 1850.44 923.8C1863.6 912.39 1878.32 903.5 1894.29 896.63C1899.13 894.55 1904.04 892.66 1909.05 891.01C1914.31 889.28 1919.63 887.81 1925.09 886.87C1932.34 885.63 1939.6 885.82 1946.89 886.5C1954.04 887.17 1960.69 889.28 1966.93 892.8C1971.41 895.33 1975.19 898.65 1978.53 902.51C1979.03 903.08 1979.48 903.6 1980.38 903.48C1986.13 902.72 1991.91 902.05 1997.57 900.74C2002.61 899.58 2007.63 898.31 2012.65 897.03C2014.01 896.68 2015.45 896.57 2016.85 895.79C2014.92 894.45 2013.09 893.26 2011.34 891.96C2003.55 886.15 1995.8 880.29 1987.99 874.5C1980.72 869.11 1973.38 863.81 1966.27 858.21C1965.9 857.92 1965.55 857.64 1965.01 857.78C1961.81 858.61 1958.58 859.35 1955.4 860.24C1950.9 861.5 1946.4 862.77 1941.81 863.65C1931.7 865.61 1921.48 866.21 1911.2 865.86C1910.19 865.83 1909.53 866.05 1908.97 866.94C1904.38 874.21 1897.46 878.7 1890.04 882.49C1886.37 884.37 1882.49 885.83 1878.46 886.86C1872.16 888.46 1865.8 889.02 1859.33 888.5C1853.74 888.05 1848.35 886.59 1842.99 885.06C1840.41 884.32 1837.86 883.42 1835.08 884C1832.78 884.48 1830.56 885.22 1828.35 885.94C1822 888.02 1816.12 887.44 1810.55 883.54C1805.05 879.69 1799.76 875.56 1794.37 871.56C1782.78 862.98 1770.52 855.44 1758.2 847.99C1755.43 846.31 1752.64 844.64 1750.63 841.99C1750.21 840.98 1749.8 839.97 1749.38 838.95C1749.16 835.83 1750.58 833.54 1753.03 831.8C1756.34 829.45 1760.16 828.3 1764.02 827.34C1771.41 825.5 1778.94 824.47 1786.53 823.89C1804.3 822.52 1822 823.19 1839.65 825.47C1848.51 826.61 1857.34 828 1865.84 830.92C1875.95 834.39 1885.66 838.74 1894.77 844.34C1898.65 846.73 1902.56 849.11 1905.86 852.33C1907.97 854.39 1909.52 856.88 1911.15 859.3C1911.73 860.16 1912.44 860.51 1913.49 860.51C1917.86 860.51 1922.23 860.43 1926.58 860.12C1933.67 859.61 1940.67 858.58 1947.54 856.7C1951.29 855.67 1955.06 854.68 1958.82 853.68C1959.16 853.59 1959.62 853.62 1959.74 853.28C1959.9 852.81 1959.37 852.66 1959.1 852.43C1950.74 845.56 1942.68 838.37 1935 830.75C1933.16 828.93 1931.42 827.61 1928.73 828.3C1928.55 828.35 1928.34 828.3 1928.15 828.3C1922.54 828.16 1916.92 828.06 1911.31 827.86C1902.57 827.56 1893.84 827.2 1885.28 825.17C1879.17 823.72 1873.1 822.11 1866.91 821C1863.15 820.33 1859.37 819.67 1855.79 818.24C1855.4 818.08 1855.04 818.13 1854.65 818.26C1851 819.41 1847.27 820.17 1843.49 820.78C1834.2 822.27 1825.24 821.28 1816.6 817.43C1810.1 814.53 1803.83 811.22 1797.78 807.49C1795.02 805.78 1792.33 803.97 1790.44 801.24C1788.71 798.75 1789.25 796.05 1791.71 794.29C1793.09 793.3 1794.66 792.86 1796.27 792.57C1800.82 791.75 1805.38 791.98 1809.9 792.71C1815.46 793.6 1820.87 795.13 1826.15 797.07C1833.12 799.63 1839.88 802.65 1846.49 806.03C1849.32 807.48 1851.95 809.32 1855.07 810.26C1867.45 813.97 1879.88 817.41 1892.66 819.47C1895.46 819.92 1898.27 820.24 1901.22 820.64C1901.09 820.33 1901.08 820.21 1901.01 820.14C1899.78 818.89 1898.58 817.6 1897.29 816.41C1887.98 807.8 1877.73 800.4 1867.37 793.14C1866.88 792.8 1866.48 792.82 1865.97 793.06C1864.16 793.9 1862.29 794.55 1860.34 795C1853.53 796.6 1846.65 796.58 1839.75 795.92C1835.12 795.48 1830.58 794.58 1826.17 793.03C1821.6 791.43 1817.58 788.91 1814 785.74C1811.59 783.61 1808.89 782.43 1805.72 782.03C1801.26 781.47 1796.85 780.61 1792.64 779C1786.31 776.58 1781.51 772.21 1777.5 766.87C1774.66 763.09 1772.35 758.97 1769.72 755.06C1765.75 749.16 1760.82 744.13 1755.51 739.44C1753.32 737.51 1751 735.7 1749.18 733.38C1747.06 730.68 1747.07 727.77 1749.2 725.53C1750.09 724.59 1751.15 723.87 1752.33 723.31C1756.06 721.51 1760.03 720.57 1764.08 719.9C1771.52 718.66 1778.98 718.65 1786.46 719.47C1796.32 720.55 1805.57 723.47 1814.29 728.22C1826.07 734.63 1835.97 743.29 1844.8 753.27C1853.25 762.83 1860.18 773.46 1866.51 784.51C1867.18 785.67 1867.67 786.97 1868.87 787.8C1874.37 791.58 1879.81 795.44 1885.11 799.5C1893.43 805.86 1901.58 812.41 1908.35 820.48C1908.76 820.97 1909.24 821.15 1909.87 821.17C1914.28 821.33 1918.68 821.31 1923.09 821.03C1923.57 821 1924.1 821.11 1924.61 820.74C1924.35 820.43 1924.12 820.12 1923.85 819.85C1916.4 812.46 1908.95 805.07 1901.5 797.68C1888.51 784.83 1876.29 771.29 1864.92 756.97C1856.43 746.28 1848.22 735.38 1839.15 725.16C1836.51 722.18 1833.84 719.23 1831.18 716.28C1830.8 715.86 1830.43 715.3 1829.72 715.81C1828.11 716.98 1826.39 717.97 1824.65 718.94C1822.3 720.26 1819.88 721.42 1817.22 721.98C1811.56 723.17 1806.1 722.31 1800.82 720.21C1795.57 718.11 1791.06 714.84 1787.16 710.75C1784.34 707.81 1781.16 705.4 1777.3 703.99C1774.04 702.8 1770.7 701.83 1767.34 700.97C1763.87 700.08 1760.37 699.22 1757.08 697.75C1752.95 695.89 1749.58 693.01 1746.54 689.72C1741.69 684.47 1736.74 679.31 1730.85 675.2C1725.73 671.63 1720.53 668.17 1715.38 664.64C1713.35 663.25 1711.39 661.78 1709.88 659.78C1707.86 657.12 1707.43 654.24 1708.78 651.19C1709.63 649.27 1711.09 647.77 1712.62 646.36C1717.67 641.68 1723.8 638.72 1729.89 635.75C1734.49 633.51 1739.34 631.89 1744.34 630.75C1750.01 629.46 1755.73 628.92 1761.53 629.58C1771.12 630.67 1780.25 633.31 1788.91 637.6C1794.7 640.47 1800.28 643.71 1805.08 648.05C1816.6 658.46 1825.48 670.71 1830.71 685.48C1832.85 691.55 1834.46 697.7 1834.68 704.15C1834.71 705.16 1835.06 705.94 1835.67 706.69C1839.18 710.93 1842.5 715.31 1845.45 719.96C1846.85 722.17 1848.35 724.41 1849.02 726.91C1849.5 728.67 1850.32 730 1851.43 731.3C1852.04 732.01 1852.62 732.75 1853.2 733.48C1859.67 741.64 1866.12 749.8 1872.6 757.95C1878.7 765.61 1885.25 772.89 1891.88 780.1C1893.85 782.24 1895.89 784.33 1897.92 786.47C1898.03 786.3 1898.11 786.23 1898.11 786.17C1898.05 780.98 1897.91 775.81 1896.91 770.68C1895.34 762.65 1893.52 754.66 1892.89 746.47C1892.84 745.82 1892.51 745.5 1891.94 745.3C1890.62 744.82 1889.3 744.35 1888 743.81C1881.54 741.17 1876.04 737.12 1871.17 732.17C1865.09 726 1860.01 719.14 1856.76 711.05C1855.09 706.88 1853.93 702.53 1853.32 698.07C1852.8 694.26 1851.61 690.81 1848.92 687.97C1848.41 687.44 1848.03 686.79 1847.57 686.21C1842.83 680.23 1840.82 673.5 1841.74 665.87C1842.15 662.5 1842.32 659.1 1842.57 655.71C1843.16 647.63 1842.71 639.56 1842.3 631.48C1842.16 628.71 1842.02 625.94 1842.53 623.19C1843.05 620.37 1844.59 618.36 1847.29 617.26C1848.95 616.59 1850.68 616.33 1852.43 616.28C1863 615.97 1872.01 619.72 1879.45 627.11C1889.02 636.6 1895.81 647.99 1901.34 660.18C1902.87 663.55 1904.22 667 1905.43 670.52C1907.24 675.81 1908.66 681.18 1909.72 686.66C1911.65 696.63 1912.01 706.65 1910.47 716.7C1909.51 722.92 1907.89 729.01 1906.55 735.15C1905.45 740.15 1904.29 745.15 1901.72 749.66C1901.24 750.51 1901.15 751.3 1901.3 752.22C1902.87 762.06 1903.27 772.01 1903.68 781.94C1903.8 784.78 1903.49 787.63 1903.58 790.48C1903.62 791.69 1903.99 792.67 1904.87 793.5C1905.92 794.49 1906.93 795.52 1907.95 796.54C1917.15 805.66 1926.35 814.77 1935.55 823.89C1936.63 824.96 1937.74 826 1938.84 827.05C1938.61 826.27 1938.61 825.5 1938.36 824.8C1938.09 824.07 1937.88 823.32 1937.67 822.57C1934.27 810.27 1934.75 798.17 1939.55 786.29C1941.79 780.76 1942.8 774.98 1943.12 769.05C1943.15 768.52 1943.09 768.05 1942.72 767.64C1940.5 765.21 1938.71 762.49 1937.11 759.61C1934.05 754.13 1931.44 748.47 1929.95 742.36C1927.85 733.77 1926.61 725.06 1926.56 716.2C1926.53 710.66 1927.15 705.2 1929.1 699.97C1930.83 695.35 1933.07 690.96 1935.3 686.58C1937.39 682.49 1938.35 678.26 1937.94 673.69C1937.51 668.79 1937.35 663.88 1937.74 658.96C1938.34 651.46 1940.33 644.39 1943.73 637.68C1946.47 632.28 1949.63 627.11 1952.61 621.85C1954.15 619.13 1955.63 616.38 1957.24 613.7C1958.29 611.94 1959.64 610.49 1961.97 610.61C1963.76 610.71 1965.02 611.76 1966.09 613.03C1969.47 617.03 1971.72 621.73 1973.87 626.43C1976.09 631.29 1978.02 636.28 1979.62 641.4C1981.23 646.54 1982.5 651.76 1983.55 657.03C1985.51 666.88 1986.55 676.84 1987.05 686.87C1987.66 699.1 1985.85 710.92 1981.51 722.38C1978.62 729.99 1975.17 737.31 1971.3 744.48C1966.29 753.75 1958.9 760.65 1950.44 766.55C1949.03 767.53 1948.41 768.63 1948.35 770.17C1948.06 776.76 1946.47 783.04 1944.16 789.19C1942.32 794.06 1940.91 799.08 1940.76 804.33C1940.52 812.39 1941.93 820.17 1944.8 827.7C1945.52 829.59 1946.27 831.49 1946.41 833.54C1946.45 834.16 1946.73 834.55 1947.15 834.92C1950.12 837.57 1953.05 840.27 1956.06 842.88C1963.93 849.72 1972.13 856.14 1980.48 862.38C1982.65 864.01 1984.86 865.58 1987.13 867.24C1987.22 866.94 1987.28 866.79 1987.31 866.65C1988.57 860.12 1989.16 853.5 1990.09 846.93C1990.16 846.44 1990.01 846.12 1989.63 845.82C1987.05 843.8 1985.11 841.2 1983.29 838.52C1980.74 834.77 1978.71 830.75 1976.82 826.62C1975.01 822.66 1973.49 818.62 1972.47 814.41C1969.94 803.94 1970.26 793.47 1973.3 783.16C1974.92 777.68 1975.66 772.24 1975.18 766.54C1974.68 760.73 1975.64 755.12 1978.12 749.77C1979.85 746.04 1981.9 742.5 1984.01 738.98C1986.92 734.13 1989.91 729.32 1992.33 724.18C1994.48 719.61 1996.2 714.87 1998.04 710.18C1999.99 705.2 2001.87 700.18 2003.79 695.19C2004.44 693.51 2005.17 691.87 2006.32 690.45C2007.98 688.38 2010.33 687.65 2012.56 688.6C2013.68 689.08 2014.65 689.8 2015.52 690.67C2017.49 692.65 2018.93 695.01 2020.36 697.38C2023.78 703.04 2026.46 709.05 2028.93 715.17C2031.87 722.45 2034.55 729.8 2036.5 737.42C2038.46 745.06 2039.89 752.79 2040.59 760.66C2042 776.7 2039.58 792.11 2033.26 806.92C2029.56 815.59 2024.78 823.61 2019.08 831.11C2013.31 838.7 2005.66 843.57 1996.89 846.84C1995.68 847.29 1995.29 847.82 1995.15 848.99C1994.3 855.97 1993.55 862.96 1992.07 869.84C1991.91 870.58 1992.15 871.01 1992.71 871.42C1999.78 876.76 2006.82 882.14 2013.93 887.43C2017.4 890.02 2020.93 892.55 2024.63 894.81C2025.52 895.35 2026.14 896.05 2026.09 897.16C2026.04 898.31 2025.37 899.01 2024.36 899.45C2024.04 899.59 2023.72 899.75 2023.38 899.84C2016.82 901.53 2010.26 903.21 2003.7 904.89C1996.97 906.61 1990.12 907.68 1983.24 908.55C1981.72 908.74 1980.68 909.69 1980.12 910.89C1978.92 913.46 1977.25 915.64 1975.14 917.47C1969.57 922.3 1963.73 926.8 1957.8 931.19C1955.32 933.03 1952.6 934.46 1949.87 935.9L1949.86 935.93Z" fill="#252D18"/>
<path d="M1852.88 625.58C1861.77 626.58 1868.37 633.97 1872.21 641.56C1874.95 647.01 1876.19 653.09 1877.91 658.82C1879.97 665.71 1882.89 672.33 1885.42 679.07C1887.82 685.88 1890.06 692.76 1891.71 699.8C1893.83 709.21 1895.17 718.86 1894.95 728.53L1894.58 728.57C1892.66 720.24 1890 708.85 1887.85 700.74C1886.6 695.74 1883.83 684.75 1882.57 679.95C1879.93 668.34 1876.71 656.63 1870.89 646.2C1866.77 637.87 1861.72 629.62 1852.81 625.94L1852.9 625.58H1852.88Z" fill="#8C9122"/>
<path d="M1717.6 648.16C1726.44 647.45 1735.43 648.48 1743.94 650.96C1750.24 653.1 1756.23 655.97 1762.51 658.13C1781.46 664.54 1799.14 675.39 1810.87 691.89L1810.6 692.14C1803.73 686.58 1796.93 681.21 1789.8 676.29C1786.73 674.2 1782.24 671.04 1779.04 669.01C1771.59 664.53 1764.25 659.63 1755.92 656.89C1747.54 654.48 1738.89 653.29 1730.44 651.18C1726.14 650.32 1721.87 649.53 1717.57 648.51L1717.59 648.14L1717.6 648.16Z" fill="#8C9122"/>
<path d="M1769.11 730.64C1776.43 732.16 1783.52 734.85 1790.07 738.45C1794.85 741.36 1799.37 744.71 1804.4 747.2C1819.56 754.41 1834.05 763.69 1844.82 776.78L1844.57 777.06C1830.36 768.17 1817.42 757.88 1803.76 748.29C1799.1 745.21 1793.84 743.29 1788.69 741.23C1785.27 739.82 1782.01 738.12 1778.72 736.42C1775.41 734.73 1772.13 733 1768.97 730.98L1769.11 730.63V730.64Z" fill="#8C9122"/>
<path d="M716.77 950.47C698.82 931.44 690 904.14 693.4 878.19C696.8 852.24 712.37 828.15 734.62 814.4C738.62 811.93 742.97 809.63 745.55 805.7C747.56 802.63 748.26 798.92 749.15 795.36C754.69 773.37 769.36 754.56 786.81 740.11C804.27 725.66 824.53 715.07 844.62 704.6C854.4 727.5 854.79 754.26 845.7 777.44C843.04 784.23 839.53 791.04 839.82 798.32C840.03 803.69 842.3 808.74 843.45 813.98C846.76 828.99 840.81 844.48 833.4 857.94C808.5 903.19 765.12 937.89 715.53 952.21" fill="#E25F45"/>
<path d="M691.26 863.67C673.33 850.72 650.42 843.52 637.55 825.52C626.63 810.24 625.29 789.73 629.65 771.45C634.01 753.18 643.43 736.59 652.75 720.28C659.45 737.54 670.94 752.61 677.74 769.84C683.24 783.77 685.53 798.75 687 813.66C688.64 830.3 689.3 847.04 688.99 863.75" fill="#E25F45"/>
<path d="M703.53 823.83C701.65 810.83 699.77 797.82 698.8 784.72C697.39 765.71 698.26 745.36 708.91 729.56C716.18 718.78 727.25 711.26 738.04 704.02C741.12 715.14 744.23 726.5 743.56 738.02C743.03 747.28 740.07 756.22 736.73 764.87C729.69 783.1 720.81 800.62 710.28 817.08C708.23 820.28 705.86 823.65 702.27 824.87" fill="#E25F45"/>
<path d="M676.39 843.35C670.76 838.26 666.27 831.91 663.15 825C661.13 819.7 659.79 814.15 657.24 809.07C654.83 803.94 652.03 798.95 650.3 793.52C646.5 782.79 644.84 771.21 646.22 759.88L646.72 759.84C647.34 761.66 647.84 763.48 648.3 765.29C650.75 774.22 652.91 783.17 654.84 792.22C656.76 799.37 657.58 806.92 660.92 813.62C662.58 816.95 664.89 819.96 666.86 823.1C669.8 827.83 672.22 832.8 674.58 837.85C675.4 839.53 676.16 841.25 676.81 843.08L676.4 843.37L676.39 843.35Z" fill="#881C12"/>
<path d="M704.69 813.27C703.13 806.15 703.17 798.69 704.63 791.56C706.04 786.3 708.13 781.24 708.93 775.84C709.88 770.49 710.4 765.02 712.02 759.8C714.91 749.27 719.96 739.24 727.27 731.09L727.7 731.34C727.22 733.12 726.64 734.84 726.03 736.52C721.58 750.11 715.51 762.92 710.56 776.24C708.87 781.38 708.92 786.83 708.75 792.17C708.58 795.72 707.99 799.2 707.41 802.71C706.84 806.27 706.21 809.78 705.18 813.29H704.68L704.69 813.27Z" fill="#881C12"/>
<path d="M832.51 726.47C827.92 737.45 822.54 748.34 817.27 759.01C814.09 765.25 810.73 772.03 807.3 778.08C802.64 786.44 797.62 794.62 793.17 803.1C784.25 820.05 777.47 838.03 769.43 855.4C759.82 877.15 749.46 899.08 738.64 920.22C736.47 924.49 734.27 928.75 731.95 932.97L731.49 932.77C742.27 900.96 756.2 870.34 771.67 840.56C778.41 827.86 785.58 815.39 791.73 802.38C797.9 789.41 803.14 775.96 810.1 763.35C811.77 760.22 815.27 753.85 817.03 750.75C821.79 742.43 826.69 734.18 832.09 726.22L832.53 726.46L832.51 726.47Z" fill="#881C12"/>
<path d="M1273.52 871.22C1266.51 844.95 1257.68 819.17 1247.12 794.12C1241.84 781.6 1236 769.05 1226.89 758.97C1217.79 748.89 1204.88 741.47 1191.31 741.92C1187.25 742.05 1183.13 742.92 1179.71 745.11C1177.12 746.77 1175.04 749.11 1172.52 750.86C1155.65 762.55 1130.88 742.82 1112.66 752.26C1105.72 755.86 1100.82 763.35 1093.18 764.98C1087.58 766.18 1081.66 763.9 1076.09 765.21C1069.02 766.86 1064.58 773.59 1059.89 779.14C1049.76 791.14 1035.38 799.46 1019.95 802.34C1103.18 829.74 1187.85 852.74 1273.51 871.21L1273.52 871.22Z" fill="#E28D16"/>
<path d="M1005.2 804.92C1019.29 800.6 1032.33 793.05 1043.03 782.9C1052.51 773.91 1060.24 762.41 1071.91 756.01C1074.79 754.43 1077.85 753.28 1081.07 752.61C1084.94 751.8 1088.9 751.66 1092.82 751.2C1096.49 750.76 1100.07 750.06 1103.46 748.53C1106.18 747.3 1108.65 745.6 1111.01 743.77C1115.78 740.06 1120.01 735.59 1125.22 732.45C1127.79 730.9 1130.6 729.73 1133.6 729.35C1136.95 728.92 1140.34 729.43 1143.6 730.21C1150.2 731.79 1156.6 734.57 1163.46 734.8C1170.32 735.03 1175.57 732.02 1180.65 727.97C1185.73 723.92 1190.51 719.15 1197.1 718.22C1204.06 717.24 1210.9 720.58 1216.29 724.69C1221.91 728.98 1226.56 734.6 1230.58 740.38C1234.6 746.16 1238.09 752.57 1241.03 759.09C1246.9 772.12 1250.78 785.95 1254.3 799.77C1258.46 816.12 1262.41 832.53 1266.46 848.91C1270.49 865.22 1275.29 881.76 1275.44 898.69C1275.48 902.89 1275.21 907.08 1274.56 911.23C1274.26 913.12 1277.15 913.93 1277.45 912.03C1280.14 894.89 1276.61 877.75 1272.56 861.13C1268.51 844.51 1264.1 826.85 1259.87 809.71C1253 781.89 1245.85 752.38 1226.47 730.28C1217.62 720.2 1203.43 710.49 1189.84 717.5C1184.13 720.45 1179.85 725.44 1174.42 728.8C1171.57 730.56 1168.47 731.68 1165.11 731.8C1161.75 731.92 1158.44 731.24 1155.21 730.37C1148.56 728.59 1141.86 725.83 1134.85 726.24C1128.49 726.61 1123.14 729.84 1118.31 733.74C1113.48 737.64 1109.12 742.17 1103.62 745.11C1096.72 748.8 1088.74 748.16 1081.25 749.52C1067.71 751.99 1058.17 762.48 1049.27 772.13C1044.48 777.32 1039.6 782.39 1034 786.72C1028.09 791.3 1021.59 795.15 1014.76 798.19C1011.4 799.68 1007.94 800.95 1004.43 802.02C1002.59 802.58 1003.37 805.48 1005.23 804.91L1005.2 804.92Z" fill="#E25F45"/>
<path d="M360.77 787.2C364.34 779.67 357.94 769.51 348.21 766.38C342.71 764.61 338.4 765.84 335.03 768.47C333.14 769.95 331.2 771.38 329.25 772.8C324.05 776.59 323.9 782.19 326.43 788.42C328.01 792.31 332.57 794.85 336.99 794.44C339.64 794.2 342.34 794.27 345.05 794.26C352.57 794.23 357.93 791.64 360.77 787.21V787.2Z" fill="#ED8992"/>
<path d="M-84.89 482.9C-85.92 482.05 -86.95 481.2 -87.98 480.35C-88.96 479.54 -89.97 478.77 -90.91 477.91C-93.03 475.96 -95.17 474.02 -97.2 471.97C-98.94 470.22 -100.63 468.41 -102.26 466.54C-104.24 464.27 -106.25 462.03 -107.91 459.51C-109.75 456.7 -111.36 453.77 -112.33 450.53C-112.75 449.13 -112.44 447.89 -111.5 446.72C-110.4 445.36 -109.16 444.14 -108 442.84C-107.88 442.71 -107.76 442.57 -107.63 442.45C-106.29 441.24 -104.95 441.49 -104.43 443.2C-102.94 448.12 -100.18 452.43 -97.84 456.93C-95.5 461.42 -92.86 465.74 -89.91 469.86C-88.16 472.31 -86.34 474.69 -84.28 476.9C-83.37 477.88 -82.42 478.83 -81.45 479.75C-81.3 479.9 -81.17 480.09 -80.89 480.14C-82.05 475.87 -83.96 471.86 -84.85 467.52C-86.01 461.8 -86.54 456.08 -85.44 450.29C-84.89 447.41 -83.89 444.7 -82.63 442.08C-80.68 438.05 -78.02 434.54 -74.79 431.48C-71.32 428.2 -67.48 425.41 -63.12 423.39C-61.5 422.64 -59.92 422.75 -58.37 423.62C-57.4 424.17 -56.52 424.85 -55.46 425.27C-54.3 425.73 -53.17 425.79 -52 425.41C-48.86 424.39 -45.79 423.16 -42.7 422C-38.16 420.29 -33.48 419.01 -28.67 418.33C-24.51 417.74 -20.39 418.16 -16.32 419.15C-12.6 420.05 -9.13 421.59 -5.82001 423.45C-2.88 425.1 -0.100006 427.01 2.51999 429.14C5.23 431.35 7.81999 433.72 10.1 436.38C10.68 437.05 11.33 437.66 11.81 438.44C12.85 440.12 12.2 441.82 10.44 442.64C8.75999 443.42 6.96001 443.77 5.14 444.02C1.71001 444.48 -1.73001 444.82 -5.15001 445.31C-11.46 446.22 -17.69 447.47 -23.67 449.73C-28.6 451.6 -33.01 454.39 -36.97 457.85C-39.76 460.29 -42.14 463.08 -43.89 466.36C-44.41 467.33 -44.74 468.36 -44.81 469.48C-44.91 471.22 -43.79 471.98 -42.49 472.28C-41.13 472.6 -39.78 472.4 -38.44 472.12C-36.24 471.66 -34.18 470.81 -32.1 470C-25.23 467.33 -18.62 464.05 -11.75 461.39C-6.16002 459.23 -0.430008 457.53 5.40999 456.19C9.10999 455.34 12.74 454.23 16.48 453.56C21.32 452.7 26 453.13 30.46 455.26C32.19 456.08 33.68 457.3 35.15 458.55C37.15 460.24 38.81 462.22 40.41 464.25C42.97 467.49 45.25 470.93 47.14 474.62C48.93 478.12 50.42 481.71 51.36 485.53C51.4 485.68 51.44 485.83 51.48 485.98C51.94 488.04 50.78 489.23 48.72 488.76C45.47 488.02 42.31 486.97 39.09 486.14C32.87 484.53 26.57 483.46 20.16 483.01C15.67 482.69 11.19 482.86 6.71999 483.28C1.40999 483.77 -3.84001 484.72 -9.06001 485.86C-12.4 486.59 -15.7 487.48 -18.89 488.7C-20.46 489.3 -21.97 490 -23.24 491.14C-24.81 492.55 -24.42 493.82 -23.2 495.2C-21.74 496.85 -19.77 497.67 -17.69 498.21C-13.75 499.23 -9.7 499.32 -5.66 499.4C-1.87001 499.48 1.92999 499.58 5.71999 499.67C9.01999 499.74 12.32 499.8 15.62 499.88C19.43 499.97 23.25 500.09 27.06 500.18C32.04 500.3 37 500.67 41.94 501.29C45.97 501.8 50.01 502.29 53.89 503.58C56.71 504.52 59.23 505.99 61.48 507.88C65.22 511.02 68.22 514.82 70.75 518.98C72.55 521.94 73.77 525.14 74.5 528.55C75.17 531.7 76.01 534.81 76.51 537.99C76.69 539.16 76.85 540.33 76.78 541.52C76.68 543.22 75.43 544.28 73.76 544.02C72.51 543.82 71.37 543.29 70.27 542.69C65.75 540.25 61.39 537.53 56.97 534.91C49.78 530.66 42.57 526.44 34.75 523.41C27.18 520.47 19.33 518.76 11.23 518.23C6.58 517.92 1.95 517.97 -2.65001 518.7C-4.54001 519 -6.44 519.34 -8.24001 520.04C-8.87001 520.28 -9.46001 520.59 -10.02 520.96C-10.95 521.57 -11.21 522.43 -11.03 523.46C-10.75 525.09 -9.92001 526.47 -8.84001 527.69C-5.82001 531.14 -1.92001 533.19 2.28999 534.75C7.64 536.73 13.22 537.51 18.87 537.94C24.67 538.39 30.49 538.66 36.25 539.59C39.58 540.13 42.85 540.95 46.13 541.74C51.43 543.02 56.74 544.2 62.07 545.36C66.59 546.35 71.09 547.41 75.26 549.52C77.67 550.75 79.76 552.34 81.21 554.67C82.38 556.55 82.93 558.63 83.15 560.81C83.43 563.44 83.15 566.03 82.67 568.6C82.19 571.15 81.63 573.68 80.96 576.18C80.12 579.3 78.82 582.24 77.56 585.2C76.35 588.07 75.37 591.01 75.15 594.15C74.92 597.39 75.24 600.57 75.99 603.72C76.67 606.61 77.81 609.32 79.2 611.94C79.62 612.73 80.07 613.51 80.23 614.4C80.27 614.64 80.43 614.79 80.59 614.94C81.09 615.4 81.16 615.98 80.99 616.6C80.81 617.25 80.34 617.61 79.71 617.74C79.36 617.81 78.99 617.83 78.64 617.79C75.44 617.47 72.4 618.3 69.35 619.1C62.17 620.98 55.44 623.93 49.05 627.65C45.22 629.88 41.34 631.98 37.14 633.43C34.14 634.46 31.09 635.17 27.88 634.58C25.1 634.07 22.72 632.77 20.62 630.92C17.7 628.34 15.79 625.03 14.03 621.63C10.32 614.46 7.23999 607 3.85999 599.67C1.92999 595.49 -0.170013 591.39 -2.85001 587.62C-3.95001 586.08 -5.18001 584.62 -6.78001 583.55C-6.89001 583.48 -7 583.39 -7.11 583.33C-7.87 582.89 -8.08 582.97 -8.35001 583.81C-8.90001 585.56 -8.73 587.36 -8.55 589.13C-8.02 594.25 -6.32001 599.05 -4.28001 603.74C-1.57001 609.99 1.83998 615.86 5.46999 621.61C7.27998 624.48 9.17999 627.3 10.69 630.35C11.9 632.81 12.93 635.31 12.93 638.13C12.93 641.28 10.98 644.01 7.96999 644.94C5.17999 645.81 2.33 645.69 -0.520004 645.42C-4.08 645.08 -7.5 644.15 -10.77 642.71C-15.13 640.8 -18.12 637.51 -20.19 633.31C-21.99 629.66 -23.06 625.75 -24.11 621.85C-26.08 614.5 -27.57 607.06 -28.92 599.58C-30.22 592.35 -31.2 585.07 -32.18 577.78C-32.89 572.56 -33.47 567.31 -34.66 562.16C-35.44 558.79 -36.55 555.54 -38.32 552.55C-39.01 551.38 -39.79 550.24 -40.9 549.42C-42.43 548.29 -43.88 548.42 -45.32 549.67C-47.59 551.65 -48.57 554.29 -49.21 557.12C-49.93 560.32 -50.15 563.57 -50.24 566.83C-50.33 570 -50.33 573.17 -50.2 576.34C-49.84 585.05 -48.52 593.61 -46.52 602.1C-44.17 612.07 -41.49 621.94 -37.75 631.5C-36.63 634.35 -35.42 637.16 -34.27 640C-34.05 640.54 -33.89 641.09 -34 641.7C-34.21 642.85 -34.93 643.46 -36.1 643.43C-36.62 643.42 -37.12 643.29 -37.61 643.13C-41.42 641.91 -45.15 640.49 -48.81 638.86C-51.72 637.56 -54.49 636.04 -57.03 634.13C-60.43 631.57 -63.02 628.33 -64.75 624.44C-67.01 619.35 -68.19 613.97 -69 608.49C-69.85 602.75 -70.16 596.98 -70.26 591.19C-70.37 585.47 -70.04 579.76 -69.6 574.06C-69.25 569.65 -68.98 565.24 -68.46 560.84C-67.98 556.73 -67.21 552.67 -66.83 548.55C-66.58 545.84 -66.36 543.11 -67.08 540.42C-67.31 539.55 -67.62 538.72 -68.15 537.98C-68.77 537.09 -69.35 536.98 -70.24 537.61C-71.54 538.52 -72.53 539.74 -73.41 541.03C-74.9 543.2 -76.29 545.43 -77.48 547.79C-80.38 553.54 -82.27 559.62 -83.46 565.93C-84.8 573.04 -84.97 580.22 -84.59 587.43C-84.3 593.05 -83.95 598.67 -83.73 604.3C-83.63 606.9 -83.57 609.53 -84.2 612.1C-84.38 612.84 -84.6 613.57 -85.06 614.19C-85.96 615.39 -87.2 615.74 -88.62 615.53C-90.42 615.26 -91.9 614.28 -93.39 613.34C-95.54 611.99 -97.49 610.38 -99.3 608.64C-104.03 604.09 -108.01 599 -110.24 592.72C-111.41 589.44 -111.93 586.06 -111.81 582.58C-111.6 576.4 -110.2 570.46 -108.14 564.66C-105.91 558.4 -103.28 552.32 -100.3 546.38C-98.13 542.04 -95.54 537.95 -92.79 533.97C-91.56 532.19 -90.31 530.42 -89.47 528.41C-89.26 527.91 -89.09 527.41 -89.02 526.87C-88.84 525.39 -89.37 524.59 -90.81 524.2C-92.21 523.82 -93.52 524.23 -94.8 524.7C-97.61 525.74 -100.1 527.35 -102.52 529.09C-105.07 530.93 -107.46 532.98 -109.84 535.03C-111.33 536.31 -112.73 537.69 -114.08 539.1C-115.41 540.5 -116.71 541.95 -117.88 543.51C-118.86 544.83 -119.87 546.14 -120.78 547.52C-123.4 551.47 -125.61 555.65 -127.5 560C-129.59 564.8 -131 569.79 -131.97 574.92C-132.21 576.2 -132.42 577.53 -133.39 578.55C-134.3 579.51 -135.44 579.69 -136.6 579.06C-137.69 578.47 -138.37 577.49 -139.04 576.53C-142.56 571.46 -145.86 566.26 -148.35 560.58C-150.26 556.22 -151.76 551.75 -152.58 547.05C-153.62 541.14 -153.67 535.24 -152.78 529.31C-151.67 521.94 -149.49 514.92 -146.22 508.22C-144.61 504.92 -142.82 501.74 -140.77 498.71C-139.05 496.18 -137.2 493.76 -135.17 491.46C-131.42 487.22 -127.23 483.53 -122.42 480.53C-120.67 479.44 -118.83 478.67 -116.83 478.2C-113.55 477.43 -110.27 476.69 -106.9 476.41C-103.42 476.12 -100.17 476.86 -96.98 478.15C-93.46 479.57 -89.98 481.09 -86.41 482.39C-85.91 482.57 -85.41 482.74 -84.91 482.91L-84.88 482.81L-84.89 482.9ZM-70 508.06C-70.71 508.94 -71.26 509.83 -71.67 510.8C-72.88 513.7 -73.41 516.74 -73.48 519.87C-73.51 521.4 -73.25 522.9 -72.65 524.31C-72.35 525.02 -71.89 525.07 -71.39 524.47C-71.05 524.06 -70.7 523.65 -70.43 523.19C-68.8 520.37 -68.02 517.29 -67.85 514.07C-67.67 510.71 -67.59 510.44 -69.21 508.26C-69.3 508.14 -69.2 508.12 -69.14 508.06C-69.02 507.93 -69 507.75 -69.12 507.63C-69.3 507.45 -69.44 507.65 -69.58 507.74C-69.75 507.85 -69.9 507.98 -69.99 508.05L-70 508.06ZM11.94 575.09C11.57 576.16 11.35 577.18 11.3 578.24C11.15 581.38 11.67 584.42 12.67 587.39C13.16 588.84 13.91 590.16 14.95 591.29C15.47 591.86 15.93 591.75 16.19 591.01C16.37 590.51 16.56 590 16.66 589.48C17.24 586.27 16.93 583.11 16 580.02C15.03 576.8 15.02 576.52 12.75 575.02C12.63 574.94 12.71 574.89 12.75 574.81C12.82 574.64 12.78 574.47 12.63 574.4C12.4 574.29 12.33 574.52 12.23 574.66C12.11 574.82 12.01 574.99 11.95 575.09H11.94ZM-39.94 512.79C-39.94 512.79 -39.79 512.91 -39.67 512.97C-39.31 513.14 -38.96 513.35 -38.58 513.47C-34.89 514.63 -31.17 514.63 -27.43 513.77C-26.64 513.59 -25.91 513.26 -25.2 512.88C-24.63 512.56 -24.64 512.27 -25.2 511.93C-25.78 511.58 -26.4 511.33 -27.04 511.15C-30.15 510.28 -33.28 510.23 -36.44 510.8C-37.65 511.02 -38.82 511.36 -39.9 511.99C-40.28 512.21 -40.38 512.44 -39.94 512.8V512.79ZM-2.73001 542.5C-5.21001 541.37 -7.77 541.05 -10.41 541.7C-7.94 542.87 -5.37001 543.07 -2.73001 542.5ZM26.06 559.29C26.06 559.29 26.21 559.41 26.33 559.47C26.69 559.64 27.04 559.85 27.42 559.97C31.11 561.13 34.83 561.13 38.57 560.27C39.36 560.09 40.09 559.76 40.8 559.37C41.37 559.05 41.36 558.76 40.8 558.42C40.22 558.07 39.6 557.82 38.96 557.64C35.85 556.77 32.72 556.72 29.56 557.29C28.35 557.51 27.18 557.85 26.1 558.48C25.72 558.7 25.62 558.93 26.06 559.29Z" fill="#465C24"/>
<path d="M-80.39 484.59C-62.29 494.31 -51.14 512.43 -37.27 526.91C-34.59 529.83 -31.55 532.68 -28.62 535.34C-16.47 546.02 -2.52002 554.3 10.74 563.51C24.17 572.62 37.33 582.28 48.58 594.07C54.24 599.93 59.21 606.44 63.55 613.27L63.3 613.44C61.98 611.9 60.69 610.35 59.41 608.8C56.89 605.75 54.01 602.76 51.26 599.92C29.69 578.65 3.45998 563.07 -19.84 543.76C-29.28 536.1 -38.81 528.49 -47.16 519.58C-52.68 513.61 -57.65 507.25 -62.98 501.25C-68.31 495.26 -73.97 489.56 -80.55 484.86L-80.39 484.6V484.59Z" fill="#252D18"/>
<path d="M-59.19 493.53C-52.57 488.59 -45.54 484.26 -38.08 480.72C-34.32 479.01 -30.4 477.66 -26.6 476.07C-18.97 472.94 -11.58 469.07 -3.54 466.97C8.4 463.55 21.49 462.74 33.46 466.31L33.41 466.61C21.08 465.86 9.11 467.19 -2.85 469.73C-10.75 471.58 -18.83 473.42 -26.2 476.97C-33.51 480.67 -40.36 485.19 -47.81 488.66C-51.49 490.48 -55.18 492.28 -59.04 493.8L-59.19 493.54V493.53Z" fill="#252D18"/>
<path d="M1378.53 879.81C1378.43 881.14 1378.33 882.47 1378.23 883.8C1378.13 885.07 1378.09 886.34 1377.92 887.6C1377.55 890.46 1377.19 893.32 1376.69 896.16C1376.26 898.59 1375.75 901.02 1375.17 903.42C1374.46 906.35 1373.78 909.28 1372.67 912.08C1371.43 915.2 1369.96 918.21 1367.87 920.86C1366.96 922.01 1365.78 922.47 1364.28 922.37C1362.54 922.26 1360.83 921.95 1359.1 921.74C1358.92 921.72 1358.74 921.7 1358.57 921.66C1356.81 921.26 1356.24 920.02 1357.34 918.61C1360.51 914.55 1362.44 909.82 1364.77 905.31C1367.1 900.81 1369.1 896.16 1370.78 891.38C1371.77 888.54 1372.67 885.68 1373.29 882.73C1373.57 881.42 1373.79 880.1 1373.99 878.78C1374.02 878.57 1374.1 878.35 1373.99 878.1C1371.16 881.51 1368.99 885.38 1365.95 888.6C1361.95 892.84 1357.58 896.57 1352.21 899C1349.54 900.21 1346.75 900.95 1343.87 901.43C1339.45 902.16 1335.05 902 1330.69 901.12C1326.01 900.18 1321.52 898.64 1317.36 896.24C1315.81 895.34 1314.99 893.99 1314.81 892.23C1314.7 891.12 1314.75 890 1314.48 888.9C1314.19 887.69 1313.59 886.73 1312.6 885.99C1309.95 884.01 1307.18 882.21 1304.45 880.35C1300.44 877.62 1296.7 874.53 1293.37 870.99C1290.49 867.93 1288.47 864.32 1286.92 860.42C1285.51 856.86 1284.77 853.14 1284.39 849.35C1284.05 845.99 1284.01 842.62 1284.24 839.26C1284.49 835.77 1284.93 832.29 1285.79 828.89C1286.01 828.03 1286.13 827.15 1286.49 826.31C1287.27 824.49 1289.03 824.04 1290.71 825.02C1292.31 825.94 1293.64 827.22 1294.89 828.56C1297.24 831.09 1299.5 833.72 1301.87 836.23C1306.24 840.86 1310.86 845.24 1316.16 848.83C1320.53 851.79 1325.35 853.78 1330.46 855.03C1334.06 855.91 1337.71 856.25 1341.41 855.79C1342.5 855.65 1343.54 855.34 1344.49 854.75C1345.97 853.84 1345.95 852.48 1345.45 851.24C1344.93 849.95 1343.99 848.96 1342.99 848.02C1341.35 846.48 1339.46 845.29 1337.6 844.05C1331.46 839.97 1324.98 836.46 1318.84 832.37C1313.85 829.04 1309.17 825.34 1304.71 821.34C1301.88 818.81 1298.88 816.48 1296.18 813.8C1292.69 810.34 1290.35 806.26 1289.52 801.39C1289.2 799.5 1289.34 797.59 1289.5 795.66C1289.73 793.05 1290.39 790.55 1291.13 788.08C1292.31 784.12 1293.8 780.28 1295.73 776.6C1297.56 773.12 1299.64 769.83 1302.22 766.87C1302.32 766.75 1302.42 766.63 1302.52 766.51C1303.94 764.94 1305.58 765.21 1306.38 767.17C1307.64 770.25 1308.61 773.44 1309.78 776.55C1312.04 782.56 1314.8 788.33 1318.12 793.83C1320.45 797.69 1323.16 801.25 1326.08 804.66C1329.54 808.72 1333.34 812.46 1337.27 816.07C1339.79 818.38 1342.42 820.56 1345.25 822.48C1346.64 823.42 1348.08 824.25 1349.75 824.63C1351.81 825.1 1352.62 824.05 1353.05 822.26C1353.56 820.11 1353.09 818.03 1352.33 816.03C1350.89 812.22 1348.63 808.86 1346.38 805.51C1344.26 802.36 1342.16 799.2 1340.05 796.05C1338.21 793.31 1336.35 790.58 1334.52 787.83C1332.4 784.66 1330.3 781.48 1328.18 778.3C1325.41 774.16 1322.85 769.9 1320.52 765.5C1318.61 761.91 1316.69 758.33 1315.51 754.41C1314.66 751.57 1314.41 748.66 1314.65 745.73C1315.06 740.86 1316.44 736.22 1318.39 731.76C1319.77 728.58 1321.69 725.74 1324.05 723.19C1326.24 720.83 1328.3 718.35 1330.61 716.11C1331.46 715.29 1332.33 714.49 1333.34 713.86C1334.79 712.96 1336.37 713.37 1337.12 714.89C1337.68 716.03 1337.9 717.27 1338.05 718.51C1338.66 723.61 1338.94 728.74 1339.35 733.86C1340.02 742.19 1340.72 750.51 1342.74 758.65C1344.7 766.53 1347.82 773.93 1352.05 780.86C1354.47 784.84 1357.18 788.59 1360.43 791.94C1361.77 793.32 1363.13 794.67 1364.74 795.74C1365.3 796.11 1365.89 796.42 1366.52 796.67C1367.55 797.08 1368.41 796.79 1369.14 796.06C1370.31 794.89 1370.96 793.42 1371.34 791.84C1372.42 787.39 1371.85 783.01 1370.7 778.67C1369.24 773.15 1366.66 768.14 1363.76 763.27C1360.78 758.27 1357.66 753.35 1355.1 748.11C1353.62 745.08 1352.41 741.93 1351.17 738.79C1349.17 733.72 1347.06 728.7 1344.96 723.67C1343.17 719.41 1341.44 715.12 1340.77 710.49C1340.38 707.82 1340.48 705.19 1341.55 702.66C1342.41 700.62 1343.8 698.98 1345.45 697.53C1347.44 695.79 1349.71 694.52 1352.1 693.43C1354.46 692.36 1356.85 691.36 1359.28 690.47C1362.32 689.36 1365.47 688.74 1368.61 688.05C1371.65 687.39 1374.62 686.49 1377.32 684.87C1380.1 683.19 1382.51 681.1 1384.66 678.67C1386.63 676.45 1388.19 673.96 1389.53 671.32C1389.93 670.52 1390.31 669.71 1390.95 669.06C1391.12 668.89 1391.15 668.68 1391.18 668.45C1391.27 667.78 1391.7 667.38 1392.31 667.16C1392.94 666.93 1393.51 667.11 1393.98 667.55C1394.23 667.79 1394.46 668.08 1394.64 668.39C1396.22 671.19 1398.65 673.2 1401.06 675.23C1406.73 680.02 1413.02 683.82 1419.75 686.9C1423.77 688.75 1427.73 690.71 1431.33 693.31C1433.91 695.17 1436.24 697.25 1437.6 700.22C1438.78 702.79 1439.09 705.48 1438.79 708.26C1438.37 712.13 1436.76 715.6 1435 719C1431.28 726.16 1426.95 732.98 1422.91 739.96C1420.6 743.95 1418.46 748.02 1416.93 752.38C1416.3 754.17 1415.82 756.01 1415.86 757.94C1415.86 758.07 1415.86 758.21 1415.86 758.34C1415.94 759.22 1416.13 759.34 1416.97 759.07C1418.72 758.51 1420.09 757.34 1421.43 756.16C1425.31 752.77 1428.25 748.62 1430.92 744.26C1434.48 738.45 1437.3 732.28 1439.91 726C1441.21 722.87 1442.43 719.69 1444.05 716.7C1445.36 714.29 1446.81 712.01 1449.12 710.38C1451.7 708.56 1455.05 708.59 1457.55 710.51C1459.87 712.29 1461.41 714.69 1462.83 717.17C1464.61 720.28 1465.81 723.61 1466.52 727.11C1467.47 731.77 1466.5 736.11 1464.27 740.22C1462.33 743.8 1459.75 746.92 1457.15 750.02C1452.28 755.86 1447.05 761.37 1441.71 766.78C1436.55 772.01 1431.15 777 1425.77 782C1421.91 785.59 1417.95 789.08 1414.43 793.02C1412.13 795.6 1410.11 798.38 1408.69 801.55C1408.13 802.79 1407.65 804.08 1407.62 805.47C1407.58 807.37 1408.52 808.48 1410.37 808.94C1413.3 809.66 1416.02 808.94 1418.7 807.83C1421.73 806.57 1424.51 804.88 1427.23 803.08C1429.87 801.32 1432.47 799.5 1434.98 797.57C1441.9 792.26 1448.13 786.25 1453.92 779.72C1460.72 772.05 1467.25 764.18 1472.9 755.62C1474.59 753.07 1476.19 750.46 1477.84 747.88C1478.15 747.39 1478.51 746.94 1479.07 746.68C1480.13 746.19 1481.04 746.43 1481.7 747.4C1481.99 747.83 1482.17 748.31 1482.32 748.8C1483.51 752.62 1484.51 756.48 1485.28 760.41C1485.89 763.54 1486.25 766.68 1486.15 769.85C1486.02 774.1 1484.86 778.09 1482.68 781.74C1479.82 786.52 1476.1 790.58 1472.09 794.4C1467.89 798.4 1463.35 801.98 1458.68 805.4C1454.06 808.78 1449.21 811.81 1444.29 814.72C1440.49 816.98 1436.72 819.29 1432.83 821.4C1429.2 823.37 1425.43 825.09 1421.84 827.14C1419.48 828.5 1417.12 829.89 1415.34 832.02C1414.76 832.71 1414.26 833.45 1413.96 834.3C1413.59 835.32 1413.84 835.85 1414.86 836.22C1416.35 836.76 1417.92 836.87 1419.48 836.84C1422.11 836.8 1424.74 836.66 1427.35 836.27C1433.72 835.33 1439.78 833.38 1445.62 830.71C1452.21 827.71 1458.17 823.71 1463.85 819.26C1468.28 815.78 1472.67 812.26 1477.15 808.84C1479.22 807.26 1481.34 805.7 1483.8 804.73C1484.51 804.45 1485.23 804.21 1486.01 804.23C1487.51 804.27 1488.51 805.08 1489.15 806.37C1489.96 808 1490.02 809.77 1490.11 811.53C1490.25 814.06 1490.06 816.59 1489.67 819.07C1488.67 825.55 1486.8 831.74 1482.96 837.18C1480.95 840.02 1478.48 842.39 1475.58 844.3C1470.41 847.69 1464.75 849.97 1458.82 851.62C1452.42 853.4 1445.93 854.75 1439.36 855.74C1434.56 856.46 1429.73 856.7 1424.89 856.75C1422.73 856.77 1420.56 856.76 1418.43 857.24C1417.9 857.36 1417.39 857.5 1416.91 857.76C1415.59 858.46 1415.25 859.36 1415.76 860.77C1416.25 862.13 1417.35 862.97 1418.47 863.74C1420.94 865.44 1423.69 866.55 1426.5 867.52C1429.48 868.55 1432.52 869.32 1435.57 870.08C1437.48 870.56 1439.41 870.92 1441.34 871.2C1443.25 871.48 1445.18 871.71 1447.13 871.76C1448.78 871.8 1450.43 871.87 1452.07 871.82C1456.81 871.69 1461.5 871.09 1466.14 870.13C1471.27 869.08 1476.16 867.36 1480.91 865.19C1482.1 864.65 1483.3 864.06 1484.7 864.26C1486.01 864.45 1486.81 865.28 1486.97 866.59C1487.12 867.82 1486.71 868.94 1486.3 870.05C1484.18 875.85 1481.83 881.54 1478.62 886.84C1476.16 890.91 1473.36 894.71 1470 898.09C1465.77 902.34 1460.98 905.79 1455.61 908.47C1448.94 911.8 1441.95 914.07 1434.59 915.25C1430.97 915.83 1427.33 916.21 1423.67 916.27C1420.62 916.32 1417.56 916.2 1414.52 915.87C1408.9 915.25 1403.46 913.95 1398.24 911.74C1396.34 910.94 1394.65 909.88 1393.12 908.51C1390.6 906.27 1388.11 904.02 1385.94 901.42C1383.7 898.74 1382.43 895.66 1381.65 892.31C1380.78 888.62 1380.02 884.89 1379.03 881.23C1378.89 880.72 1378.74 880.21 1378.59 879.7L1378.49 879.74L1378.53 879.81ZM1390.52 853.14C1391.65 853.21 1392.69 853.15 1393.73 852.92C1396.8 852.24 1399.59 850.92 1402.18 849.17C1403.45 848.31 1404.52 847.24 1405.34 845.93C1405.75 845.27 1405.52 844.87 1404.75 844.81C1404.22 844.77 1403.68 844.72 1403.15 844.77C1399.91 845.06 1396.94 846.2 1394.21 847.91C1391.36 849.7 1391.09 849.79 1390.25 852.36C1390.2 852.5 1390.13 852.43 1390.05 852.42C1389.87 852.4 1389.72 852.49 1389.69 852.65C1389.65 852.9 1389.89 852.9 1390.04 852.96C1390.23 853.03 1390.42 853.08 1390.53 853.12L1390.52 853.14ZM1398.13 747.55C1399.22 747.24 1400.18 746.83 1401.07 746.26C1403.73 744.58 1405.91 742.39 1407.76 739.87C1408.66 738.64 1409.31 737.26 1409.63 735.76C1409.79 735 1409.44 734.7 1408.69 734.91C1408.18 735.06 1407.65 735.19 1407.17 735.41C1404.22 736.78 1401.81 738.86 1399.82 741.4C1397.75 744.05 1397.52 744.22 1397.6 746.93C1397.6 747.08 1397.51 747.04 1397.43 747.06C1397.26 747.1 1397.14 747.23 1397.17 747.4C1397.21 747.65 1397.44 747.57 1397.61 747.57C1397.81 747.57 1398.01 747.56 1398.13 747.55ZM1377.08 825.84C1377.08 825.78 1377.09 825.65 1377.07 825.52C1377 825.12 1376.97 824.72 1376.85 824.34C1375.67 820.66 1373.53 817.62 1370.67 815.05C1370.07 814.51 1369.38 814.1 1368.66 813.74C1368.07 813.45 1367.84 813.63 1367.88 814.29C1367.93 814.96 1368.08 815.61 1368.3 816.25C1369.37 819.29 1371.14 821.88 1373.43 824.14C1374.31 825 1375.26 825.77 1376.39 826.28C1376.79 826.46 1377.04 826.42 1377.07 825.85L1377.08 825.84ZM1379.94 778.31C1380.45 780.99 1381.66 783.26 1383.71 785.05C1383.24 782.36 1381.93 780.14 1379.94 778.31ZM1377.08 745.1C1377.08 745.04 1377.09 744.91 1377.07 744.78C1377 744.38 1376.97 743.98 1376.85 743.6C1375.67 739.92 1373.53 736.88 1370.67 734.31C1370.07 733.77 1369.38 733.36 1368.66 733C1368.07 732.71 1367.84 732.89 1367.88 733.55C1367.93 734.22 1368.08 734.87 1368.3 735.51C1369.37 738.55 1371.14 741.14 1373.43 743.4C1374.31 744.26 1375.26 745.03 1376.39 745.54C1376.79 745.72 1377.04 745.68 1377.07 745.11L1377.08 745.1Z" fill="#465C24"/>
<path d="M1377.31 875.15C1374.83 854.75 1383.22 835.2 1387.08 815.52C1387.92 811.64 1388.5 807.52 1388.99 803.59C1390.72 787.5 1389.45 771.33 1389.35 755.19C1389.06 738.97 1389.38 722.64 1392.54 706.66C1394.07 698.66 1396.53 690.85 1399.62 683.37L1399.9 683.47C1399.4 685.43 1398.87 687.38 1398.34 689.32C1397.3 693.14 1396.51 697.22 1395.77 701.1C1390.81 730.98 1393.18 761.4 1390.81 791.57C1389.98 803.7 1389.25 815.87 1386.77 827.83C1385.07 835.78 1382.73 843.51 1380.89 851.32C1379.06 859.13 1377.66 867.03 1377.6 875.12L1377.3 875.14L1377.31 875.15Z" fill="#252D18"/>
<path d="M1389.56 829.97C1397.43 826.57 1405.28 823.27 1413.15 819.88C1419.08 817.45 1425.03 814.94 1430.38 811.34C1446.06 800.16 1459.99 786.93 1473.47 773.15L1473.71 773.33C1463.52 790.03 1447.94 802.87 1430.92 812.2C1425.26 815.35 1419.9 819.01 1414.22 822.14C1410.36 824.11 1406.33 825.71 1402.24 827.13C1398.11 828.46 1393.93 829.57 1389.65 830.26L1389.57 829.97H1389.56Z" fill="#252D18"/>
<path d="M1390.94 792.56C1396.48 787.87 1402.18 783.44 1408 779.13C1412.44 776.01 1416.95 772.92 1420.71 768.97C1431.63 756.88 1441.26 743.85 1451.45 731.09L1451.71 731.24C1445.16 746.44 1433.99 759.16 1421.41 769.7C1417.25 773.27 1413.58 777.35 1409.56 781.08C1406.8 783.49 1403.81 785.61 1400.76 787.61C1397.66 789.56 1394.47 791.36 1391.1 792.82L1390.94 792.57V792.56Z" fill="#252D18"/>
<path d="M1372.42 852.67C1364.57 850.1 1356.98 846.85 1349.79 842.79C1346.23 840.7 1342.86 838.27 1339.38 836.09C1332.43 831.65 1325.01 827.84 1318.66 822.48C1308.99 814.69 1300.79 804.45 1296.81 792.61L1297.08 792.48C1303.56 802.99 1311.55 812.01 1320.51 820.33C1326.58 825.72 1332.73 831.27 1339.87 835.25C1347.11 839.1 1354.74 842.09 1361.87 846.18C1365.47 848.14 1369.07 850.12 1372.54 852.4L1372.41 852.67H1372.42Z" fill="#252D18"/>
<path d="M1607.76 725.63C1618.11 726.21 1626.79 714.08 1625.84 701.4C1625.3 694.23 1621.86 689.85 1617.26 687.2C1614.67 685.71 1612.12 684.15 1609.56 682.57C1602.75 678.35 1596.24 680.8 1590.26 686.64C1586.52 690.29 1585.74 696.72 1588.28 701.63C1589.8 704.57 1590.99 707.72 1592.27 710.83C1595.83 719.48 1601.33 724.44 1607.76 725.63Z" fill="#ED8992"/>
<path d="M1854.06 577.47C1858.44 574.51 1862.82 571.54 1867.21 568.58C1869.17 567.26 1871.59 565.93 1873.71 567.28C1875.53 568.45 1876.22 571.07 1876.72 573.39C1878.03 579.49 1879.34 585.6 1880.65 591.7C1881.27 594.6 1881.59 598.37 1879.39 599.6C1877.8 600.49 1875.83 599.4 1874.21 598.29C1866.87 593.26 1859.98 587.23 1853.75 580.37C1853.36 579.94 1852.93 579.37 1853.03 578.79C1853.13 578.21 1854.13 578.3 1854.01 578.89" fill="#8C9122"/>
<path d="M1651.64 695C1661.44 694.9 1664.92 681.87 1656.43 676.98C1655.57 676.48 1654.64 676.07 1653.67 675.75C1649.87 674.52 1646.89 675.38 1644.57 677.19C1643.26 678.21 1641.93 679.2 1640.58 680.18C1636.98 682.8 1636.88 686.66 1638.63 690.96C1639.72 693.65 1642.87 695.4 1645.92 695.12C1647.75 694.95 1649.62 695 1651.49 695C1651.54 695 1651.59 695 1651.65 695H1651.64Z" fill="#ED8992"/>
</g>
</svg>