<svg width="31" height="31" viewBox="0 0 31 31" fill="none" xmlns="http://www.w3.org/2000/svg">
<circle cx="15.5" cy="15.5" r="15.5" fill="#EA0029"/>
<g clip-path="url(#clip0_269_243)">
<path d="M15.4963 3C16.2897 3 16.9329 3.64323 16.9329 4.43668V9.22563C16.9329 10.0191 16.2897 10.6623 15.4963 10.6623C14.7028 10.6623 14.0596 10.0191 14.0596 9.22563V4.43668C14.0596 3.64323 14.7028 3 15.4963 3Z" fill="white"/>
<path d="M18.8484 7.73134C18.8414 8.21362 19.0845 8.66519 19.4911 8.92473C23.1022 11.1311 24.241 15.8471 22.0346 19.4581C19.8282 23.0692 15.1123 24.208 11.5012 22.0016C7.89009 19.7953 6.75134 15.0793 8.95772 11.4682C9.58816 10.4364 10.4538 9.56841 11.484 8.93524C11.8975 8.67569 12.1472 8.22049 12.1439 7.73224C12.1461 6.93879 11.5047 6.29381 10.7112 6.29161C10.4387 6.29085 10.1716 6.36762 9.94104 6.51299C4.99819 9.58318 3.48011 16.079 6.55025 21.0218C9.62039 25.9646 16.1162 27.4826 21.059 24.4125C26.0018 21.3424 27.5199 14.8466 24.4497 9.90378C23.5951 8.52794 22.4348 7.36764 21.059 6.51304C20.3857 6.08827 19.4955 6.28977 19.0707 6.96308C18.9256 7.19304 18.8486 7.45941 18.8484 7.73134Z" fill="white"/>
</g>
<defs>
<clipPath id="clip0_269_243">
<rect width="23" height="23" fill="white" transform="translate(4 3)"/>
</clipPath>
</defs>
</svg>
