<svg width="31" height="31" viewBox="0 0 31 31" fill="none" xmlns="http://www.w3.org/2000/svg">
<circle cx="15.5" cy="15.5" r="15.5" fill="#EA0029"/>
<g clip-path="url(#clip0_58_3)">
<path d="M15.4963 3C16.2897 3 16.9329 3.64323 16.9329 4.43668V9.22563C16.9329 10.0191 16.2897 10.6623 15.4963 10.6623C14.7028 10.6623 14.0596 10.0191 14.0596 9.22563V4.43668C14.0596 3.64323 14.7028 3 15.4963 3Z" fill="white"/>
<path d="M18.8484 7.73147C18.8414 8.21374 19.0845 8.66531 19.4911 8.92485C23.1022 11.1312 24.241 15.8472 22.0346 19.4582C19.8282 23.0693 15.1123 24.2081 11.5012 22.0017C7.89009 19.7954 6.75134 15.0794 8.95772 11.4683C9.58816 10.4365 10.4538 9.56853 11.484 8.93536C11.8975 8.67581 12.1472 8.22061 12.1439 7.73236C12.1461 6.93891 11.5047 6.29393 10.7112 6.29173C10.4387 6.29097 10.1716 6.36774 9.94104 6.51312C4.99819 9.5833 3.48011 16.0791 6.55025 21.0219C9.62039 25.9647 16.1162 27.4828 21.059 24.4126C26.0018 21.3425 27.5199 14.8467 24.4497 9.90391C23.5951 8.52806 22.4348 7.36776 21.059 6.51316C20.3857 6.0884 19.4955 6.28989 19.0707 6.9632C18.9256 7.19316 18.8486 7.45953 18.8484 7.73147Z" fill="white"/>
</g>
<defs>
<clipPath id="clip0_58_3">
<rect width="23" height="23" fill="white" transform="translate(4 3)"/>
</clipPath>
</defs>
</svg>
