<svg width="45" height="61" viewBox="0 0 45 61" fill="none" xmlns="http://www.w3.org/2000/svg">
<path d="M38.6634 24.5938H38.25V16.7188C38.25 12.5416 36.5906 8.53552 33.6369 5.58182C30.6832 2.62812 26.6772 0.96875 22.5 0.96875C18.3228 0.96875 14.3168 2.62812 11.3631 5.58182C8.40937 8.53552 6.75 12.5416 6.75 16.7188V24.5938H6.33656C4.87978 24.5938 3.48266 25.1725 2.45256 26.2026C1.42246 27.2327 0.84375 28.6298 0.84375 30.0866V54.5384C0.84375 55.9952 1.42246 57.3923 2.45256 58.4224C3.48266 59.4525 4.87978 60.0312 6.33656 60.0312H38.6634C40.1202 60.0312 41.5173 59.4525 42.5474 58.4224C43.5775 57.3923 44.1562 55.9952 44.1562 54.5384V30.0866C44.1562 28.6298 43.5775 27.2327 42.5474 26.2026C41.5173 25.1725 40.1202 24.5938 38.6634 24.5938ZM10.6875 16.7188C10.6875 13.5859 11.932 10.5813 14.1473 8.36605C16.3626 6.15078 19.3671 4.90625 22.5 4.90625C25.6329 4.90625 28.6374 6.15078 30.8527 8.36605C33.068 10.5813 34.3125 13.5859 34.3125 16.7188V24.5938H10.6875V16.7188ZM40.2188 54.5384C40.2188 54.9509 40.0549 55.3465 39.7632 55.6382C39.4715 55.9299 39.0759 56.0938 38.6634 56.0938H6.33656C5.92407 56.0938 5.52847 55.9299 5.23679 55.6382C4.94511 55.3465 4.78125 54.9509 4.78125 54.5384V30.0866C4.78125 29.6741 4.94511 29.2785 5.23679 28.9868C5.52847 28.6951 5.92407 28.5312 6.33656 28.5312H38.6634C39.0759 28.5312 39.4715 28.6951 39.7632 28.9868C40.0549 29.2785 40.2188 29.6741 40.2188 30.0866V54.5384Z" fill="white"/>
</svg>
