<svg width="45" height="61" viewBox="0 0 45 61" fill="none" xmlns="http://www.w3.org/2000/svg">
<path d="M22.5 4.90625C25.1099 4.90896 27.6121 5.94694 29.4576 7.79241C31.3031 9.63788 32.341 12.1401 32.3438 14.75C32.3438 15.2721 32.5512 15.7729 32.9204 16.1421C33.2896 16.5113 33.7904 16.7188 34.3125 16.7188C34.8346 16.7188 35.3354 16.5113 35.7046 16.1421C36.0738 15.7729 36.2812 15.2721 36.2812 14.75C36.2812 11.095 34.8293 7.58967 32.2448 5.00518C29.6603 2.4207 26.155 0.96875 22.5 0.96875C18.845 0.96875 15.3397 2.4207 12.7552 5.00518C10.1707 7.58967 8.71875 11.095 8.71875 14.75V24.5938H6.75C5.18411 24.5955 3.68286 25.2184 2.57561 26.3256C1.46835 27.4329 0.845522 28.9341 0.84375 30.5V54.125C0.845522 55.6909 1.46835 57.1921 2.57561 58.2994C3.68286 59.4066 5.18411 60.0295 6.75 60.0312H38.25C39.8159 60.0295 41.3171 59.4066 42.4244 58.2994C43.5316 57.1921 44.1545 55.6909 44.1562 54.125V30.5C44.1545 28.9341 43.5316 27.4329 42.4244 26.3256C41.3171 25.2184 39.8159 24.5955 38.25 24.5938H12.6562V14.75C12.659 12.1401 13.6969 9.63788 15.5424 7.79241C17.3879 5.94694 19.8901 4.90896 22.5 4.90625ZM34.3125 28.5312H38.25C38.772 28.5319 39.2724 28.7395 39.6414 29.1086C40.0105 29.4777 40.2181 29.978 40.2188 30.5V54.125C40.2181 54.647 40.0105 55.1474 39.6414 55.5164C39.2724 55.8855 38.772 56.0931 38.25 56.0938H6.75C6.22805 56.0931 5.72765 55.8855 5.35857 55.5164C4.9895 55.1474 4.78188 54.647 4.78125 54.125V30.5C4.78188 29.978 4.9895 29.4777 5.35857 29.1086C5.72765 28.7395 6.22805 28.5319 6.75 28.5312H34.3125Z" fill="white"/>
</svg>
