<svg width="21" height="21" viewBox="0 0 21 21" fill="none" xmlns="http://www.w3.org/2000/svg">
<g clip-path="url(#clip0_269_335)">
<path d="M17.2498 10.4999C16.8355 10.4999 16.4998 10.8357 16.4998 11.2499V18.7498C16.4998 19.164 16.164 19.4998 15.7497 19.4998H2.24997C1.83575 19.4998 1.49997 19.164 1.49997 18.7498V3.74997C1.49997 3.33575 1.83575 2.99997 2.24997 2.99997H11.2499C11.6641 2.99997 11.9999 2.66418 11.9999 2.24996C11.9999 1.83574 11.6641 1.5 11.2499 1.5H2.24997C1.00735 1.5 0 2.50734 0 3.74997V18.7498C0 19.9924 1.00735 20.9997 2.24997 20.9997H15.7498C16.9924 20.9997 17.9998 19.9924 17.9998 18.7498V11.2498C17.9998 10.8357 17.664 10.4999 17.2498 10.4999Z" fill="white"/>
<path d="M20.1592 0.841026C19.6207 0.30244 18.8903 -7.60239e-05 18.1287 1.18656e-05C17.3667 -0.00218537 16.6355 0.300857 16.0985 0.841509L6.2196 10.7196C6.13764 10.8022 6.07581 10.9025 6.03885 11.0128L4.53889 15.5128C4.40798 15.9058 4.62045 16.3304 5.01345 16.4613C5.08969 16.4867 5.16954 16.4997 5.24987 16.4998C5.33038 16.4996 5.4104 16.4867 5.48686 16.4615L9.9868 14.9616C10.0973 14.9247 10.1977 14.8625 10.28 14.7801L20.1589 4.90121C21.2802 3.78009 21.2803 1.96228 20.1592 0.841026ZM19.0984 3.84144L9.34855 13.5913L6.43559 14.564L7.40531 11.6548L17.1589 1.90497C17.6951 1.36981 18.5637 1.37069 19.0989 1.90691C19.3545 2.16306 19.4986 2.50983 19.4997 2.87171C19.5006 3.23553 19.3561 3.58463 19.0984 3.84144Z" fill="white"/>
</g>
<defs>
<clipPath id="clip0_269_335">
<rect width="21" height="21" fill="white"/>
</clipPath>
</defs>
</svg>
