<svg width="31" height="31" viewBox="0 0 31 31" fill="none" xmlns="http://www.w3.org/2000/svg">
<path d="M14.7492 10.327C14.4535 10.0338 14.054 9.86938 13.6376 9.86938C13.2212 9.86938 12.8217 10.0338 12.526 10.327L11.0728 11.9109L6.63595 11.5573C6.56658 11.5522 6.49693 11.5621 6.43174 11.5864C6.36655 11.6106 6.30734 11.6486 6.25814 11.6978L5.02783 12.9232C4.96895 12.9815 4.92602 13.054 4.90314 13.1336C4.88026 13.2133 4.8782 13.2975 4.89715 13.3782C4.91611 13.4588 4.95544 13.5333 5.01139 13.5944C5.06735 13.6555 5.13805 13.7013 5.21673 13.7273L8.4233 14.7929L6.86845 16.4979L5.57517 15.8973C5.48503 15.8553 5.38414 15.8421 5.28622 15.8594C5.1883 15.8767 5.09808 15.9238 5.02783 15.9942L4.08814 16.9532C4.03733 17.0038 3.99839 17.0651 3.97413 17.1325C3.94987 17.2 3.94089 17.272 3.94784 17.3434C3.95479 17.4148 3.9775 17.4837 4.01433 17.5452C4.05115 17.6067 4.10118 17.6593 4.1608 17.6992L6.0983 18.9924L7.39158 20.9299C7.43142 20.9896 7.484 21.0396 7.54552 21.0764C7.60704 21.1132 7.67598 21.136 7.74734 21.1429C7.81871 21.1499 7.89073 21.1409 7.9582 21.1166C8.02567 21.0923 8.08692 21.0534 8.13751 21.0026L9.05783 20.0823C9.12821 20.012 9.17526 19.9218 9.19259 19.8239C9.20992 19.726 9.19669 19.6251 9.1547 19.5349L8.55408 18.2417L10.2591 16.6868L11.3392 19.8595C11.3656 19.9372 11.4113 20.007 11.4721 20.0623C11.5328 20.1175 11.6066 20.1564 11.6865 20.1753C11.7664 20.1942 11.8498 20.1924 11.9289 20.1702C12.0079 20.148 12.0801 20.1061 12.1385 20.0484L13.3639 18.8229C13.4137 18.7732 13.4521 18.7132 13.4764 18.6471C13.5006 18.581 13.5102 18.5104 13.5044 18.4403L13.1508 14.047L14.7492 12.5939C14.901 12.4467 15.0216 12.2705 15.104 12.0758C15.1864 11.8811 15.2289 11.6718 15.2289 11.4604C15.2289 11.249 15.1864 11.0397 15.104 10.845C15.0216 10.6503 14.901 10.4742 14.7492 10.327ZM14.076 11.8479L12.3177 13.4706C12.2648 13.5205 12.2238 13.5817 12.1978 13.6496C12.1719 13.7175 12.1615 13.7904 12.1675 13.8629L12.5211 18.3143L12.0077 18.8278L11.0389 15.8876C10.9856 15.7278 10.8791 15.6696 10.7628 15.5437C10.6727 15.4578 10.5531 15.4099 10.4286 15.4099C10.3042 15.4099 10.1845 15.4578 10.0944 15.5437L7.67251 17.767C7.5958 17.836 7.54315 17.9278 7.52224 18.0288C7.50133 18.1299 7.51325 18.235 7.55626 18.3289L8.16658 19.6367L7.90501 19.8982L6.88298 18.3676C6.84804 18.3132 6.80178 18.2669 6.74736 18.232L5.19251 17.1954L5.45408 16.9339L6.78126 17.5442C6.87176 17.5839 6.97224 17.5949 7.06921 17.5759C7.16618 17.5568 7.25501 17.5086 7.32376 17.4376L9.54705 15.0157C9.63292 14.9256 9.68083 14.806 9.68083 14.6815C9.68083 14.5571 9.63292 14.4374 9.54705 14.3473C9.41626 14.231 9.36298 14.1293 9.20314 14.0712L6.24845 13.0782L6.78126 12.5551L11.2327 12.9135C11.3055 12.919 11.3787 12.9078 11.4466 12.881C11.5145 12.8542 11.5755 12.8123 11.625 12.7585L13.238 11.0099C13.3514 10.9077 13.4996 10.8525 13.6522 10.8556C13.8049 10.8587 13.9507 10.9198 14.0599 11.0266C14.1691 11.1333 14.2336 11.2777 14.2402 11.4302C14.2467 11.5828 14.195 11.7322 14.0953 11.8479H14.076Z" fill="white"/>
<path d="M28.0938 7.26563H22.6252C22.5552 7.26562 22.4861 7.28077 22.4225 7.31004C22.359 7.3393 22.3025 7.38199 22.257 7.43516L21.7727 7.97281L21.2883 7.43516C21.2428 7.38199 21.1863 7.3393 21.1228 7.31004C21.0593 7.28077 20.9901 7.26562 20.9202 7.26563H2.90625C2.52086 7.26563 2.15125 7.41872 1.87874 7.69124C1.60622 7.96375 1.45313 8.33336 1.45312 8.71875V21.7969C1.45313 22.1823 1.60622 22.5519 1.87874 22.8244C2.15125 23.0969 2.52086 23.25 2.90625 23.25H20.9686C21.0386 23.25 21.1077 23.2349 21.1712 23.2056C21.2348 23.1763 21.2912 23.1336 21.3367 23.0805L21.8211 22.5428L22.3055 23.0805C22.3509 23.1336 22.4074 23.1763 22.4709 23.2056C22.5345 23.2349 22.6036 23.25 22.6736 23.25H28.0938C28.4791 23.25 28.8487 23.0969 29.1213 22.8244C29.3938 22.5519 29.5469 22.1823 29.5469 21.7969V8.71875C29.5469 8.33336 29.3938 7.96375 29.1213 7.69124C28.8487 7.41872 28.4791 7.26563 28.0938 7.26563ZM28.5781 21.7969C28.5781 21.9253 28.5271 22.0485 28.4363 22.1394C28.3454 22.2302 28.2222 22.2812 28.0938 22.2812H22.848L22.2812 21.6177V19.8594H21.3125V21.6177L20.7458 22.2812H2.90625C2.77779 22.2812 2.65458 22.2302 2.56375 22.1394C2.47291 22.0485 2.42188 21.9253 2.42188 21.7969V8.71875C2.42188 8.59029 2.47291 8.46708 2.56375 8.37624C2.65458 8.28541 2.77779 8.23438 2.90625 8.23438H20.7458L21.3125 8.89797V10.6562H22.2812V8.89797L22.848 8.23438H28.0938C28.2222 8.23438 28.3454 8.28541 28.4363 8.37624C28.5271 8.46708 28.5781 8.59029 28.5781 8.71875V21.7969Z" fill="white"/>
<path d="M21.3125 15.9844H22.2812V18.4062H21.3125V15.9844Z" fill="white"/>
<path d="M21.3125 12.1094H22.2812V14.5312H21.3125V12.1094Z" fill="white"/>
<path d="M16.9531 19.375H19.8594V20.3438H16.9531V19.375Z" fill="white"/>
<path d="M15.0156 17.4375H19.8594V18.4062H15.0156V17.4375Z" fill="white"/>
<path d="M16.9531 15.5H19.8594V16.4688H16.9531V15.5Z" fill="white"/>
<path d="M24.7031 14.0469H27.6094V15.0156H24.7031V14.0469Z" fill="white"/>
<path d="M23.7344 12.1094H27.6094V13.0781H23.7344V12.1094Z" fill="white"/>
<path d="M24.7031 10.1719H27.6094V11.1406H24.7031V10.1719Z" fill="white"/>
</svg>
