<svg width="2074" height="950" viewBox="0 0 2074 950" fill="none" xmlns="http://www.w3.org/2000/svg">
<g opacity="0.25" filter="url(#filter0_f_343_4)">
<path d="M1826.68 88.3194C1814.6 79.5003 1788.05 88.9153 1786.17 104.527C1785.91 106.654 1788.87 106.993 1789.84 105.527C1798.21 92.9031 1810.55 89.777 1824.94 92.4447C1827.49 92.9214 1828.76 89.832 1826.68 88.3194Z" fill="#3A5C26"/>
<path d="M1789.56 97.7252C1789.56 97.7252 1803.32 95.1033 1803.88 103.152C1804.44 111.201 1780.74 128.839 1781.13 130.7C1781.13 130.7 1770.73 92.9031 1779.55 92.5273C1788.37 92.1514 1789.56 97.7252 1789.56 97.7252Z" fill="#8C9122"/>
<path d="M1861.66 82.9471C1855.8 86.4949 1852.84 91.8762 1852 98.6784C1851.29 104.399 1851.49 111.595 1856.42 115.372C1857.71 116.362 1859.49 114.446 1858.62 113.154C1853.29 105.233 1856.53 91.1428 1863.4 85.2206C1864.66 84.1389 1863.04 82.1129 1861.66 82.9471Z" fill="#465C24"/>
<path d="M1854.66 91.7571C1854.66 91.7571 1843.65 86.2108 1854.66 75.1182C1865.68 64.0256 1893.24 62.9164 1895.44 60.6979C1895.44 60.6979 1881.11 96.2033 1872.29 99.5311C1863.47 102.859 1853.56 98.4218 1854.66 91.7663V91.7571Z" fill="#77AE48"/>
<path d="M2053.95 122.193C2019.4 139.281 1979.55 145.762 1941.45 139.859C1921.21 136.723 1901.46 130.306 1882.85 121.762C1865.61 113.86 1848.91 104.197 1834.8 91.3721C1819.59 77.5476 1807.69 60.3129 1802.24 40.2912C1800.18 32.7647 1788.54 35.9642 1790.6 43.5181C1801.48 83.3873 1834.16 111.311 1869.82 128.94C1908.14 147.88 1950.38 157.799 1993.09 152.647C2016.45 149.824 2038.93 143.122 2060.04 132.681C2067.01 129.234 2060.9 118.755 2053.96 122.193H2053.95Z" fill="#465C24"/>
<path d="M1857.41 120.057C1863.24 123.403 1857.41 137.814 1840.89 140.033C1824.36 142.251 1814.44 144.47 1814.44 144.47C1814.44 144.47 1821.05 126.713 1834.28 121.166C1847.5 115.62 1849.7 115.62 1857.42 120.057H1857.41Z" fill="#77AE48"/>
<path d="M1820.5 80.6646C1819.64 79.3628 1818.3 64.0257 1834.83 58.4703C1851.36 52.924 1854.66 49.5962 1854.66 49.5962C1854.66 49.5962 1855.76 71.7905 1845.85 77.3368C1835.93 82.8831 1822.7 83.9924 1820.5 80.6646Z" fill="#8C9122"/>
</g>
<g opacity="0.25" filter="url(#filter1_f_343_4)">
<path d="M288.411 105.563L283.99 111.343L295.197 109.887C297.791 109.552 300.403 110.266 302.477 111.873C304.798 113.673 306.201 116.417 306.315 119.364L306.774 131.78C310.128 124.747 311.486 116.099 311.486 116.099C308.972 96.6505 288.411 105.563 288.411 105.563Z" fill="#3A5C26"/>
<path d="M249.831 153.029C251.772 152.994 253.775 153.594 255.567 154.371C256.687 154.856 257.79 155.412 258.787 156.118C259.811 156.842 260.72 157.715 261.594 158.615C267.206 164.36 271.786 171.128 275.024 178.488C272.236 179.573 269.218 179.882 266.235 180.129C262.864 180.403 259.458 180.597 256.087 180.27C251.013 179.785 246.063 178.108 241.721 175.417C240.186 174.464 238.712 173.37 237.6 171.949C236.488 170.528 235.747 168.746 235.844 166.937C235.932 165.286 236.744 163.68 238.024 162.639C239.215 161.668 240.724 161.21 241.906 160.239C242.904 159.409 242.912 158.192 243.442 157.097C243.98 155.977 244.81 154.988 245.824 154.274C247.06 153.418 248.428 153.056 249.822 153.029H249.831Z" fill="#77AE48"/>
<path d="M253.652 163.486C249.875 161.377 246.354 158.695 242.974 155.995C241.183 154.565 239.568 153.065 238.483 151.009C237.556 149.253 237.009 147.461 235.65 145.979C234.37 144.585 231.705 144.92 231.485 147.082C230.435 157.23 243.945 166.019 252.76 166.725C254.737 166.884 255.311 164.404 253.652 163.478V163.486Z" fill="#465C24"/>
<path d="M148.121 188.009C149.851 188.971 151.315 190.524 152.507 192.121C153.248 193.118 153.936 194.177 154.466 195.307C155.004 196.463 155.357 197.698 155.675 198.934C157.722 206.849 158.34 215.144 157.493 223.271C154.492 222.795 151.668 221.533 148.924 220.218C145.809 218.736 142.721 217.174 139.914 215.162C135.696 212.144 132.167 208.138 129.705 203.549C128.831 201.934 128.09 200.213 127.816 198.395C127.551 196.578 127.799 194.627 128.796 193.092C129.705 191.68 131.231 190.692 132.881 190.427C134.417 190.18 135.979 190.551 137.514 190.295C138.811 190.083 139.438 189.015 140.453 188.318C141.494 187.603 142.721 187.153 143.974 187.056C145.491 186.933 146.877 187.312 148.121 188V188.009Z" fill="#7D974D"/>
<path d="M144.83 202.446C142.597 198.722 140.885 194.628 139.288 190.595C138.441 188.451 137.788 186.35 137.867 184.012C137.929 182.026 138.352 180.209 137.911 178.241C137.496 176.388 135.017 175.346 133.746 177.102C127.799 185.353 135.158 199.763 142.447 204.802C144.079 205.932 145.809 204.079 144.83 202.437V202.446Z" fill="#3A5C26"/>
<path d="M343.881 91.6649C341.966 88.8058 339.469 63.4887 316.234 68.8363C316.234 68.8363 318.237 90.3324 329.162 91.2413C340.086 92.1591 342.46 92.6268 343.413 94.0563C344.366 95.4859 343.872 91.6649 343.872 91.6649H343.881Z" fill="#77AE48"/>
<path d="M167.535 167.263C167.032 162.78 164.314 158.721 160.687 156.03C157.06 153.338 152.577 151.944 148.077 151.459C143.665 150.991 139.155 151.37 134.884 152.57C134.902 153.426 135.193 154.229 135.643 154.962C136.42 156.224 137.232 157.459 138.079 158.668C139.111 160.133 140.206 161.571 141.547 162.771C142.756 163.848 144.141 164.704 145.544 165.516C150.451 168.348 155.798 170.705 161.463 171.013C162.655 171.075 163.855 171.049 165.028 170.828C165.946 170.652 166.926 170.299 167.402 169.496C167.852 168.737 167.641 168.137 167.543 167.272L167.535 167.263Z" fill="#77AE48"/>
<path d="M332.418 13.4015C316.057 57.8587 291.561 100.886 253.263 129.707C211.674 160.998 158.296 172.673 107.052 170.193C76.8025 168.728 46.8702 162.833 17.8469 154.221C10.9815 152.182 6.56054 162.569 13.4788 164.625C66.5751 180.367 123.263 187.921 177.85 175.646C203.679 169.84 228.511 159.912 250.687 145.308C271.618 131.516 289.514 113.346 304.1 92.9532C320.531 69.9745 333 44.3221 342.751 17.8226C345.257 11.0101 334.924 6.58914 332.409 13.4104L332.418 13.4015Z" fill="#465C24"/>
<path d="M199.902 164.731C198.27 168.94 198.764 173.811 200.705 177.888C202.647 181.965 205.921 185.3 209.644 187.833C213.298 190.313 217.419 192.086 221.725 193.013C222.104 192.245 222.219 191.398 222.166 190.533C222.069 189.059 221.937 187.577 221.752 186.112C221.531 184.33 221.24 182.538 220.613 180.853C220.048 179.335 219.237 177.923 218.381 176.547C215.398 171.746 211.798 167.157 206.971 164.237C205.956 163.619 204.888 163.089 203.759 162.736C202.867 162.463 201.844 162.313 201.058 162.807C200.317 163.275 200.22 163.901 199.902 164.722V164.731Z" fill="#8C9122"/>
<path d="M309.836 118.544C312.969 122.753 313.913 128.374 313.004 133.545C312.095 138.716 309.448 143.473 306.059 147.461C302.733 151.371 298.656 154.636 294.111 157.009C293.449 156.259 293.061 155.35 292.849 154.371C292.496 152.685 292.196 150.991 291.949 149.288C291.649 147.223 291.429 145.123 291.605 143.04C291.764 141.161 292.249 139.334 292.779 137.525C294.641 131.216 297.262 124.959 301.762 120.194C302.706 119.188 303.739 118.262 304.895 117.512C305.804 116.929 306.907 116.444 307.939 116.753C308.919 117.044 309.21 117.714 309.819 118.535L309.836 118.544Z" fill="#8C9122"/>
<path d="M307.86 64.6888C303.395 64.5653 299.141 62.2268 296.176 58.8559C293.202 55.4939 291.429 51.1876 290.564 46.7754C289.717 42.4514 289.69 37.9687 290.511 33.6359C291.358 33.583 292.179 33.8036 292.938 34.1918C294.244 34.8537 295.541 35.5508 296.803 36.2832C298.338 37.1745 299.856 38.1363 301.153 39.3629C302.318 40.466 303.289 41.7631 304.206 43.0868C307.427 47.6931 310.225 52.7848 311.019 58.3618C311.186 59.5354 311.266 60.7267 311.151 61.9003C311.063 62.8269 310.798 63.824 310.039 64.3623C309.333 64.8653 308.724 64.7065 307.851 64.6888H307.86Z" fill="#8C9122"/>
<path d="M258.937 83.114C260.852 85.9731 263.35 111.29 286.584 105.943C286.584 105.943 284.581 84.4464 273.656 83.5375C262.732 82.6198 260.358 82.1521 259.405 80.7226C258.452 79.293 258.946 83.114 258.946 83.114H258.937Z" fill="#77AE48"/>
</g>
<g opacity="0.25" filter="url(#filter2_f_343_4)">
<path d="M1930.33 452.472C1928.95 451.814 1927.6 451.059 1926.28 450.267C1918.29 445.448 1911.23 438.032 1907.99 429.087C1904.51 419.51 1906.89 409.142 1899.95 400.615C1892.71 391.732 1878.27 388.647 1875.45 377.514C1873.54 369.956 1878.2 362.282 1878.26 354.484C1878.33 345.077 1871.65 336.869 1863.91 331.596C1856.18 326.332 1847.21 323.167 1839.19 318.339C1831.18 313.51 1823.76 306.281 1822.28 296.998C1820.18 283.776 1830.42 272.145 1834.87 259.51C1840.17 244.465 1835.37 229.625 1834.03 212.277C1840.89 227.224 1852.71 237.681 1868.88 241.513C1876.62 243.345 1884.75 243.443 1892.28 246.003C1901.48 249.142 1909.56 256.398 1912.22 265.797C1913.72 271.096 1913.55 276.974 1916.33 281.731C1919.15 286.559 1924.46 289.262 1929.58 291.45C1943.16 297.221 1957.68 301.204 1969.88 309.5C1989.36 322.74 1997.99 345.601 1998.9 368.533C1999.79 391.11 1995.22 419.581 1979.54 436.84C1976.23 440.486 1972.37 443.581 1968.1 446.017C1957.42 452.108 1942.38 458.172 1930.33 452.472Z" fill="#E28D16"/>
<path d="M1950.71 387.179C1952.95 384.201 1947.93 381.275 1945.73 384.254C1935.7 397.858 1921.81 410.263 1905.35 415.064C1905.63 417.083 1905.85 419.128 1906.15 421.164C1924.19 416.265 1940.13 401.317 1950.71 387.179Z" fill="#4D5E23"/>
<path d="M1915.77 350.447C1904.63 358.165 1890.36 364.505 1876.3 365.385C1875.83 367.262 1875.41 369.138 1875.18 370.996C1890.6 370.383 1906.3 363.474 1918.65 355.4C1921.74 353.381 1918.79 348.349 1915.77 350.438V350.447Z" fill="#4D5E23"/>
<path d="M1890.55 317.814C1879.22 323.772 1865.71 325.541 1852.49 325.221C1855.37 326.635 1858.22 328.075 1860.96 329.72C1871.63 328.893 1882.22 326.662 1892.8 323.167C1896.78 321.851 1894.35 315.813 1890.56 317.814H1890.55Z" fill="#EC6231"/>
<path d="M1867.73 285.777C1871.37 284.986 1869.82 279.09 1866.18 280.122C1852.15 284.114 1837.68 285.812 1823.19 285.635C1822.8 287.004 1822.47 288.373 1822.26 289.769C1837.45 290.534 1852.58 289.067 1867.72 285.777H1867.73Z" fill="#EC6231"/>
<path d="M1894.6 321.344C1904.69 309.42 1912.88 297.087 1917.13 282.896C1916.85 282.513 1916.58 282.14 1916.34 281.731C1915.21 279.792 1914.57 277.658 1914.11 275.462C1910.92 291.734 1902.09 305.125 1891.1 317.823C1889.01 320.233 1892.53 323.772 1894.6 321.335V321.344Z" fill="#4D5E23"/>
<path d="M1874.31 289.413C1879.99 274.822 1885.63 259.812 1885.21 244.243C1883.76 243.976 1882.3 243.736 1880.83 243.523C1880.37 259.003 1875.44 273.622 1869.74 288.16C1868.62 291.014 1873.21 292.259 1874.31 289.422V289.413Z" fill="#EC6231"/>
<path d="M1957.07 389.118C1972.36 372.792 1984.41 353.23 1989.46 331.561C1988.33 329.427 1987.05 327.364 1985.69 325.372C1981.67 348.331 1969.44 368.782 1953.5 385.517C1951.24 387.891 1954.83 391.51 1957.07 389.118Z" fill="#4D5E23"/>
<path d="M1913.72 344.748C1911.06 346.766 1913.67 351.345 1916.36 349.3C1932.99 336.638 1940.66 317.432 1945.57 297.701C1943.95 297.078 1942.32 296.465 1940.7 295.851C1936.23 314.115 1929.24 332.984 1913.72 344.748Z" fill="#4D5E23"/>
<path d="M2037.1 418.408C1995.08 410.849 1955.04 382.138 1925.83 352.501C1901.09 327.408 1882.24 297.603 1863.09 267.886C1855.78 254.442 1848.89 240.899 1843.49 226.717C1839.7 222.564 1836.53 217.727 1834.04 212.285C1834.35 216.296 1834.84 220.164 1835.35 223.934C1839.3 237.36 1846.09 250.2 1852.38 262.293C1862.96 282.62 1874.15 302.671 1886.9 321.717C1910.96 357.649 1941.28 390.203 1979.73 410.627C1997.65 420.15 2016.8 426.793 2036.89 428.704C2037.34 425.201 2037.52 421.724 2037.11 418.416L2037.1 418.408Z" fill="#D73C3A"/>
</g>
<g opacity="0.25" filter="url(#filter3_f_343_4)">
<path d="M2020.22 939.988C2020.22 939.988 1901.07 845.534 1919.45 834.696C1940.9 822.059 2030.93 904.196 2030.93 904.196C2030.93 904.196 1895.87 777.846 1917.31 765.209C1929.64 757.934 2024.5 853.658 2024.5 853.658C2024.5 853.658 1960.18 744.15 1970.91 742.042C1981.63 739.934 2043.8 817.854 2043.8 817.854C2043.8 817.854 2056.66 927.363 2020.22 940V939.988Z" fill="#E62B67"/>
</g>
<g opacity="0.25" filter="url(#filter4_f_343_4)">
<path d="M102.597 705.219C101.37 704.206 100.143 703.194 98.9167 702.182C97.7496 701.217 96.5468 700.3 95.4273 699.276C92.9026 696.954 90.3541 694.643 87.9366 692.202C85.8644 690.118 83.8518 687.963 81.9106 685.736C79.5526 683.032 77.1589 680.365 75.1821 677.364C72.9908 674.017 71.0735 670.528 69.9183 666.669C69.4181 665.002 69.7873 663.525 70.9067 662.132C72.2167 660.512 73.6934 659.059 75.0749 657.511C75.2178 657.356 75.3607 657.19 75.5155 657.047C77.1113 655.606 78.7071 655.904 79.3264 657.94C81.1008 663.799 84.3877 668.932 87.1744 674.291C89.9611 679.638 93.1051 684.783 96.6182 689.689C98.7023 692.607 100.87 695.441 103.323 698.073C104.407 699.24 105.538 700.372 106.693 701.467C106.872 701.646 107.027 701.872 107.36 701.932C105.979 696.847 103.704 692.071 102.644 686.903C101.263 680.091 100.632 673.279 101.942 666.383C102.597 662.954 103.787 659.726 105.288 656.606C107.61 651.807 110.778 647.627 114.625 643.983C118.757 640.077 123.33 636.754 128.522 634.348C130.452 633.455 132.333 633.586 134.179 634.622C135.334 635.277 136.382 636.087 137.645 636.587C139.026 637.135 140.372 637.206 141.765 636.754C145.505 635.539 149.161 634.074 152.841 632.693C158.247 630.656 163.821 629.132 169.549 628.322C174.503 627.62 179.409 628.12 184.256 629.299C188.687 630.371 192.819 632.205 196.761 634.42C200.262 636.385 203.573 638.659 206.693 641.196C209.92 643.828 213.005 646.65 215.72 649.818C216.411 650.616 217.185 651.342 217.756 652.271C218.995 654.272 218.221 656.297 216.125 657.273C214.124 658.202 211.981 658.619 209.813 658.917C205.728 659.464 201.632 659.869 197.559 660.453C190.044 661.536 182.625 663.025 175.503 665.717C169.632 667.944 164.38 671.266 159.664 675.387C156.342 678.292 153.507 681.615 151.423 685.521C150.804 686.676 150.411 687.903 150.328 689.237C150.209 691.309 151.542 692.214 153.091 692.571C154.71 692.952 156.318 692.714 157.914 692.381C160.534 691.833 162.987 690.821 165.464 689.856C173.646 686.676 181.517 682.77 189.699 679.602C196.356 677.03 203.18 675.006 210.135 673.41C214.541 672.397 218.864 671.076 223.318 670.278C229.082 669.253 234.655 669.766 239.967 672.302C242.027 673.279 243.801 674.732 245.552 676.22C247.934 678.233 249.911 680.591 251.816 683.008C254.865 686.867 257.58 690.964 259.831 695.358C261.963 699.526 263.737 703.801 264.856 708.351C264.904 708.529 264.952 708.708 264.999 708.887C265.547 711.34 264.166 712.757 261.712 712.197C257.842 711.316 254.079 710.066 250.244 709.077C242.837 707.16 235.334 705.886 227.7 705.35C222.353 704.969 217.018 705.171 211.695 705.671C205.371 706.255 199.119 707.386 192.902 708.744C188.925 709.613 184.995 710.673 181.196 712.126C179.326 712.84 177.528 713.674 176.015 715.032C174.146 716.711 174.61 718.223 176.063 719.867C177.802 721.832 180.148 722.808 182.625 723.451C187.317 724.666 192.14 724.773 196.951 724.868C201.465 724.964 205.99 725.083 210.504 725.19C214.434 725.273 218.364 725.345 222.294 725.44C226.831 725.547 231.38 725.69 235.918 725.797C241.848 725.94 247.755 726.381 253.638 727.119C258.438 727.727 263.249 728.31 267.869 729.846C271.228 730.966 274.229 732.716 276.908 734.967C281.362 738.707 284.935 743.232 287.948 748.186C290.092 751.711 291.544 755.522 292.414 759.583C293.212 763.335 294.212 767.038 294.808 770.825C295.022 772.219 295.212 773.612 295.129 775.029C295.01 777.054 293.521 778.316 291.533 778.006C290.044 777.768 288.686 777.137 287.376 776.422C281.993 773.517 276.801 770.277 271.537 767.157C262.975 762.096 254.388 757.07 245.076 753.462C236.061 749.961 226.712 747.924 217.066 747.293C211.528 746.924 206.014 746.983 200.536 747.853C198.285 748.21 196.023 748.615 193.879 749.449C193.129 749.734 192.426 750.104 191.759 750.544C190.652 751.271 190.342 752.295 190.556 753.521C190.89 755.463 191.878 757.106 193.164 758.559C196.761 762.668 201.405 765.109 206.419 766.967C212.79 769.325 219.436 770.254 226.164 770.766C233.071 771.302 240.002 771.623 246.862 772.731C250.828 773.374 254.722 774.35 258.628 775.291C264.94 776.815 271.263 778.221 277.611 779.602C282.994 780.781 288.353 782.044 293.319 784.556C296.189 786.021 298.678 787.915 300.405 790.689C301.798 792.928 302.453 795.405 302.715 798.002C303.049 801.134 302.715 804.218 302.143 807.279C301.572 810.315 300.905 813.328 300.107 816.306C299.107 820.021 297.559 823.522 296.058 827.048C294.617 830.465 293.45 833.967 293.188 837.706C292.914 841.565 293.295 845.352 294.188 849.103C294.998 852.545 296.356 855.772 298.011 858.892C298.511 859.833 299.047 860.762 299.238 861.822C299.285 862.108 299.476 862.286 299.666 862.465C300.262 863.013 300.345 863.703 300.143 864.442C299.928 865.216 299.369 865.645 298.618 865.799C298.202 865.883 297.761 865.907 297.344 865.859C293.533 865.478 289.913 866.466 286.281 867.419C277.73 869.658 269.715 873.171 262.105 877.601C257.544 880.257 252.924 882.758 247.922 884.485C244.349 885.711 240.717 886.557 236.894 885.854C233.583 885.247 230.749 883.699 228.248 881.495C224.771 878.423 222.496 874.481 220.4 870.432C215.982 861.893 212.314 853.009 208.289 844.28C205.99 839.302 203.489 834.419 200.298 829.929C198.988 828.096 197.523 826.357 195.618 825.083C195.487 824.999 195.356 824.892 195.225 824.821C194.32 824.297 194.069 824.392 193.748 825.392C193.093 827.476 193.295 829.62 193.51 831.728C194.141 837.825 196.165 843.542 198.595 849.127C201.822 856.57 205.883 863.561 210.206 870.408C212.362 873.826 214.624 877.184 216.423 880.817C217.864 883.746 219.09 886.723 219.09 890.082C219.09 893.833 216.768 897.084 213.183 898.192C209.861 899.228 206.467 899.085 203.073 898.763C198.833 898.359 194.76 897.251 190.866 895.536C185.674 893.262 182.113 889.343 179.648 884.342C177.504 879.995 176.23 875.339 174.979 870.694C172.633 861.941 170.859 853.081 169.251 844.173C167.703 835.562 166.536 826.893 165.369 818.211C164.523 811.995 163.833 805.742 162.415 799.609C161.486 795.596 160.165 791.726 158.057 788.165C157.235 786.771 156.306 785.414 154.984 784.437C153.162 783.092 151.435 783.246 149.72 784.735C147.017 787.093 145.85 790.237 145.088 793.607C144.23 797.418 143.968 801.288 143.861 805.171C143.754 808.946 143.754 812.721 143.909 816.496C144.338 826.869 145.91 837.063 148.291 847.174C151.09 859.047 154.282 870.801 158.735 882.186C160.069 885.58 161.51 888.927 162.88 892.309C163.142 892.952 163.332 893.607 163.201 894.333C162.951 895.703 162.094 896.429 160.7 896.394C160.081 896.382 159.486 896.227 158.902 896.036C154.365 894.583 149.923 892.892 145.564 890.951C142.099 889.403 138.8 887.593 135.775 885.318C131.726 882.27 128.641 878.411 126.581 873.778C123.89 867.717 122.485 861.31 121.52 854.784C120.508 847.948 120.138 841.076 120.019 834.181C119.888 827.369 120.281 820.569 120.805 813.781C121.222 808.529 121.544 803.277 122.163 798.037C122.735 793.143 123.652 788.308 124.104 783.401C124.402 780.174 124.664 776.923 123.806 773.719C123.533 772.683 123.163 771.695 122.532 770.813C121.794 769.753 121.103 769.622 120.043 770.373C118.495 771.456 117.316 772.909 116.268 774.446C114.494 777.03 112.838 779.686 111.421 782.496C107.967 789.344 105.717 796.584 104.3 804.099C102.704 812.566 102.501 821.117 102.954 829.703C103.299 836.396 103.716 843.089 103.978 849.794C104.097 852.89 104.169 856.022 103.418 859.083C103.204 859.964 102.942 860.833 102.394 861.572C101.322 863.001 99.8456 863.418 98.1545 863.168C96.0109 862.846 94.2483 861.679 92.4739 860.559C89.9135 858.952 87.5912 857.034 85.4357 854.962C79.8027 849.544 75.063 843.482 72.4073 836.003C71.0139 832.097 70.3946 828.072 70.5375 823.927C70.7876 816.568 72.4549 809.494 74.9081 802.587C77.5639 795.131 80.6959 787.891 84.2448 780.817C86.829 775.648 89.9135 770.778 93.1884 766.038C94.6532 763.918 96.1419 761.81 97.1422 759.416C97.3923 758.821 97.5948 758.225 97.6781 757.582C97.8925 755.82 97.2613 754.867 95.5464 754.403C93.8792 753.95 92.3191 754.438 90.7947 754.998C87.4483 756.237 84.483 758.154 81.601 760.226C78.5642 762.417 75.718 764.859 72.8836 767.3C71.1092 768.825 69.4419 770.468 67.8342 772.147C66.2503 773.814 64.7021 775.541 63.3088 777.399C62.1417 778.971 60.9389 780.531 59.8552 782.174C56.735 786.879 54.1031 791.856 51.8524 797.037C49.3634 802.753 47.6842 808.696 46.529 814.805C46.2432 816.329 45.9931 817.913 44.838 819.128C43.7542 820.271 42.3966 820.486 41.0152 819.735C39.7171 819.033 38.9073 817.866 38.1094 816.722C33.9174 810.685 29.9875 804.492 27.0221 797.728C24.7475 792.535 22.9612 787.212 21.9846 781.615C20.7461 774.577 20.6865 767.55 21.7464 760.488C23.0683 751.711 25.6645 743.351 29.5587 735.372C31.4761 731.442 33.6078 727.655 36.0491 724.047C38.0975 721.034 40.3006 718.152 42.7182 715.413C47.184 710.363 52.1739 705.969 57.9021 702.396C59.9862 701.098 62.1774 700.181 64.5592 699.621C68.4654 698.704 72.3715 697.823 76.3849 697.49C80.5292 697.144 84.3996 698.026 88.1986 699.562C92.3905 701.253 96.5349 703.063 100.786 704.611C101.382 704.826 101.977 705.028 102.573 705.231L102.608 705.111L102.597 705.219ZM120.329 735.182C119.483 736.23 118.828 737.29 118.34 738.445C116.899 741.898 116.268 745.519 116.185 749.246C116.149 751.068 116.459 752.855 117.173 754.534C117.53 755.379 118.078 755.439 118.674 754.724C119.079 754.236 119.495 753.748 119.817 753.2C121.758 749.842 122.687 746.174 122.889 742.339C123.104 738.338 123.199 738.016 121.27 735.42C121.163 735.277 121.282 735.253 121.353 735.182C121.496 735.027 121.52 734.812 121.377 734.67C121.163 734.455 120.996 734.693 120.829 734.801C120.627 734.932 120.448 735.086 120.341 735.17L120.329 735.182ZM217.911 815.008C217.471 816.282 217.209 817.497 217.149 818.759C216.97 822.498 217.59 826.119 218.781 829.656C219.364 831.382 220.257 832.954 221.496 834.3C222.115 834.979 222.663 834.848 222.973 833.967C223.187 833.371 223.413 832.764 223.532 832.145C224.223 828.322 223.854 824.559 222.746 820.879C221.591 817.044 221.579 816.711 218.876 814.924C218.733 814.829 218.828 814.769 218.876 814.674C218.959 814.472 218.912 814.269 218.733 814.186C218.459 814.055 218.376 814.329 218.257 814.495C218.114 814.686 217.995 814.888 217.923 815.008H217.911ZM156.127 740.815C156.127 740.815 156.306 740.958 156.449 741.029C156.878 741.231 157.294 741.482 157.747 741.624C162.141 743.006 166.572 743.006 171.026 741.982C171.966 741.767 172.836 741.374 173.681 740.922C174.36 740.541 174.348 740.195 173.681 739.79C172.991 739.374 172.252 739.076 171.49 738.862C167.786 737.825 164.059 737.766 160.296 738.445C158.855 738.707 157.461 739.112 156.175 739.862C155.723 740.124 155.603 740.398 156.127 740.827V740.815ZM200.441 776.196C197.487 774.85 194.439 774.469 191.295 775.243C194.236 776.637 197.297 776.875 200.441 776.196ZM234.727 796.191C234.727 796.191 234.905 796.334 235.048 796.406C235.477 796.608 235.894 796.858 236.346 797.001C240.741 798.383 245.171 798.383 249.625 797.358C250.566 797.144 251.435 796.751 252.281 796.287C252.959 795.906 252.947 795.56 252.281 795.155C251.59 794.739 250.851 794.441 250.089 794.226C246.386 793.19 242.658 793.131 238.895 793.81C237.454 794.072 236.061 794.477 234.774 795.227C234.322 795.489 234.203 795.763 234.727 796.191Z" fill="#465C24"/>
<path d="M107.956 707.231C129.511 718.807 142.789 740.386 159.307 757.63C162.499 761.107 166.119 764.501 169.608 767.669C184.078 780.388 200.691 790.249 216.482 801.217C232.476 812.066 248.148 823.57 261.546 837.611C268.286 844.589 274.205 852.342 279.374 860.476L279.076 860.678C277.504 858.844 275.968 856.998 274.443 855.153C271.442 851.52 268.012 847.96 264.737 844.577C239.05 819.247 207.812 800.693 180.065 777.697C168.822 768.574 157.473 759.512 147.529 748.901C140.955 741.791 135.037 734.217 128.689 727.071C122.342 719.938 115.601 713.15 107.765 707.553L107.956 707.243V707.231Z" fill="#252D18"/>
<path d="M143.552 750.139C141.468 760.131 139.3 770.051 137.192 780.031C135.489 787.474 133.846 794.989 133.691 802.658C133.822 825.595 137.145 848.234 141.313 870.801L140.967 870.908C131.702 849.532 129.88 825.559 132.476 802.599C133.298 794.917 133.405 787.2 134.263 779.519C134.989 774.41 136.204 769.384 137.621 764.43C139.157 759.5 140.944 754.665 143.206 750.02L143.54 750.139H143.552Z" fill="#252D18"/>
<path d="M179.017 777.137C179.791 785.747 180.184 794.334 180.386 802.968C180.386 809.423 180.291 815.937 181.565 822.308C185.852 841.243 191.926 859.547 197.356 878.221L197.035 878.364C186.734 861.56 182.006 841.958 180.362 822.487C179.743 815.984 178.29 809.613 177.421 803.146C176.968 798.812 176.956 794.441 177.099 790.094C177.337 785.736 177.766 781.389 178.659 777.113L179.017 777.137Z" fill="#252D18"/>
<path d="M133.203 717.878C141.086 711.995 149.458 706.838 158.343 702.622C162.82 700.586 167.489 698.978 172.014 697.085C181.101 693.357 189.901 688.748 199.476 686.247C213.695 682.175 229.284 681.21 243.539 685.461L243.48 685.819C228.796 684.926 214.541 686.509 200.298 689.534C190.89 691.738 181.267 693.929 172.49 698.156C163.785 702.563 155.627 707.946 146.755 712.078C142.373 714.246 137.978 716.389 133.381 718.199L133.203 717.89V717.878Z" fill="#252D18"/>
<path d="M121.151 705.504C119.126 697.823 120.805 689.296 124.652 682.413C126.653 678.959 129.32 675.982 131.845 673.028C134.382 670.075 136.978 667.169 139.765 664.383C145.29 658.785 152.066 654.486 159.105 651.056C166.226 647.77 173.622 645.316 181.244 643.625L181.375 643.959C167.858 651.497 153.674 656.975 141.039 665.883C134.644 670.146 130.071 676.696 127.32 683.77C125.867 687.152 124.426 690.701 123.425 694.262C122.413 697.871 121.841 701.586 121.52 705.48L121.163 705.516L121.151 705.504Z" fill="#252D18"/>
<path d="M116.875 714.484C106.812 713.257 97.4162 716.592 88.7702 721.308C84.4116 723.594 80.0648 726.154 76.2182 729.37C71.4308 733.371 67.2745 738.218 63.5351 743.208C52.2335 758.19 43.3851 774.743 36.335 792.142L35.9896 792.047C37.645 782.019 41.1343 772.278 45.9574 763.263C50.8639 754.331 57.0447 746.019 64.3687 738.933C68.0248 735.396 71.7404 731.954 75.4441 728.512C82.7919 721.462 91.2235 714.698 101.632 712.971C106.741 711.959 112.195 712.28 116.959 714.15L116.875 714.496V714.484Z" fill="#252D18"/>
</g>
<g opacity="0.25" filter="url(#filter5_f_343_4)">
<path d="M1610.15 536.065C1611.03 565.46 1622.01 595.445 1613.46 623.598C1606.2 647.491 1585.67 665.524 1562.87 675.741C1540.07 685.95 1514.95 689.464 1490.21 692.856C1502.97 671.806 1509.55 647.482 1522.2 626.352C1532.43 609.266 1546.36 594.713 1560.89 581.081C1577.1 565.868 1594.21 551.607 1612.08 538.393" fill="#E25F45"/>
<path d="M1600.78 568.206C1599.98 578.266 1596.93 588.144 1592.17 597.033C1588.22 603.457 1583.45 609.367 1580.17 616.172C1576.71 622.869 1573.72 629.864 1569.4 636.088C1561.17 648.789 1550.3 659.923 1537.24 667.649L1536.8 667.155C1538.21 665.026 1539.72 663.024 1541.26 661.073C1548.69 651.254 1556.37 641.724 1564.35 632.356C1570.33 624.538 1577.62 617.556 1581.98 608.605C1584.15 604.157 1585.45 599.283 1587.16 594.662C1589.76 587.73 1593.04 581.151 1596.45 574.571C1597.56 572.345 1598.76 570.15 1600.16 567.982L1600.8 568.179L1600.78 568.206Z" fill="#881C12"/>
</g>
<g opacity="0.25" filter="url(#filter6_f_343_4)">
<path d="M1546.55 557.857C1529.58 548.984 1509.06 545.655 1495.8 531.827C1484.55 520.089 1480.86 502.682 1482.33 486.479C1483.8 470.285 1489.81 454.903 1495.78 439.773C1503.66 453.731 1515.37 465.219 1523.33 479.139C1529.77 490.392 1533.59 502.943 1536.7 515.536C1540.17 529.59 1542.81 543.851 1544.61 558.207" fill="#E25F45"/>
<path d="M1531.29 542.29C1525.83 538.627 1521.2 533.742 1517.67 528.209C1515.28 523.918 1513.45 519.329 1510.63 515.292C1507.93 511.196 1504.91 507.267 1502.76 502.829C1498.17 494.107 1495.31 484.391 1495.09 474.512L1495.52 474.416C1496.27 475.899 1496.93 477.396 1497.54 478.89C1500.75 486.237 1503.71 493.638 1506.49 501.153C1509.02 507.041 1510.66 513.408 1514.35 518.735C1516.18 521.382 1518.54 523.675 1520.61 526.121C1523.72 529.809 1526.41 533.767 1529.06 537.802C1529.97 539.14 1530.83 540.519 1531.61 542.006L1531.3 542.306L1531.29 542.29Z" fill="#881C12"/>
</g>
<g opacity="0.25" filter="url(#filter7_f_343_4)">
<path d="M1589.92 401.044C1595.72 413.587 1605.99 424.524 1607.48 438.267C1608.74 449.931 1603.19 461.509 1595.22 470.126C1587.25 478.737 1577.04 484.884 1566.97 490.909C1568.61 479.46 1566.97 467.735 1568.54 456.271C1569.81 447.002 1573.16 438.145 1576.92 429.577C1581.13 420.015 1585.9 410.698 1591.18 401.695" fill="#E25F45"/>
<path d="M1591.79 416.662C1593.3 421.158 1593.8 425.99 1593.38 430.708C1592.86 434.213 1591.89 437.645 1591.72 441.192C1591.46 444.723 1591.46 448.298 1590.74 451.784C1589.52 458.79 1586.87 465.603 1582.65 471.349L1582.37 471.218C1582.59 470.037 1582.87 468.893 1583.18 467.766C1584.58 462.154 1586.14 456.619 1587.87 451.101C1589.01 446.62 1590.88 442.258 1591.11 437.587C1591.23 435.266 1590.89 432.919 1590.78 430.606C1590.63 427.13 1590.83 423.683 1591.1 420.211C1591.16 419.045 1591.28 417.876 1591.48 416.68L1591.8 416.648L1591.79 416.662Z" fill="#881C12"/>
</g>
<defs>
<filter id="filter0_f_343_4" x="1766" y="26" width="307.118" height="138" filterUnits="userSpaceOnUse" color-interpolation-filters="sRGB">
<feFlood flood-opacity="0" result="BackgroundImageFix"/>
<feBlend mode="normal" in="SourceGraphic" in2="BackgroundImageFix" result="shape"/>
<feGaussianBlur stdDeviation="5" result="effect1_foregroundBlur_343_4"/>
</filter>
<filter id="filter1_f_343_4" x="0" y="0" width="354" height="233.271" filterUnits="userSpaceOnUse" color-interpolation-filters="sRGB">
<feFlood flood-opacity="0" result="BackgroundImageFix"/>
<feBlend mode="normal" in="SourceGraphic" in2="BackgroundImageFix" result="shape"/>
<feGaussianBlur stdDeviation="5" result="effect1_foregroundBlur_343_4"/>
</filter>
<filter id="filter2_f_343_4" x="1812" y="202.277" width="235.337" height="262.474" filterUnits="userSpaceOnUse" color-interpolation-filters="sRGB">
<feFlood flood-opacity="0" result="BackgroundImageFix"/>
<feBlend mode="normal" in="SourceGraphic" in2="BackgroundImageFix" result="shape"/>
<feGaussianBlur stdDeviation="5" result="effect1_foregroundBlur_343_4"/>
</filter>
<filter id="filter3_f_343_4" x="1905" y="732" width="151" height="218" filterUnits="userSpaceOnUse" color-interpolation-filters="sRGB">
<feFlood flood-opacity="0" result="BackgroundImageFix"/>
<feBlend mode="normal" in="SourceGraphic" in2="BackgroundImageFix" result="shape"/>
<feGaussianBlur stdDeviation="5" result="effect1_foregroundBlur_343_4"/>
</filter>
<filter id="filter4_f_343_4" x="11" y="618" width="301.848" height="291" filterUnits="userSpaceOnUse" color-interpolation-filters="sRGB">
<feFlood flood-opacity="0" result="BackgroundImageFix"/>
<feBlend mode="normal" in="SourceGraphic" in2="BackgroundImageFix" result="shape"/>
<feGaussianBlur stdDeviation="5" result="effect1_foregroundBlur_343_4"/>
</filter>
<filter id="filter5_f_343_4" x="1480.21" y="526.065" width="146.493" height="176.791" filterUnits="userSpaceOnUse" color-interpolation-filters="sRGB">
<feFlood flood-opacity="0" result="BackgroundImageFix"/>
<feBlend mode="normal" in="SourceGraphic" in2="BackgroundImageFix" result="shape"/>
<feGaussianBlur stdDeviation="5" result="effect1_foregroundBlur_343_4"/>
</filter>
<filter id="filter6_f_343_4" x="1472.02" y="429.773" width="84.5261" height="138.433" filterUnits="userSpaceOnUse" color-interpolation-filters="sRGB">
<feFlood flood-opacity="0" result="BackgroundImageFix"/>
<feBlend mode="normal" in="SourceGraphic" in2="BackgroundImageFix" result="shape"/>
<feGaussianBlur stdDeviation="5" result="effect1_foregroundBlur_343_4"/>
</filter>
<filter id="filter7_f_343_4" x="1556.97" y="391.044" width="60.6925" height="109.866" filterUnits="userSpaceOnUse" color-interpolation-filters="sRGB">
<feFlood flood-opacity="0" result="BackgroundImageFix"/>
<feBlend mode="normal" in="SourceGraphic" in2="BackgroundImageFix" result="shape"/>
<feGaussianBlur stdDeviation="5" result="effect1_foregroundBlur_343_4"/>
</filter>
</defs>
</svg>
