<svg width="20" height="28" viewBox="0 0 20 28" fill="none" xmlns="http://www.w3.org/2000/svg">
<path d="M19 11.8475C19 19.8119 10 26.6386 10 26.6386C10 26.6386 1 19.8119 1 11.8475C1 9.13163 1.94821 6.52704 3.63604 4.60666C5.32387 2.68628 7.61305 1.60742 10 1.60742C12.3869 1.60742 14.6761 2.68628 16.364 4.60666C18.0518 6.52704 19 9.13163 19 11.8475Z" stroke="white" stroke-width="2" stroke-linecap="round" stroke-linejoin="round"/>
<path d="M10 15.2608C11.6569 15.2608 13 13.7326 13 11.8474C13 9.96229 11.6569 8.43408 10 8.43408C8.34315 8.43408 7 9.96229 7 11.8474C7 13.7326 8.34315 15.2608 10 15.2608Z" stroke="white" stroke-width="2" stroke-linecap="round" stroke-linejoin="round"/>
</svg>
