<svg width="23" height="27" viewBox="0 0 23 27" fill="none" xmlns="http://www.w3.org/2000/svg">
<path d="M13.9381 6.27818C14.9149 6.495 15.8125 7.03851 16.5162 7.83914C17.2199 8.63977 17.6976 9.66111 17.8881 10.7724M13.9381 1.72705C15.9674 1.98355 17.8597 3.01749 19.3044 4.65912C20.749 6.30075 21.6601 8.45249 21.8881 10.761M20.8881 19.8405V23.2539C20.8892 23.5708 20.8322 23.8844 20.7206 24.1747C20.6091 24.4651 20.4454 24.7257 20.2402 24.9399C20.035 25.1541 19.7927 25.3172 19.5289 25.4188C19.265 25.5203 18.9855 25.558 18.7081 25.5294C15.631 25.149 12.6751 23.9526 10.0781 22.0365C7.66194 20.2896 5.61345 17.9588 4.07812 15.2098C2.38809 12.2415 1.33636 8.86208 1.00812 5.3452C0.983127 5.03056 1.01599 4.71346 1.10462 4.41406C1.19324 4.11467 1.33569 3.83956 1.52288 3.60624C1.71008 3.37291 1.93792 3.18649 2.19191 3.05885C2.44589 2.9312 2.72046 2.86513 2.99812 2.86483H5.99812C6.48342 2.8594 6.95391 3.05493 7.32188 3.41499C7.68985 3.77504 7.93019 4.27505 7.99812 4.82182C8.12474 5.91416 8.35957 6.98671 8.69812 8.01899C8.83266 8.42622 8.86178 8.86881 8.78202 9.2943C8.70227 9.71979 8.51698 10.1104 8.24812 10.4197L6.97812 11.8647C8.40167 14.7132 10.4746 17.0717 12.9781 18.6914L14.2481 17.2464C14.52 16.9405 14.8633 16.7297 15.2372 16.6389C15.6112 16.5482 16.0002 16.5813 16.3581 16.7344C17.2654 17.1196 18.2081 17.3868 19.1681 17.5308C19.6539 17.6088 20.0975 17.8872 20.4146 18.3131C20.7318 18.7389 20.9003 19.2825 20.8881 19.8405Z" stroke="white" stroke-width="2" stroke-linecap="round" stroke-linejoin="round"/>
</svg>
