<svg width="95" height="27" viewBox="0 0 95 27" fill="none" xmlns="http://www.w3.org/2000/svg">
<g clip-path="url(#clip0_150_206)">
<path d="M0 2.02209H6.52588V21.2953H0V2.02209Z" fill="#ED6C7C"/>
<path d="M24.0258 7.24583V27H17.7029V20.6645C17.2984 20.9496 16.878 21.1801 16.4415 21.3543C16.0051 21.5286 15.5586 21.615 15.1004 21.615C14.129 21.615 13.2504 21.4379 12.4645 21.0864C11.6787 20.735 11.0089 20.2295 10.455 19.5728C9.90117 18.916 9.47781 18.1181 9.18058 17.1748C8.88336 16.2329 8.73547 15.1685 8.73547 13.9803C8.73547 12.8642 8.87756 11.869 9.16029 10.9933C9.44301 10.1176 9.84318 9.37737 10.3608 8.76959C10.8769 8.16181 11.4975 7.70094 12.221 7.38409C12.9445 7.06724 13.7462 6.90881 14.6278 6.90881C15.7152 6.90881 16.6793 7.0946 17.5203 7.46474C18.3612 7.83488 19.0368 8.31448 19.5501 8.90497L20.291 7.24439H24.0258V7.24583ZM16.5024 16.6477C16.6822 16.6477 16.878 16.5958 17.0882 16.4935C17.2999 16.3913 17.5087 16.2588 17.7145 16.0989V12.5358C17.5072 12.3486 17.297 12.2117 17.0809 12.1268C16.8649 12.0418 16.6402 12 16.4067 12C16.1733 12 15.95 12.0274 15.7659 12.0807C15.5818 12.134 15.4295 12.2434 15.3077 12.4091C15.186 12.5747 15.0946 12.8109 15.0308 13.1191C14.9685 13.4273 14.9366 13.8306 14.9366 14.3318C14.9366 14.6616 14.9569 14.9698 14.9975 15.2564C15.0381 15.5416 15.1149 15.7878 15.2266 15.9923C15.3382 16.1983 15.4991 16.3582 15.705 16.4748C15.9109 16.5915 16.1762 16.6491 16.501 16.6491L16.5024 16.6477Z" fill="#37914A"/>
<path d="M41.9448 7.24578V21.2952H38.2099L36.8616 18.2549C36.5919 18.7633 36.2729 19.2256 35.9047 19.6404C35.5364 20.0552 35.1174 20.4109 34.6505 20.7047C34.1837 21 33.666 21.2275 33.1006 21.3874C32.5337 21.5487 31.9146 21.6279 31.2404 21.6279C30.3241 21.6279 29.5687 21.4853 28.9757 21.1987C28.3827 20.9121 27.9144 20.5218 27.5737 20.0264C27.2315 19.5309 26.9937 18.9433 26.8589 18.265C26.7241 17.5866 26.6559 16.8593 26.6559 16.0816V7.24146H32.9658V14.7551C32.9658 15.1742 33.0484 15.5257 33.2151 15.8065C33.3819 16.0874 33.6892 16.2285 34.1387 16.2285C34.3547 16.2285 34.5954 16.1723 34.8593 16.0614C35.1246 15.9505 35.3827 15.6884 35.635 15.2779V7.24146H41.9448V7.24578Z" fill="#FFD103"/>
<path d="M47.7965 6.16133C47.3108 6.16133 46.857 6.08356 46.4351 5.92657C46.0132 5.77103 45.6434 5.55643 45.3303 5.28423C45.0156 5.01203 44.7677 4.68653 44.5894 4.30631C44.4096 3.92753 44.3197 3.50987 44.3197 3.05475C44.3197 2.62556 44.4096 2.22374 44.5894 1.84928C44.7692 1.47482 45.0156 1.15077 45.3303 0.878565C45.6449 0.606362 46.0132 0.391767 46.4351 0.236222C46.857 0.0806775 47.3108 0.00146484 47.7965 0.00146484C48.2822 0.00146484 48.7404 0.0792373 49.1724 0.236222C49.6045 0.391767 49.9786 0.609242 50.2975 0.885766C50.6165 1.16229 50.8688 1.48634 51.0529 1.85648C51.237 2.22662 51.3298 2.627 51.3298 3.05475C51.3298 3.50987 51.237 3.92753 51.0529 4.30631C50.8688 4.68653 50.6165 5.01203 50.2975 5.28423C49.9786 5.55643 49.6059 5.77103 49.1782 5.92657C48.7505 6.08356 48.2909 6.16133 47.7965 6.16133ZM44.6416 7.24582H50.979V21.2953H44.6416V7.24582Z" fill="#D73C3A"/>
<path d="M58.9199 21.6164C57.8775 21.6164 57.0322 21.4494 56.3855 21.1138C55.7389 20.7797 55.2343 20.3389 54.8748 19.7945C54.5152 19.2501 54.2731 18.6366 54.1469 17.9525C54.0208 17.2684 53.9585 16.5756 53.9585 15.8699V11.0754H52.3404V8.27558L55.0908 7.24437L55.9665 4.68652H60.2538V7.24437H63.4769V11.0754H60.2538V15.602C60.2538 15.8166 60.2828 15.9923 60.3408 16.1306C60.3988 16.2689 60.4713 16.3769 60.5568 16.4518C60.6424 16.5281 60.7366 16.5814 60.8395 16.6131C60.9425 16.6448 61.0396 16.6606 61.1295 16.6606C61.4441 16.6606 61.766 16.6131 62.0937 16.5195C62.4214 16.4258 62.765 16.2991 63.1245 16.1378L64.8905 19.5799C64.4947 19.8032 64.0655 20.0351 63.603 20.277C63.1405 20.5175 62.6562 20.7365 62.1531 20.9338C61.65 21.1296 61.1266 21.2938 60.5829 21.422C60.0392 21.5516 59.4839 21.6164 58.9185 21.6164H58.9199Z" fill="#37914A"/>
<path d="M73.1374 21.6164C72.0775 21.6164 71.0757 21.4306 70.1333 21.0604C69.1908 20.6903 68.3659 20.1761 67.6612 19.5208C66.9566 18.8641 66.3969 18.0907 65.9837 17.1978C65.5705 16.3048 65.3646 15.3312 65.3646 14.2784C65.3646 13.2256 65.5705 12.2491 65.9837 11.3519C66.3969 10.4546 66.9566 9.67831 67.6612 9.02156C68.3659 8.36482 69.1908 7.85209 70.1333 7.48195C71.0757 7.11182 72.0775 6.92603 73.1374 6.92603C74.1973 6.92603 75.1991 7.11182 76.1415 7.48195C77.0839 7.85209 77.9104 8.36626 78.6194 9.02156C79.3283 9.67831 79.8923 10.4546 80.3099 11.3519C80.7275 12.2491 80.9363 13.2242 80.9363 14.2784C80.9363 15.3327 80.7275 16.3048 80.3099 17.1978C79.8923 18.0907 79.3283 18.8655 78.6194 19.5208C77.9104 20.1776 77.0839 20.6903 76.1415 21.0604C75.1991 21.4306 74.1973 21.6164 73.1374 21.6164ZM73.1707 16.6749C73.6912 16.6749 74.0711 16.4719 74.3103 16.0643C74.5481 15.6567 74.667 15.0633 74.667 14.2842C74.667 13.4431 74.5481 12.8295 74.3103 12.445C74.0726 12.0604 73.684 11.8675 73.1446 11.8675C72.6053 11.8675 72.2414 12.0576 71.9992 12.4378C71.7571 12.818 71.6353 13.4344 71.6353 14.2842C71.6353 15.0446 71.7586 15.6337 72.0065 16.0499C72.253 16.4661 72.6415 16.6749 73.1722 16.6749H73.1707Z" fill="#EC6231"/>
<path d="M88.4596 21.6164C87.813 21.6164 87.1693 21.5746 86.5313 21.4896C85.8934 21.4047 85.2902 21.2938 84.7248 21.1541C84.1579 21.0158 83.6345 20.8617 83.1546 20.6917C82.6732 20.5218 82.2629 20.3576 81.9207 20.1963L83.417 15.9779C83.8751 16.1478 84.3289 16.312 84.7784 16.4733C85.2279 16.6346 85.657 16.7729 86.0659 16.8881C86.4748 17.0048 86.8662 17.0984 87.2388 17.1689C87.6115 17.241 87.9507 17.2755 88.2567 17.2755C88.4901 17.2755 88.6887 17.251 88.8497 17.2021C89.012 17.1531 89.0918 17.0609 89.0918 16.927C89.0918 16.6677 88.6641 16.4359 87.8115 16.2299L86.382 15.8958C85.8339 15.7618 85.2989 15.5789 84.777 15.347C84.255 15.1152 83.7954 14.8185 83.3952 14.457C82.9951 14.0955 82.6746 13.6577 82.4311 13.1449C82.1889 12.6322 82.0672 12.0273 82.0672 11.3302C82.0672 10.554 82.231 9.88569 82.5587 9.32833C82.8863 8.77096 83.3343 8.31008 83.8998 7.94858C84.4667 7.58709 85.1293 7.32208 85.889 7.15214C86.6487 6.98219 87.4592 6.89722 88.3233 6.89722C89.4644 6.89722 90.4851 6.97787 91.384 7.13774C92.2829 7.29904 93.1326 7.53524 93.9329 7.84777L92.6527 12.1339C92.3018 12.0273 91.9408 11.9193 91.5667 11.8127C91.1941 11.7061 90.8316 11.6097 90.4808 11.5247C90.1299 11.4397 89.808 11.3706 89.5166 11.3173C89.2252 11.264 88.9888 11.2366 88.8091 11.2366C88.5843 11.2366 88.3915 11.2611 88.2291 11.3101C88.0667 11.3591 87.987 11.4512 87.987 11.5852C87.987 11.7105 88.074 11.8286 88.2494 11.9395C88.4248 12.0518 88.7685 12.1555 89.2803 12.2549L89.9008 12.3759C90.5475 12.5012 91.1796 12.6725 91.7958 12.8915C92.412 13.1104 92.9557 13.3984 93.4269 13.7556C93.8981 14.1128 94.278 14.552 94.5665 15.0748C94.8536 15.5976 94.9986 16.2241 94.9986 16.9572C94.9986 17.7335 94.8144 18.4133 94.4462 18.9923C94.0779 19.5727 93.5893 20.0566 92.9832 20.4455C92.3772 20.8343 91.6798 21.1267 90.894 21.3226C90.1067 21.5184 89.2962 21.6178 88.4596 21.6178V21.6164Z" fill="#534778"/>
</g>
<defs>
<clipPath id="clip0_150_206">
<rect width="95" height="27" fill="white"/>
</clipPath>
</defs>
</svg>
