<svg width="143" height="29" viewBox="0 0 143 29" fill="none" xmlns="http://www.w3.org/2000/svg">
<g clip-path="url(#clip0_12_20)">
<path d="M117.645 21.4481C117.51 21.3707 117.374 21.332 117.239 21.2933C117.104 21.2547 116.949 21.2353 116.794 21.2353C116.601 21.2353 116.407 21.2547 116.195 21.3127C115.982 21.3707 115.789 21.4481 115.595 21.5254C115.402 21.6028 115.228 21.7188 115.054 21.8349C114.899 21.9509 114.744 22.0863 114.628 22.2023C114.454 22.4151 114.299 22.6278 114.145 22.8405C113.99 23.0533 113.874 23.3047 113.758 23.5368C113.642 23.7689 113.526 24.0203 113.429 24.2717C113.332 24.5231 113.236 24.7745 113.139 25.0066C113.158 24.7939 113.178 24.6005 113.216 24.4458C113.236 24.291 113.255 24.1363 113.274 23.9816C113.294 23.8462 113.313 23.7108 113.332 23.5755C113.352 23.4401 113.371 23.3047 113.39 23.1693C113.41 23.0146 113.429 22.8599 113.448 22.7052C113.468 22.5504 113.448 22.4344 113.448 22.3184C113.448 22.2217 113.448 22.1443 113.429 22.0476C113.429 21.9509 113.39 21.8735 113.352 21.8155C113.332 21.7768 113.294 21.7382 113.255 21.6801C113.216 21.6415 113.158 21.5834 113.1 21.5448C113.042 21.5061 112.984 21.4674 112.907 21.4481C112.83 21.4287 112.772 21.4094 112.694 21.4094C112.578 21.4094 112.462 21.4287 112.346 21.4867C112.23 21.5448 112.133 21.6028 112.037 21.6995C111.94 21.7962 111.863 21.8929 111.805 22.0089C111.766 22.0669 111.766 22.125 111.747 22.2023C111.747 22.2023 111.727 22.2023 111.708 22.2217C111.611 22.299 111.514 22.3957 111.418 22.5118C111.321 22.6085 111.224 22.7052 111.147 22.7825C110.838 23.092 110.528 23.3821 110.219 23.6722C109.909 23.9623 109.619 24.2137 109.31 24.4264C109.213 24.5038 109.116 24.5618 109.058 24.6198C108.981 24.6778 108.904 24.7359 108.846 24.7745C108.768 24.8132 108.691 24.8519 108.613 24.8712C108.536 24.8906 108.439 24.9099 108.343 24.9099C108.265 24.9099 108.188 24.8519 108.111 24.7359C108.053 24.6198 107.995 24.4651 107.956 24.3104C107.917 24.1363 107.879 23.9623 107.859 23.7689C107.84 23.5755 107.821 23.4014 107.821 23.266C107.821 23.0146 107.821 22.7825 107.859 22.5891C107.898 22.3957 107.917 22.2217 107.956 22.0669C107.995 21.9122 108.014 21.7768 108.053 21.6608C108.072 21.5448 108.091 21.4287 108.091 21.332C108.091 21.274 108.072 21.216 108.033 21.1386C107.995 21.0613 107.937 20.9839 107.879 20.9259C107.821 20.8485 107.763 20.7905 107.704 20.7325C107.646 20.6745 107.608 20.6164 107.588 20.5971C107.55 20.5197 107.511 20.4424 107.472 20.3844C107.434 20.3263 107.376 20.249 107.318 20.191C107.26 20.1329 107.182 20.0943 107.105 20.0556C107.028 20.0169 106.931 19.9976 106.796 19.9976C106.331 19.9976 105.887 20.0943 105.442 20.2683C104.997 20.4424 104.591 20.7131 104.204 21.0806C103.991 21.2933 103.778 21.5254 103.566 21.7962C103.353 22.0669 103.16 22.357 102.966 22.6471C102.928 22.7052 102.908 22.7632 102.869 22.8212C102.831 22.8405 102.773 22.8212 102.753 22.8792C102.579 23.0533 102.425 23.208 102.289 23.3627C102.135 23.5174 101.999 23.6722 101.844 23.8075C101.709 23.9429 101.554 24.0783 101.419 24.2137C101.264 24.3491 101.129 24.4844 100.955 24.6005C100.8 24.7165 100.645 24.8326 100.491 24.9486C100.317 25.0646 100.162 25.1613 100.007 25.258C99.8524 25.3547 99.6977 25.4321 99.5623 25.4901C99.427 25.5481 99.3303 25.5868 99.2336 25.5868C99.0402 25.5868 98.9048 25.4514 98.7887 25.1613C98.6727 24.8712 98.6147 24.4844 98.5567 23.9623C98.518 23.6915 98.518 23.4401 98.4986 23.208C98.4793 22.9759 98.4986 22.7632 98.46 22.5891C98.46 22.3957 98.4213 22.2217 98.3826 22.0669C98.3439 21.9122 98.2859 21.7768 98.2085 21.6415C98.1699 21.5834 98.1118 21.5254 98.0345 21.4674C97.9571 21.4094 97.8798 21.3707 97.7831 21.332C97.6864 21.2933 97.609 21.274 97.5123 21.2547C97.4156 21.2353 97.3189 21.216 97.2222 21.216C97.0868 21.216 96.9321 21.274 96.7774 21.39C96.6033 21.5061 96.4293 21.6608 96.2359 21.8735C96.0425 22.0669 95.8684 22.299 95.675 22.5698C95.4816 22.8405 95.3075 23.1113 95.1335 23.4014C95.0368 23.5755 94.9207 23.7689 94.8047 24.0009C94.6887 24.2137 94.592 24.4071 94.4759 24.6005C94.3599 24.7939 94.2825 24.9293 94.2052 25.0646C94.1278 25.1807 94.0504 25.2387 94.0118 25.2387C94.0118 25.2387 93.9924 25.1807 93.9731 25.084C93.9731 24.9873 93.9731 24.8519 93.9731 24.6972C93.9731 24.5425 93.9731 24.3491 93.9731 24.1557C93.9731 23.9429 93.9731 23.7495 93.9731 23.5368C93.9731 23.324 93.9731 23.15 93.9344 22.9566C93.9344 22.7632 93.8957 22.6278 93.8764 22.4924C93.799 22.1636 93.683 21.8929 93.4702 21.6801C93.2768 21.4674 93.0254 21.3707 92.7353 21.3707C92.4646 21.3707 92.1938 21.4287 91.9424 21.5641C91.691 21.6995 91.4589 21.8735 91.2461 22.125C91.1494 22.241 91.0334 22.3764 90.9174 22.5504C90.8013 22.7245 90.6659 22.8986 90.5499 23.092C90.4145 23.2854 90.2985 23.4594 90.1824 23.6528C90.0664 23.8269 89.9697 24.0009 89.873 24.1363C89.873 24.1363 89.8343 24.2137 89.7763 24.291C89.7183 24.3684 89.6796 24.4651 89.6022 24.5811C89.5442 24.6972 89.4669 24.8132 89.3895 24.9293C89.3121 25.0646 89.2541 25.1807 89.1768 25.2967C89.1187 25.4128 89.0607 25.5095 89.0027 25.5868C88.964 25.6642 88.9253 25.7222 88.9253 25.7415C88.9253 25.6255 88.964 25.4901 89.0027 25.2967C89.0414 25.1033 89.0801 24.8906 89.1381 24.6585C89.1961 24.4264 89.2348 24.175 89.2928 23.9042C89.3508 23.6528 89.4088 23.4014 89.4475 23.15C89.4862 22.9179 89.5249 22.6858 89.5636 22.4924C89.6022 22.299 89.6022 22.1443 89.6022 22.0089C89.6022 21.8735 89.6022 21.7382 89.5829 21.6221C89.5829 21.5061 89.5249 21.39 89.4862 21.2933C89.4282 21.1966 89.3702 21.1193 89.2735 21.0613C89.1768 21.0032 89.0607 20.9839 88.906 20.9839C88.7319 20.9839 88.5966 21.0032 88.4999 21.0613C88.4032 21.1193 88.2871 21.1773 88.2291 21.274C88.1517 21.3514 88.0937 21.4481 88.055 21.5448C88.0164 21.6415 87.9777 21.7188 87.9583 21.8155C87.9197 21.9316 87.9003 22.0863 87.881 22.2797C87.8616 22.4731 87.8423 22.6665 87.823 22.8792C87.823 23.092 87.7843 23.324 87.7843 23.5368C87.7843 23.7689 87.7456 23.9816 87.7263 24.175C87.6876 24.4071 87.6682 24.6198 87.6296 24.7939C87.6102 24.9679 87.5715 25.142 87.5522 25.3161C87.5329 25.4708 87.5135 25.6448 87.5135 25.7996C87.5135 25.9543 87.5135 26.1477 87.5135 26.3411C87.5135 26.5732 87.5329 26.7859 87.5715 26.9793C87.6102 27.1727 87.6682 27.3468 87.7649 27.5015C87.8423 27.6562 87.9583 27.7529 88.1131 27.8496C88.2484 27.927 88.4225 27.985 88.6159 27.985C88.7513 27.985 88.8867 27.9463 89.022 27.8883C89.1574 27.8303 89.2541 27.7336 89.3508 27.5982C89.4282 27.5015 89.5055 27.3854 89.5829 27.2501C89.6603 27.1147 89.757 26.9793 89.8343 26.8246C89.9117 26.6699 90.0084 26.5345 90.0857 26.3991C90.1631 26.2637 90.2405 26.1283 90.2985 26.0316C90.5306 25.6255 90.7626 25.2387 90.9754 24.8906C91.1881 24.5425 91.4009 24.233 91.5943 23.9623C91.7877 23.6915 91.9424 23.4981 92.0778 23.3434C92.2131 23.1887 92.3098 23.1113 92.3679 23.1113C92.4259 23.1113 92.4452 23.2854 92.4839 23.6528C92.5032 24.0203 92.5226 24.5038 92.5419 25.1613C92.5419 25.5481 92.5806 25.8769 92.5999 26.1477C92.6386 26.4378 92.6966 26.6505 92.774 26.8246C92.8514 26.9986 92.9674 27.134 93.1028 27.2114C93.2382 27.2887 93.4316 27.3468 93.6443 27.3468C93.799 27.3468 93.9344 27.2887 94.0698 27.192C94.2052 27.0953 94.3599 26.96 94.5146 26.7666C94.6693 26.5925 94.824 26.3604 94.9981 26.0897C95.1722 25.8189 95.3462 25.5095 95.5396 25.1807C95.6943 24.9099 95.8491 24.6585 95.9844 24.4071C96.1392 24.1557 96.2552 23.9429 96.3906 23.7495C96.5066 23.5561 96.6227 23.4014 96.7194 23.2854C96.8161 23.1693 96.8741 23.1113 96.9128 23.1113C96.9128 23.1113 96.9128 23.15 96.9514 23.2467C96.9514 23.3434 96.9514 23.4401 96.9708 23.5755C96.9901 23.7108 96.9708 23.8269 96.9901 23.9429C97.0095 24.059 96.9901 24.1557 96.9901 24.2137C97.0675 24.8132 97.1448 25.2967 97.2609 25.6642C97.3769 26.0316 97.5123 26.3217 97.667 26.5345C97.8217 26.7472 97.9958 26.8826 98.1699 26.96C98.3439 27.0373 98.5373 27.076 98.7307 27.076C98.9435 27.076 99.1369 27.0373 99.3689 26.96C99.5817 26.8826 99.8138 26.7859 100.027 26.6505C100.239 26.5345 100.433 26.3991 100.626 26.2637C100.819 26.1283 100.974 25.993 101.129 25.8769C101.303 25.7222 101.477 25.5675 101.67 25.3934C101.709 25.3547 101.748 25.3161 101.786 25.2774C101.786 25.3161 101.767 25.3547 101.748 25.3934C101.69 25.6835 101.651 25.9349 101.651 26.1864C101.651 26.4378 101.69 26.6505 101.786 26.8439C101.883 27.0373 101.999 27.192 102.154 27.3274C102.309 27.4628 102.483 27.5595 102.676 27.6175C102.869 27.6949 103.082 27.7142 103.295 27.7142C103.392 27.7142 103.527 27.6755 103.701 27.5788C103.875 27.4821 104.069 27.3661 104.262 27.2307C104.455 27.0953 104.668 26.9213 104.862 26.7472C105.074 26.5732 105.248 26.3991 105.403 26.2444C105.442 26.1864 105.519 26.109 105.635 25.9736C105.732 25.8576 105.848 25.7222 105.964 25.5675C106.08 25.4128 106.196 25.2774 106.312 25.1227C106.428 24.9679 106.505 24.8519 106.563 24.7745C106.563 24.9486 106.602 25.142 106.679 25.3354C106.757 25.5481 106.854 25.7415 106.989 25.9156C107.124 26.0897 107.26 26.2444 107.434 26.3604C107.608 26.4765 107.782 26.5345 107.975 26.5345C108.13 26.5345 108.285 26.5151 108.459 26.4571C108.633 26.4184 108.807 26.3411 109 26.2444C109.194 26.1477 109.368 26.051 109.561 25.9156C109.735 25.7802 109.929 25.6448 110.103 25.4901C110.431 25.2 110.76 24.8906 111.07 24.5425C111.282 24.3297 111.476 24.0783 111.669 23.8462C111.669 23.9429 111.669 24.0396 111.669 24.175C111.669 24.3491 111.669 24.5425 111.65 24.7359C111.631 24.9293 111.631 25.142 111.611 25.3741C111.611 25.5868 111.592 25.8189 111.572 26.0316C111.553 26.2444 111.572 26.4378 111.553 26.6312C111.553 26.8246 111.553 26.9793 111.553 27.1147C111.553 27.2887 111.553 27.4821 111.572 27.6949C111.572 27.9076 111.631 28.101 111.689 28.2751C111.747 28.4491 111.843 28.6039 111.94 28.7199C112.056 28.8359 112.191 28.894 112.385 28.894C112.423 28.894 112.501 28.8746 112.598 28.8359C112.694 28.7973 112.81 28.7586 112.926 28.7199C113.042 28.6619 113.139 28.6232 113.216 28.5652C113.294 28.5072 113.352 28.4491 113.352 28.3911C113.371 28.2364 113.41 28.0623 113.448 27.8883C113.487 27.7142 113.526 27.5402 113.565 27.3854C113.603 27.2307 113.661 27.0567 113.7 26.8826C113.758 26.7279 113.797 26.5732 113.855 26.4378C113.951 26.1864 114.048 25.9349 114.164 25.6835C114.28 25.4128 114.415 25.1613 114.551 24.9099C114.686 24.6585 114.822 24.4264 114.957 24.2137C115.092 24.0009 115.228 23.8075 115.363 23.6722C115.499 23.5368 115.615 23.4207 115.711 23.324C115.808 23.2273 115.924 23.15 116.04 23.092C116.137 23.0339 116.253 22.9953 116.349 22.9759C116.446 22.9566 116.562 22.9372 116.678 22.9372C116.717 22.9372 116.775 22.9372 116.852 22.9372C116.93 22.9372 117.007 22.9372 117.084 22.9566C117.162 22.9566 117.239 22.9566 117.297 22.9759C117.355 22.9953 117.394 22.9759 117.413 22.9759C117.491 22.9759 117.568 22.9372 117.626 22.8599C117.703 22.7825 117.761 22.6858 117.819 22.5891C117.877 22.4924 117.916 22.3764 117.955 22.2797C117.993 22.183 118.013 22.125 118.013 22.0863C118.013 21.9509 117.955 21.8349 117.858 21.7382C117.761 21.6415 117.665 21.5448 117.529 21.4867L117.645 21.4481ZM106.621 21.5834C106.621 21.5834 106.602 21.7382 106.583 21.8349C106.563 21.9316 106.544 22.0283 106.525 22.125C106.505 22.2217 106.486 22.299 106.467 22.3764C106.409 22.6085 106.312 22.8599 106.177 23.15C106.041 23.4401 105.867 23.7302 105.693 24.0203C105.519 24.3104 105.306 24.5811 105.094 24.8712C104.881 25.142 104.668 25.3934 104.455 25.6062C104.243 25.8189 104.049 25.993 103.875 26.1283C103.701 26.2637 103.546 26.3217 103.45 26.3217C103.392 26.3217 103.353 26.3024 103.314 26.2637C103.276 26.225 103.237 26.167 103.237 26.0703C103.237 25.8576 103.256 25.6448 103.295 25.4514C103.334 25.258 103.392 25.0646 103.469 24.8906C103.546 24.7165 103.624 24.5425 103.701 24.4071C103.778 24.2717 103.856 24.117 103.933 23.9816C104.204 23.4981 104.475 23.092 104.726 22.7438C104.978 22.4151 105.21 22.125 105.442 21.9122C105.674 21.6995 105.867 21.5448 106.061 21.4287C106.254 21.332 106.428 21.2547 106.583 21.2353C106.583 21.2547 106.583 21.2933 106.602 21.332C106.621 21.3707 106.602 21.4094 106.602 21.4094C106.602 21.4481 106.602 21.5061 106.602 21.5834H106.621Z" fill="#1D1D1B"/>
<path d="M142.961 21.158C142.961 21.158 142.884 21.0226 142.787 20.9646C142.691 20.9065 142.575 20.8679 142.42 20.8485C142.265 20.8292 142.052 20.8098 141.782 20.8098C141.743 20.8098 141.666 20.8098 141.53 20.8098C141.414 20.8098 141.259 20.8292 141.085 20.8485C140.911 20.8485 140.737 20.8872 140.544 20.9065C140.35 20.9259 140.176 20.9452 139.983 20.9646C139.809 20.9646 139.654 21.0032 139.519 21.0032C139.383 21.0032 139.287 21.0226 139.229 21.0226C139.267 20.9065 139.306 20.7905 139.364 20.6358C139.422 20.4811 139.461 20.3263 139.519 20.1716C139.577 20.0169 139.635 19.8428 139.674 19.6881C139.712 19.5334 139.77 19.3787 139.828 19.2433C139.886 19.1079 139.906 18.9919 139.925 18.8952C139.944 18.7985 139.964 18.7405 139.964 18.7211C139.964 18.6438 139.964 18.5664 139.964 18.489C139.964 18.4117 139.925 18.3343 139.886 18.2763C139.848 18.2183 139.79 18.1603 139.693 18.1216C139.596 18.0829 139.48 18.0636 139.325 18.0636C139.074 18.0636 138.881 18.1216 138.726 18.257C138.571 18.3923 138.455 18.6051 138.358 18.9145C138.281 19.1273 138.223 19.34 138.126 19.5914C138.03 19.8428 137.972 20.0556 137.875 20.2683C137.798 20.4811 137.72 20.6745 137.662 20.8292C137.604 20.9839 137.546 21.0806 137.527 21.1386L135.98 21.1966C135.98 21.1966 135.806 21.1966 135.728 21.2353C135.651 21.2353 135.573 21.2933 135.515 21.332C135.457 21.3707 135.399 21.4481 135.361 21.5061C135.322 21.5834 135.303 21.6801 135.303 21.7768C135.303 21.9509 135.341 22.0863 135.419 22.183C135.496 22.2797 135.593 22.3377 135.728 22.3957C135.844 22.4344 135.98 22.4731 136.134 22.4731C136.27 22.4731 136.405 22.4731 136.54 22.4731C136.656 22.4731 136.734 22.4731 136.811 22.4731C136.869 22.4731 136.927 22.4731 136.947 22.5118C136.966 22.5118 136.985 22.5504 137.005 22.5698C137.005 22.5891 137.005 22.6278 137.005 22.6471C137.005 22.7052 137.005 22.8019 136.985 22.8599C136.889 22.9179 136.811 22.9759 136.695 23.0726L136.308 23.4594C135.999 23.7689 135.67 24.0783 135.341 24.3684C135.013 24.6585 134.664 24.9486 134.297 25.2C134.084 25.3547 133.872 25.4901 133.62 25.6255C133.369 25.7609 133.117 25.8769 132.846 25.9736C132.576 26.0703 132.324 26.1477 132.054 26.225C131.783 26.3024 131.531 26.3217 131.299 26.3217C131.125 26.3217 130.951 26.3024 130.796 26.2444C130.642 26.2057 130.526 26.1283 130.429 26.051C130.332 25.9736 130.236 25.8769 130.178 25.7609C130.12 25.6642 130.081 25.5481 130.081 25.4128C130.39 25.1807 130.661 24.9873 130.893 24.7939C131.145 24.6198 131.357 24.4458 131.531 24.291C132.092 23.8075 132.537 23.324 132.866 22.8599C133.195 22.3957 133.349 21.9509 133.349 21.5061C133.349 21.274 133.311 21.0419 133.253 20.8292C133.195 20.6164 133.098 20.423 132.982 20.2683C132.866 20.1136 132.711 19.9782 132.518 19.8815C132.324 19.7848 132.112 19.7268 131.86 19.7268C131.686 19.7268 131.512 19.7461 131.338 19.8042C131.164 19.8622 130.99 19.9202 130.835 20.0169C130.68 20.1136 130.526 20.2103 130.371 20.3263C130.216 20.4424 130.1 20.5584 130.004 20.6745C129.713 21.0032 129.462 21.332 129.269 21.6801C129.075 22.0283 128.901 22.3764 128.785 22.7245C128.669 23.0726 128.572 23.4401 128.514 23.8075C128.476 24.0783 128.456 24.3684 128.456 24.6585C128.418 24.6585 128.398 24.6778 128.36 24.6972C128.282 24.7359 128.205 24.7745 128.128 24.8132C128.05 24.8519 127.992 24.8906 127.934 24.9293C127.799 25.0066 127.644 25.084 127.47 25.1613C127.315 25.2387 127.122 25.2967 126.928 25.3741C126.735 25.4321 126.503 25.4901 126.271 25.5288C126.019 25.5675 125.749 25.5868 125.439 25.5868C125.227 25.5868 124.975 25.5481 124.724 25.4514C124.453 25.3741 124.202 25.258 123.931 25.1227C123.66 24.9873 123.409 24.8519 123.157 24.6972C122.906 24.5425 122.693 24.4071 122.5 24.291C122.577 24.1943 122.693 24.0783 122.809 23.9429C122.925 23.8075 123.08 23.6528 123.235 23.4981C123.389 23.3434 123.563 23.1693 123.737 23.0146C123.911 22.8599 124.085 22.6858 124.26 22.5311C124.414 22.3957 124.55 22.2603 124.704 22.125C124.859 21.9896 124.975 21.8542 125.091 21.7188C125.207 21.5834 125.285 21.4481 125.362 21.332C125.439 21.216 125.459 21.0999 125.459 21.0032C125.459 20.9259 125.439 20.8292 125.381 20.7518C125.323 20.6745 125.265 20.6164 125.188 20.5584C125.11 20.5004 125.033 20.4617 124.956 20.423C124.878 20.3844 124.801 20.3844 124.743 20.3844C124.608 20.3844 124.414 20.4617 124.202 20.6358C123.969 20.8098 123.737 21.0226 123.467 21.2933C123.196 21.5641 122.925 21.8735 122.635 22.2217C122.345 22.5698 122.055 22.9179 121.765 23.266C121.707 23.3434 121.61 23.4594 121.513 23.5948C121.397 23.7495 121.301 23.8849 121.184 24.059C121.068 24.233 120.952 24.3684 120.836 24.5231C120.72 24.6778 120.624 24.7939 120.566 24.8906C120.624 24.6585 120.682 24.3684 120.759 24.059C120.836 23.7302 120.933 23.4014 121.01 23.0533C121.107 22.7052 121.184 22.357 121.281 22.0089C121.378 21.6608 121.455 21.3514 121.533 21.0613C121.571 20.9065 121.629 20.7325 121.668 20.5197C121.707 20.307 121.765 20.0943 121.823 19.8622C121.881 19.6301 121.919 19.398 121.977 19.1659C122.035 18.9339 122.074 18.7211 122.113 18.5277C122.151 18.3343 122.19 18.1603 122.209 18.0249C122.229 17.8895 122.248 17.7928 122.248 17.7541C122.248 17.6187 122.248 17.5027 122.209 17.3867C122.19 17.2706 122.151 17.1739 122.093 17.0966C122.035 17.0192 121.977 16.9418 121.919 16.9032C121.842 16.8645 121.765 16.8258 121.668 16.8258C121.397 16.8258 121.204 16.8645 121.049 16.9612C120.894 17.0579 120.778 17.1546 120.701 17.2706C120.624 17.3867 120.566 17.522 120.546 17.6381C120.527 17.7541 120.508 17.8702 120.488 17.9282C120.488 18.0442 120.45 18.2183 120.411 18.4697C120.372 18.7211 120.314 18.9919 120.256 19.3013C120.198 19.6108 120.14 19.9395 120.082 20.2683C120.024 20.5971 119.947 20.9065 119.908 21.1966C119.85 21.4867 119.811 21.7188 119.773 21.9316C119.734 22.125 119.715 22.2603 119.695 22.299C119.599 22.7052 119.521 23.1113 119.425 23.5561C119.328 24.0009 119.25 24.4264 119.173 24.8519C119.096 25.2774 119.038 25.6835 118.98 26.051C118.922 26.4184 118.902 26.7666 118.902 27.0373C118.902 27.2694 118.922 27.4628 118.98 27.6175C119.038 27.7722 119.096 27.9076 119.192 28.0043C119.289 28.101 119.386 28.1784 119.502 28.2364C119.618 28.2944 119.734 28.3138 119.869 28.3138C119.947 28.3138 120.024 28.2944 120.082 28.2557C120.14 28.2171 120.198 28.159 120.237 28.0623C120.295 27.985 120.334 27.8883 120.372 27.7722C120.411 27.6562 120.45 27.5402 120.508 27.4048C120.566 27.2501 120.643 27.0953 120.72 26.9019C120.798 26.7085 120.914 26.5345 121.03 26.3411C121.146 26.167 121.262 25.9736 121.378 25.7996C121.494 25.6255 121.61 25.4514 121.707 25.3161C121.861 25.3934 122.016 25.4708 122.171 25.5675C122.326 25.6642 122.48 25.7609 122.654 25.8769C122.828 25.993 123.022 26.109 123.215 26.225C123.409 26.3411 123.621 26.4571 123.834 26.5538C124.047 26.6505 124.279 26.7279 124.511 26.7859C124.743 26.8439 124.994 26.8826 125.265 26.8826C125.613 26.8826 125.903 26.8633 126.194 26.8052C126.464 26.7472 126.716 26.6699 126.948 26.5732C127.18 26.4765 127.393 26.3798 127.586 26.2444C127.779 26.1283 127.973 25.993 128.166 25.8769C128.302 25.7802 128.418 25.6835 128.534 25.5868C128.534 25.5868 128.553 25.5675 128.572 25.5481C128.669 26.1477 128.843 26.6505 129.172 26.9793C129.636 27.4435 130.294 27.6755 131.106 27.6755C131.473 27.6755 131.86 27.6175 132.247 27.5015C132.634 27.3854 133.021 27.2307 133.407 27.0373C133.794 26.8439 134.181 26.5925 134.568 26.3217C134.955 26.051 135.303 25.7415 135.67 25.4321C136.018 25.1033 136.347 24.7745 136.656 24.4071C136.676 24.3877 136.695 24.3491 136.714 24.3297C136.676 24.5038 136.637 24.6778 136.598 24.8326C136.56 25.0453 136.521 25.2387 136.482 25.4321C136.444 25.6255 136.444 25.7996 136.444 25.9349C136.444 26.0703 136.444 26.225 136.444 26.3991C136.444 26.5732 136.463 26.7472 136.502 26.9213C136.54 27.0953 136.598 27.2694 136.676 27.4435C136.753 27.6175 136.869 27.7529 137.005 27.8883C137.14 28.0237 137.314 28.1204 137.527 28.1977C137.74 28.2751 137.991 28.3138 138.3 28.3138C138.61 28.3138 138.919 28.2557 139.209 28.1397C139.499 28.0237 139.751 27.8883 139.983 27.7336C140.215 27.5788 140.408 27.4241 140.582 27.2694C140.757 27.1147 140.873 26.9793 140.95 26.9019C141.124 26.7085 141.259 26.5151 141.375 26.3604C141.491 26.2057 141.549 26.0316 141.549 25.8189C141.549 25.7222 141.53 25.6448 141.472 25.5868C141.414 25.5288 141.317 25.4901 141.182 25.4901C141.085 25.4901 141.008 25.4901 140.911 25.5288C140.815 25.5675 140.757 25.6062 140.679 25.6448C140.602 25.6835 140.544 25.7415 140.466 25.7996C140.408 25.8576 140.35 25.9156 140.292 25.9736C140.138 26.1283 139.983 26.2831 139.828 26.3991C139.674 26.5151 139.519 26.6118 139.383 26.6892C139.248 26.7666 139.113 26.8246 138.997 26.8439C138.881 26.8826 138.784 26.9019 138.707 26.9019C138.59 26.9019 138.494 26.8633 138.436 26.7666C138.358 26.6892 138.3 26.5732 138.262 26.4571C138.223 26.3411 138.184 26.225 138.165 26.0897C138.165 25.9736 138.146 25.8576 138.146 25.7802C138.146 25.6835 138.146 25.5481 138.184 25.3547C138.223 25.1613 138.242 24.9873 138.3 24.7552C138.339 24.5425 138.397 24.3104 138.455 24.059C138.513 23.8269 138.571 23.5755 138.61 23.3434C138.648 23.1113 138.726 22.8986 138.765 22.7052C138.823 22.5118 138.861 22.3377 138.9 22.2023C138.9 22.2023 139.016 22.2023 139.209 22.1636C139.403 22.1443 139.635 22.1056 139.944 22.0669C140.254 22.0283 140.563 21.9896 140.931 21.9509C141.298 21.9122 141.666 21.8735 142.033 21.8542C142.13 21.8542 142.246 21.8349 142.362 21.8155C142.478 21.7962 142.594 21.7575 142.691 21.7188C142.787 21.6801 142.884 21.6028 142.942 21.5254C143.019 21.4481 143.039 21.3514 143.039 21.216C143.039 21.0999 143.039 21.0226 143 20.9452L142.961 21.158ZM130.313 22.9566C130.448 22.5891 130.603 22.2797 130.777 22.0089C130.951 21.7575 131.125 21.5448 131.319 21.4094C131.512 21.274 131.686 21.1966 131.841 21.1966C131.899 21.216 131.918 21.274 131.938 21.3707C131.957 21.4674 131.976 21.5641 131.976 21.6801C131.976 21.9316 131.918 22.1636 131.802 22.3957C131.686 22.6278 131.531 22.8405 131.338 23.0339C131.145 23.2273 130.932 23.4401 130.719 23.6141C130.506 23.7882 130.255 23.9816 130.023 24.1557C130.081 23.7108 130.178 23.3047 130.313 22.9372V22.9566Z" fill="#1D1D1B"/>
<path d="M21.0032 0C22.4344 0 23.8075 0.54152 24.8326 1.50852L30.6926 7.02042L36.7847 1.4505C37.8097 0.52218 39.1442 0 40.5173 0V15.472H34.1544V10.4629L30.2091 14.7951L26.3604 10.579V15.472H21.0032V0Z" fill="#1D1D1B"/>
<path d="M97.5316 0C99.6397 0 101.67 0.7736 103.237 2.18542L107.55 6.03408V0H113.004V15.472C110.141 15.472 107.376 14.3696 105.306 12.3776L102.966 10.1535V15.472H97.5316V0Z" fill="#1D1D1B"/>
<path d="M121.919 15.4913H115.885V0H121.919V15.472V15.4913Z" fill="#1D1D1B"/>
<path d="M122.886 15.472L130.835 1.10238C131.261 0.36746 132.092 0 132.905 0C133.717 0 134.548 0.34812 134.916 1.04436L142.942 15.472H135.554L134.935 13.9441H130.738L130.216 15.472H122.886ZM131.299 10.8691H134.432L132.905 6.6723L131.299 10.8691Z" fill="#1D1D1B"/>
<path d="M0 15.472L7.94874 1.10238C8.37422 0.36746 9.20584 0 10.0181 0C10.8304 0 11.662 0.34812 12.0295 1.04436L20.0556 15.472H12.6677L12.0488 13.9441H7.85204L7.32986 15.472H0ZM8.4129 10.8691H11.546L10.0181 6.6723L8.4129 10.8691Z" fill="#1D1D1B"/>
<path d="M41.465 15.472L49.4137 1.10238C49.8392 0.36746 50.6708 0 51.4831 0C52.2954 0 53.127 0.34812 53.4944 1.04436L61.5205 15.472H54.1327L53.5138 13.9441H49.317L48.7948 15.472H41.465ZM49.8972 10.8691H53.0303L51.5024 6.6723L49.8972 10.8691Z" fill="#1D1D1B"/>
<path d="M68.3862 4.69962H63.0484V0H78.1143C78.1143 2.45618 77.2633 4.835 75.6968 6.73032L72.1575 11.0431H78.1336V15.472H62.4682C62.4682 13.0545 63.3192 10.695 64.8857 8.83838L68.3862 4.68028V4.69962Z" fill="#1D1D1B"/>
<path d="M89.4669 3.55855C89.0027 4.02271 89.3508 4.66093 89.9504 5.26047C90.5499 5.86001 91.2461 6.16945 91.6523 5.74397C92.0584 5.31849 91.7683 4.64159 91.1688 4.04205C90.5692 3.44251 89.9117 3.11373 89.4669 3.55855Z" fill="white"/>
<path d="M94.708 11.3332C94.708 11.3332 94.7467 11.2559 94.766 11.2365C94.766 11.2752 94.7273 11.3139 94.708 11.3526V11.3332Z" fill="black"/>
<path d="M94.9401 4.50622C94.5146 3.53922 93.9151 2.72694 93.1608 2.06938C92.4065 1.41182 91.5169 0.88964 90.5112 0.54152C89.5055 0.1934 88.3258 0 86.9913 0C86.005 0 85.038 0.17406 84.0903 0.54152C84.4965 0.90898 85.4248 1.87598 85.4635 2.92034C85.5022 4.23546 86.3725 6.11144 87.7069 7.4459C89.0414 8.78036 90.6273 9.49594 92.1551 9.65066C93.4702 9.78604 94.4759 10.9078 94.7467 11.2172C95.2882 10.1922 95.5783 9.05112 95.5783 7.77468C95.5783 6.49824 95.3656 5.47322 94.9401 4.50622ZM91.6523 5.76332C91.2268 6.1888 90.5499 5.87936 89.9504 5.27982C89.3508 4.68028 89.022 4.02272 89.4669 3.5779C89.9117 3.13308 90.5692 3.46186 91.1688 4.0614C91.7683 4.66094 92.0778 5.35718 91.6523 5.76332Z" fill="black"/>
<path d="M92.1745 9.66999C90.6466 9.51527 89.0607 8.79969 87.7263 7.46523C86.3918 6.13077 85.5215 4.23545 85.4828 2.93967C85.4635 1.91465 84.5158 0.928312 84.1097 0.560852C83.8002 0.676892 83.4715 0.831612 83.162 0.986332C81.9243 1.64389 80.9379 2.55287 80.203 3.71327C79.4681 4.87367 79.1006 6.22747 79.1006 7.73599C79.1006 9.24451 79.5068 10.6177 80.2997 11.8361C80.6672 12.4163 81.112 12.9191 81.6148 13.3639C83.22 14.7758 85.1154 15.472 87.2814 15.472C88.7319 15.472 90.0857 15.1626 91.3622 14.5243C92.6386 13.8861 93.6636 12.9771 94.4179 11.8167C94.5339 11.6233 94.6306 11.4299 94.7273 11.2365C94.4759 10.9271 93.4509 9.80537 92.1358 9.66999H92.1745Z" fill="#EA0029"/>
</g>
<defs>
<clipPath id="clip0_12_20">
<rect width="143" height="28.8553" fill="white"/>
</clipPath>
</defs>
</svg>
