<svg width="64" height="60" viewBox="0 0 64 60" fill="none" xmlns="http://www.w3.org/2000/svg">
<path d="M40.0876 13.6391C38.2926 15.4182 39.6388 17.8645 41.9573 20.1625C44.2758 22.4605 46.9683 23.6465 48.5389 22.0157C50.1095 20.3848 48.9877 17.7903 46.6691 15.4923C44.3506 13.1944 41.8078 11.9342 40.0876 13.6391Z" fill="white"/>
<path d="M60.3557 43.439C60.3557 43.439 60.5065 43.1425 60.582 43.0684C60.582 43.2166 60.4311 43.3649 60.3557 43.5131V43.439Z" fill="black"/>
<path d="M61.2533 17.272C59.6079 13.5656 57.2894 10.4522 54.3726 7.93178C51.4558 5.4114 48.0154 3.40992 44.1263 2.07561C40.2372 0.741287 35.675 0 30.5145 0C26.7002 0 22.9606 0.667159 19.2959 2.07561C20.8665 3.48405 24.4564 7.19049 24.606 11.1934C24.7556 16.2342 28.1212 23.4247 33.2817 28.5396C38.4422 33.6545 44.5751 36.3972 50.4835 36.9902C55.5693 37.5091 59.4584 41.8086 60.5054 42.9947C62.5996 39.0659 63.7214 34.6923 63.7214 29.7998C63.7214 24.9073 62.8987 20.9784 61.2533 17.272ZM48.539 22.0904C46.8936 23.7212 44.2759 22.5351 41.9574 20.2372C39.6389 17.9392 38.3675 15.4188 40.0876 13.7138C41.8078 12.0089 44.3507 13.269 46.6692 15.567C48.9877 17.865 50.1843 20.5337 48.539 22.0904Z" fill="black"/>
<path d="M50.5583 37.0641C44.6499 36.471 38.5171 33.7283 33.3565 28.6134C28.196 23.4985 24.8304 16.2339 24.6808 11.2673C24.606 7.33843 20.9413 3.55786 19.3707 2.14941C18.1741 2.59419 16.9026 3.18722 15.706 3.78025C10.9194 6.30062 7.10509 9.78468 4.26305 14.2324C1.42102 18.6801 0 23.8691 0 29.6512C0 35.4332 1.57059 40.6964 4.637 45.3665C6.05802 47.5903 7.7782 49.5177 9.72275 51.2226C15.9304 56.634 23.2598 59.3027 31.6364 59.3027C37.2456 59.3027 42.481 58.1166 47.4171 55.6704C52.3533 53.2241 56.3172 49.7401 59.234 45.2923C59.6828 44.5511 60.0567 43.8098 60.4307 43.0685C59.4584 41.8824 55.4945 37.583 50.4087 37.0641H50.5583Z" fill="#EA0029"/>
</svg>
