<svg width="245" height="27" viewBox="0 0 245 27" fill="none" xmlns="http://www.w3.org/2000/svg">
<path d="M35.9171 0C38.3645 0 40.7127 0.926039 42.4655 2.57968L52.4866 12.0054L62.9045 2.48046C64.6574 0.892967 66.9394 0 69.2876 0V26.4583H58.4066V17.8924L51.6598 25.3007L45.0783 18.0908V26.4583H35.9171V0Z" fill="white"/>
<path d="M166.786 0C170.391 0 173.864 1.32291 176.543 3.73723L183.918 10.3187V0H193.245V26.4583C188.35 26.4583 183.62 24.5731 180.082 21.1666L176.08 17.3632V26.4583H166.786V0Z" fill="white"/>
<path d="M208.491 26.4913H198.172V0H208.491V26.4583V26.4913Z" fill="white"/>
<path d="M210.145 26.4583L223.738 1.88515C224.465 0.628384 225.887 0 227.277 0C228.666 0 230.088 0.595311 230.716 1.78593L244.441 26.4583H231.808L230.749 23.8455H223.572L222.679 26.4583H210.145ZM224.531 18.5869H229.889L227.277 11.4101L224.531 18.5869Z" fill="white"/>
<path d="M0 26.4583L13.5929 1.88515C14.3205 0.628384 15.7427 0 17.1317 0C18.5208 0 19.9429 0.595311 20.5713 1.78593L34.2965 26.4583H21.6627L20.6044 23.8455H13.4276L12.5346 26.4583H0ZM14.3867 18.5869H19.7445L17.1317 11.4101L14.3867 18.5869Z" fill="white"/>
<path d="M70.9082 26.4583L84.5011 1.88515C85.2287 0.628384 86.6508 0 88.0399 0C89.4289 0 90.8511 0.595311 91.4795 1.78593L105.205 26.4583H92.5709L91.5125 23.8455H84.3357L83.4428 26.4583H70.9082ZM85.3279 18.5869H90.6857L88.073 11.4101L85.3279 18.5869Z" fill="white"/>
<path d="M116.946 8.0367H107.817V0H133.581C133.581 4.20025 132.126 8.26821 129.447 11.5093L123.395 18.8846H133.614V26.4583H106.825C106.825 22.3242 108.28 18.2893 110.959 15.1143L116.946 8.00363V8.0367Z" fill="white"/>
<path d="M152.995 6.08494C152.201 6.87869 152.797 7.97009 153.822 8.99535C154.847 10.0206 156.038 10.5498 156.732 9.82217C157.427 9.09457 156.931 7.93702 155.905 6.91176C154.88 5.8865 153.756 5.32426 152.995 6.08494Z" fill="white"/>
<path d="M161.958 19.3802C161.958 19.3802 162.024 19.2479 162.057 19.2148C162.057 19.281 161.991 19.3471 161.958 19.4133V19.3802Z" fill="black"/>
<path d="M162.355 7.70597C161.627 6.05233 160.602 4.66327 159.312 3.53879C158.022 2.41432 156.501 1.52135 154.781 0.92604C153.061 0.330728 151.044 0 148.762 0C147.075 0 145.421 0.297656 143.801 0.92604C144.495 1.55442 146.083 3.20807 146.149 4.994C146.215 7.24295 147.703 10.451 149.985 12.733C152.267 15.0151 154.979 16.2388 157.592 16.5033C159.841 16.7349 161.561 18.6531 162.024 19.1822C162.95 17.4294 163.446 15.4781 163.446 13.2953C163.446 11.1125 163.082 9.35961 162.355 7.70597ZM156.732 9.85571C156.005 10.5833 154.847 10.0541 153.822 9.02888C152.796 8.00363 152.234 6.87915 152.995 6.11848C153.756 5.3578 154.88 5.92004 155.905 6.9453C156.931 7.97055 157.46 9.16118 156.732 9.85571Z" fill="black"/>
<path d="M157.625 16.5368C155.012 16.2722 152.3 15.0485 150.018 12.7665C147.736 10.4845 146.248 7.24331 146.182 5.02743C146.149 3.27457 144.528 1.58786 143.834 0.959473C143.305 1.15791 142.742 1.42249 142.213 1.68708C140.097 2.81155 138.41 4.36597 137.153 6.35035C135.896 8.33472 135.268 10.6498 135.268 13.2295C135.268 15.8092 135.962 18.1573 137.318 20.2409C137.947 21.2331 138.707 22.093 139.567 22.8537C142.312 25.268 145.554 26.4586 149.258 26.4586C151.738 26.4586 154.053 25.9295 156.236 24.8381C158.419 23.7467 160.172 22.1922 161.462 20.2079C161.66 19.8771 161.825 19.5464 161.991 19.2157C161.561 18.6865 159.808 16.7683 157.559 16.5368H157.625Z" fill="#EA0029"/>
</svg>
