<svg width="187" height="21" viewBox="0 0 187 21" fill="none" xmlns="http://www.w3.org/2000/svg">
<g clip-path="url(#clip0_150_193)">
<path d="M7.89014 0.595459C9.31844 0.595459 10.5911 0.793446 11.7053 1.19091C12.8195 1.58837 13.7604 2.13172 14.5237 2.82393C15.2885 3.51614 15.8698 4.32595 16.2706 5.25336C16.6713 6.18077 16.871 7.17517 16.871 8.23656C16.871 8.95705 16.7638 9.64182 16.5495 10.2923C16.3352 10.9429 16.0445 11.5502 15.6761 12.1129C15.3076 12.6756 14.8731 13.1833 14.3725 13.6358C13.872 14.0883 13.3347 14.4754 12.7622 14.7984C12.1882 15.1214 11.5923 15.37 10.9743 15.5457C10.3548 15.7214 9.7368 15.8092 9.11733 15.8092H7.62885L6.6057 12.4866V20.5162H0V0.595459H7.89014ZM7.65821 10.3683C9.09531 10.3683 9.8146 9.70881 9.8146 8.3884C9.8146 7.15135 9.09091 6.53358 7.64353 6.53358H6.6057V10.3683H7.65674H7.65821Z" fill="#C5D328"/>
<path d="M20.4072 21C19.8978 21 19.4237 20.9122 18.9877 20.7365C18.5503 20.5609 18.173 20.3138 17.8545 19.9952C17.5359 19.6766 17.2878 19.2956 17.1102 18.8534C16.9326 18.4098 16.8445 17.926 16.8445 17.4005C16.8445 16.8751 16.9311 16.4091 17.1044 15.9744C17.2776 15.5413 17.5212 15.1631 17.8354 14.8386C18.1495 14.5156 18.5253 14.264 18.9613 14.0839C19.3987 13.9038 19.8802 13.8145 20.4087 13.8145C20.9371 13.8145 21.3863 13.9067 21.8149 14.0913C22.2421 14.2759 22.6135 14.5305 22.9276 14.852C23.2418 15.1751 23.4869 15.5532 23.6645 15.9864C23.8422 16.421 23.9302 16.8914 23.9302 17.3991C23.9302 17.9067 23.8422 18.4069 23.6645 18.846C23.4869 19.2851 23.2418 19.6632 22.9276 19.9818C22.6135 20.3004 22.2421 20.549 21.8149 20.7291C21.3878 20.9092 20.918 20.9985 20.4087 20.9985L20.4072 21Z" fill="#186DB5"/>
<path d="M41.3752 0.595459L44.6516 9.59418L45.1022 11.2004L45.5118 9.59418L48.8014 0.595459H56.8149V20.5162H50.2356V15.0753L50.4954 10.1331L47.6873 18.3979H42.5069L39.712 10.1331L39.9718 15.0887V20.5147H33.3647V0.595459H41.3781H41.3752Z" fill="#EC6231"/>
<path d="M67.4897 5.66125C68.7183 5.66125 69.7253 5.83691 70.5136 6.18674C71.3004 6.53805 71.9214 7.00399 72.3764 7.58456C72.8315 8.16661 73.1471 8.83798 73.3247 9.59866C73.5023 10.3593 73.5904 11.1513 73.5904 11.973V20.5147H69.809L68.7448 18.0645C68.3631 18.4619 67.9624 18.8311 67.544 19.172C67.1256 19.5129 66.6838 19.8091 66.2199 20.0577C65.756 20.3063 65.2687 20.5013 64.7593 20.6398C64.25 20.7782 63.7127 20.8482 63.149 20.8482C62.5853 20.8482 62.0436 20.7648 61.5519 20.5996C61.0601 20.4329 60.633 20.1932 60.2689 19.8791C59.9049 19.565 59.6201 19.1794 59.4161 18.7239C59.2105 18.2669 59.1093 17.7429 59.1093 17.1534C59.1093 16.3779 59.2957 15.6901 59.6685 15.0902C60.0414 14.4903 60.5757 13.9707 61.273 13.5331C61.9688 13.0954 62.8172 12.7322 63.8184 12.4464C64.8195 12.1606 65.9484 11.9432 67.2034 11.7959C67.2034 11.6574 67.1946 11.5175 67.1755 11.3731C67.1579 11.2302 67.1051 11.1037 67.0185 10.992C66.9319 10.8819 66.7983 10.791 66.6163 10.7226C66.4342 10.6526 66.1744 10.6184 65.8383 10.6184C65.4375 10.6184 65.0353 10.6556 64.6301 10.7285C64.225 10.803 63.8287 10.8967 63.4426 11.0129C63.0551 11.129 62.6822 11.26 62.324 11.4073C61.9644 11.5547 61.6253 11.7021 61.3067 11.8509L59.7772 7.72598C60.1955 7.50417 60.6946 7.27194 61.2715 7.02632C61.8499 6.78219 62.4752 6.56038 63.149 6.3624C63.8228 6.16441 64.5274 5.99768 65.2643 5.86371C66.0012 5.72973 66.7425 5.66274 67.4897 5.66274V5.66125ZM64.6639 15.5323C64.6639 15.8181 64.7593 16.031 64.9502 16.1694C65.141 16.3079 65.4008 16.3778 65.7282 16.3778C65.9733 16.3778 66.2214 16.3347 66.4724 16.2469C66.722 16.159 66.9656 16.0414 67.202 15.894V14.0943C66.3917 14.1687 65.7663 14.3295 65.3245 14.5781C64.8826 14.8267 64.6624 15.1453 64.6624 15.5338L64.6639 15.5323Z" fill="#37914A"/>
<path d="M76.2533 0H82.6417V20.5147H76.2533V0Z" fill="#ED6C7C"/>
<path d="M100.141 0L100.128 15.0202V20.5162H96.3463L95.3364 18.2044C94.7536 19.0172 94.1209 19.6632 93.4384 20.1426C92.7558 20.6219 92.0056 20.863 91.1865 20.863C90.2309 20.863 89.3546 20.6829 88.5589 20.3227C87.7633 19.9624 87.0749 19.4384 86.498 18.7522C85.9196 18.0644 85.4689 17.2249 85.146 16.2334C84.823 15.242 84.6616 14.1136 84.6616 12.8483C84.6616 11.7318 84.8025 10.73 85.0843 9.84426C85.3662 8.95853 85.7596 8.20678 86.2646 7.58751C86.7695 6.96973 87.3787 6.49337 88.0936 6.16141C88.8085 5.82945 89.5924 5.66272 90.4482 5.66272C91.0941 5.66272 91.69 5.75501 92.2361 5.9396C92.7822 6.12419 93.2827 6.37726 93.7378 6.70029V0H100.139H100.141ZM90.9825 13.3306C90.9825 14.1151 91.0808 14.7106 91.2761 15.117C91.4713 15.5234 91.8016 15.7258 92.2655 15.7258C92.4842 15.7258 92.7235 15.6618 92.9818 15.5323C93.2416 15.4028 93.4941 15.2465 93.7393 15.0619V11.836C93.5029 11.513 93.2519 11.2808 92.9892 11.1364C92.7249 10.9935 92.4475 10.922 92.1568 10.922C91.9205 10.922 91.7238 10.9771 91.5697 11.0887C91.4155 11.1989 91.2937 11.3582 91.2086 11.5666C91.122 11.775 91.0632 12.0281 91.0309 12.3273C90.9986 12.628 90.9825 12.9614 90.9825 13.3306Z" fill="#C5D328"/>
<path d="M110.032 20.8481C108.959 20.8481 107.944 20.6561 106.99 20.2735C106.036 19.8909 105.201 19.3595 104.487 18.6822C103.774 18.0034 103.207 17.204 102.789 16.281C102.371 15.3581 102.162 14.3518 102.162 13.2636C102.162 12.1754 102.371 11.1661 102.789 10.2387C103.207 9.31131 103.774 8.50894 104.487 7.83013C105.201 7.15132 106.036 6.62137 106.99 6.23879C107.944 5.85622 108.959 5.66418 110.032 5.66418C111.105 5.66418 112.119 5.85622 113.073 6.23879C114.028 6.62137 114.864 7.15281 115.582 7.83013C116.3 8.50894 116.871 9.31131 117.294 10.2387C117.716 11.1661 117.928 12.1739 117.928 13.2636C117.928 14.3533 117.716 15.3581 117.294 16.281C116.871 17.204 116.3 18.0049 115.582 18.6822C114.864 19.361 114.028 19.8909 113.073 20.2735C112.119 20.6561 111.105 20.8481 110.032 20.8481ZM110.066 15.7392C110.593 15.7392 110.977 15.5293 111.219 15.108C111.46 14.6867 111.581 14.0734 111.581 13.2681C111.581 12.3987 111.46 11.7646 111.219 11.3671C110.979 10.9696 110.585 10.7702 110.039 10.7702C109.493 10.7702 109.125 10.9667 108.88 11.3597C108.634 11.7527 108.511 12.3898 108.511 13.2681C108.511 14.0541 108.636 14.6629 108.887 15.0931C109.136 15.5233 109.53 15.7392 110.067 15.7392H110.066Z" fill="#186DB5"/>
<path d="M130.664 5.6344C131.701 5.6344 132.531 5.80261 133.155 6.13904C133.779 6.47547 134.26 6.91462 134.602 7.4535C134.943 7.99387 135.169 8.6042 135.277 9.28748C135.386 9.97076 135.442 10.6585 135.442 11.3507V20.5147H129.053V12.7351C129.053 12.2558 128.959 11.8836 128.773 11.6202C128.587 11.3567 128.289 11.2257 127.879 11.2257C127.66 11.2257 127.417 11.2837 127.148 11.3983C126.879 11.5145 126.614 11.7794 126.349 12.1948V20.5147H119.961V5.99465H123.742L125.108 9.15053C125.753 7.99684 126.515 7.12302 127.395 6.52757C128.272 5.93212 129.363 5.6344 130.664 5.6344Z" fill="#FFD103"/>
<path d="M145.681 5.66125C146.909 5.66125 147.916 5.83691 148.705 6.18674C149.491 6.53805 150.112 7.00399 150.567 7.58456C151.022 8.16661 151.338 8.83798 151.516 9.59866C151.693 10.3593 151.781 11.1513 151.781 11.973V20.5147H148L146.936 18.0645C146.554 18.4619 146.153 18.8311 145.735 19.172C145.317 19.5129 144.875 19.8091 144.411 20.0577C143.947 20.3063 143.46 20.5013 142.95 20.6398C142.441 20.7782 141.904 20.8482 141.34 20.8482C140.776 20.8482 140.235 20.7648 139.743 20.5996C139.251 20.4329 138.824 20.1932 138.46 19.8791C138.096 19.565 137.811 19.1794 137.607 18.7239C137.401 18.2669 137.3 17.7429 137.3 17.1534C137.3 16.3779 137.487 15.6901 137.859 15.0902C138.232 14.4903 138.767 13.9707 139.464 13.5331C140.16 13.0954 141.008 12.7322 142.009 12.4464C143.01 12.1606 144.139 11.9432 145.394 11.7959C145.394 11.6574 145.386 11.5175 145.366 11.3731C145.349 11.2302 145.296 11.1037 145.209 10.992C145.123 10.8819 144.989 10.791 144.807 10.7226C144.625 10.6526 144.365 10.6184 144.029 10.6184C143.628 10.6184 143.226 10.6556 142.821 10.7285C142.416 10.803 142.02 10.8967 141.634 11.0129C141.246 11.129 140.873 11.26 140.515 11.4073C140.155 11.5547 139.816 11.7021 139.498 11.8509L137.968 7.72598C138.386 7.50417 138.886 7.27194 139.462 7.02632C140.041 6.78219 140.666 6.56038 141.34 6.3624C142.014 6.16441 142.718 5.99768 143.455 5.86371C144.192 5.72973 144.933 5.66274 145.681 5.66274V5.66125ZM142.855 15.5323C142.855 15.8181 142.95 16.031 143.141 16.1694C143.332 16.3079 143.592 16.3778 143.919 16.3778C144.164 16.3778 144.412 16.3347 144.663 16.2469C144.913 16.159 145.157 16.0414 145.393 15.894V14.0943C144.583 14.1687 143.957 14.3295 143.515 14.5781C143.074 14.8267 142.853 15.1453 142.853 15.5338L142.855 15.5323Z" fill="#D73C3A"/>
<path d="M169.215 0L169.201 15.0202V20.5162H165.42L164.41 18.2044C163.827 19.0172 163.195 19.6632 162.512 20.1426C161.829 20.6219 161.079 20.863 160.26 20.863C159.304 20.863 158.428 20.6829 157.633 20.3227C156.837 19.9624 156.148 19.4384 155.572 18.7522C154.993 18.0644 154.543 17.2249 154.22 16.2334C153.897 15.242 153.735 14.1136 153.735 12.8483C153.735 11.7318 153.876 10.73 154.158 9.84426C154.44 8.95853 154.833 8.20678 155.338 7.58751C155.843 6.96973 156.452 6.49337 157.167 6.16141C157.882 5.82945 158.666 5.66272 159.522 5.66272C160.168 5.66272 160.764 5.75501 161.31 5.9396C161.856 6.12419 162.356 6.37726 162.811 6.70029V0H169.213H169.215ZM160.055 13.3306C160.055 14.1151 160.153 14.7106 160.348 15.117C160.543 15.5234 160.874 15.7258 161.338 15.7258C161.556 15.7258 161.796 15.6618 162.054 15.5323C162.314 15.4028 162.566 15.2465 162.811 15.0619V11.836C162.575 11.513 162.324 11.2808 162.061 11.1364C161.797 10.9935 161.52 10.922 161.229 10.922C160.993 10.922 160.796 10.9771 160.642 11.0887C160.488 11.1989 160.366 11.3582 160.281 11.5666C160.194 11.775 160.135 12.0281 160.103 12.3273C160.071 12.628 160.055 12.9614 160.055 13.3306Z" fill="#EC6231"/>
<path d="M179.104 20.8481C178.031 20.8481 177.017 20.6561 176.062 20.2735C175.108 19.8909 174.273 19.3595 173.56 18.6822C172.846 18.0034 172.28 17.204 171.861 16.281C171.443 15.3581 171.234 14.3518 171.234 13.2636C171.234 12.1754 171.443 11.1661 171.861 10.2387C172.28 9.31131 172.846 8.50894 173.56 7.83013C174.273 7.15132 175.108 6.62137 176.062 6.23879C177.017 5.85622 178.031 5.66418 179.104 5.66418C180.177 5.66418 181.191 5.85622 182.146 6.23879C183.1 6.62137 183.936 7.15281 184.654 7.83013C185.372 8.50894 185.943 9.31131 186.366 10.2387C186.789 11.1661 187 12.1739 187 13.2636C187 14.3533 186.789 15.3581 186.366 16.281C185.943 17.204 185.372 18.0049 184.654 18.6822C183.936 19.361 183.1 19.8909 182.146 20.2735C181.191 20.6561 180.177 20.8481 179.104 20.8481ZM179.138 15.7392C179.665 15.7392 180.049 15.5293 180.292 15.108C180.532 14.6867 180.653 14.0734 180.653 13.2681C180.653 12.3987 180.532 11.7646 180.292 11.3671C180.051 10.9696 179.657 10.7702 179.111 10.7702C178.565 10.7702 178.197 10.9667 177.952 11.3597C177.706 11.7527 177.583 12.3898 177.583 13.2681C177.583 14.0541 177.708 14.6629 177.959 15.0931C178.209 15.5233 178.602 15.7392 179.139 15.7392H179.138Z" fill="#534778"/>
</g>
<defs>
<clipPath id="clip0_150_193">
<rect width="187" height="21" fill="white"/>
</clipPath>
</defs>
</svg>
