<svg width="22" height="22" viewBox="0 0 22 22" fill="none" xmlns="http://www.w3.org/2000/svg">
<path d="M19.2473 10.3342H19.1636V5.24891C19.1636 4.60073 18.9112 3.99138 18.4529 3.53308L15.6306 0.710749C15.1722 0.252399 14.5628 0 13.9147 0H5.26293C3.92488 0 2.83635 1.08853 2.83635 2.42658V10.3342H2.75256C1.85485 10.3342 1.12451 11.0645 1.12451 11.9622V17.3703C1.12451 18.268 1.85485 18.9983 2.75256 18.9983H2.83631V19.5734C2.83631 20.9114 3.92484 21.9999 5.26289 21.9999H16.7371C18.0751 21.9999 19.1636 20.9114 19.1636 19.5734V18.9983H19.2473C20.145 18.9983 20.8754 18.268 20.8754 17.3703V11.9623C20.8754 11.0645 20.1451 10.3342 19.2473 10.3342ZM15.2543 2.15713L17.1354 4.03818H15.3984C15.319 4.03818 15.2543 3.97351 15.2543 3.8941V2.15713ZM4.12507 2.42658C4.12507 1.79915 4.63546 1.28877 5.26289 1.28877H13.9147C13.9317 1.28877 13.9486 1.28928 13.9656 1.29001V3.89406C13.9656 4.68417 14.6084 5.3269 15.3984 5.3269H17.8748V10.3342H4.12507V2.42658ZM17.8748 19.5735C17.8748 20.2009 17.3644 20.7113 16.7371 20.7113H5.26289C4.6355 20.7113 4.12507 20.2009 4.12507 19.5735V18.9985H17.8748V19.5735H17.8748ZM19.5867 17.3704C19.5867 17.5574 19.4345 17.7096 19.2473 17.7096H18.5197C18.5195 17.7096 18.5194 17.7096 18.5192 17.7096C18.5191 17.7096 18.519 17.7096 18.5188 17.7096H3.48071H3.48028H2.75256C2.56547 17.7096 2.41324 17.5574 2.41324 17.3704V11.9623C2.41324 11.7752 2.56543 11.623 2.75252 11.623H19.2473C19.4344 11.623 19.5867 11.7752 19.5867 11.9623L19.5867 17.3704Z" fill="white"/>
<path d="M8.72868 12.6302C8.44401 12.3852 8.06537 12.2627 7.5931 12.2627H6.22244C6.10762 12.2627 6.0149 12.2936 5.9443 12.3554C5.87361 12.4173 5.83838 12.4901 5.83838 12.5739V16.7853C5.83838 16.8868 5.88908 16.9652 5.99066 17.0203C6.09211 17.0756 6.21354 17.1031 6.35487 17.1031C6.49606 17.1031 6.61745 17.0756 6.71903 17.0203C6.82052 16.9652 6.87131 16.8869 6.87131 16.7853V15.355H7.52684C8.01682 15.355 8.4108 15.2304 8.70879 14.981C9.00678 14.7316 9.15575 14.3442 9.15575 13.8189V13.7857C9.15579 13.2604 9.0134 12.8752 8.72868 12.6302ZM8.12282 13.8983C8.12282 14.3398 7.92413 14.5604 7.52684 14.5604H6.87135V13.1633H7.52689C7.92418 13.1633 8.12286 13.3841 8.12286 13.8254L8.12282 13.8983Z" fill="white"/>
<path d="M12.4135 12.6401C12.1177 12.3885 11.7226 12.2627 11.2282 12.2627H10.0562C9.9238 12.2627 9.81556 12.2936 9.73177 12.3554C9.64785 12.4173 9.60596 12.4901 9.60596 12.5739V16.7918C9.60596 16.8758 9.64789 16.9486 9.73177 17.0104C9.8156 17.0722 9.9238 17.1031 10.0562 17.1031H11.2282C11.7226 17.1031 12.1177 16.9772 12.4135 16.7256C12.7092 16.474 12.8572 16.079 12.8572 15.5404V13.8254C12.8571 13.2869 12.7091 12.8918 12.4135 12.6401ZM11.8241 15.5404C11.8241 15.9819 11.6255 16.2026 11.2282 16.2026H10.6389V13.1633H11.2282C11.6255 13.1633 11.8241 13.3841 11.8241 13.8255V15.5404Z" fill="white"/>
<path d="M16.4923 12.3951C16.4394 12.3069 16.3621 12.2628 16.2606 12.2628H13.9629C13.8393 12.2628 13.7333 12.2904 13.6451 12.3456C13.5567 12.4008 13.5127 12.4791 13.5127 12.5806V16.7853C13.5127 16.8869 13.5634 16.9652 13.665 17.0204C13.7664 17.0757 13.8879 17.1032 14.0292 17.1032C14.1704 17.1032 14.2918 17.0757 14.3933 17.0204C14.4948 16.9652 14.5456 16.8869 14.5456 16.7853V15.0769H15.5455C15.647 15.0769 15.7243 15.0372 15.7772 14.9578C15.8302 14.8783 15.8567 14.7879 15.8567 14.6862C15.8567 14.576 15.8291 14.481 15.7739 14.4015C15.7187 14.322 15.6425 14.2823 15.5455 14.2823H14.5456V13.1633H16.2606C16.3576 13.1633 16.4338 13.1192 16.489 13.0309C16.5442 12.9426 16.5718 12.8345 16.5718 12.7064C16.5718 12.5872 16.5453 12.4835 16.4923 12.3951Z" fill="white"/>
</svg>
