<svg width="28" height="28" viewBox="0 0 28 28" fill="none" xmlns="http://www.w3.org/2000/svg">
<g clip-path="url(#clip0_490_24)">
<path d="M27.0248 21.1149V16.7658C27.0248 16.2662 26.9037 15.7693 26.6744 15.3288C26.5698 15.1278 26.3219 15.0498 26.1212 15.1543C25.9203 15.2588 25.8421 15.5065 25.9467 15.7074C26.1178 16.0362 26.2046 16.3923 26.2046 16.7659V21.108H19.5664V16.7659C19.5664 15.4999 20.5963 14.47 21.8623 14.47H23.9086C24.2069 14.47 24.4968 14.5261 24.7702 14.637C24.9803 14.7221 25.2193 14.6209 25.3045 14.411C25.3896 14.201 25.2883 13.9619 25.0784 13.8767C24.7066 13.7261 24.3131 13.6497 23.9086 13.6497H21.8623C20.144 13.6497 18.7461 15.0476 18.7461 16.7659V21.1149C18.6368 21.1285 18.5343 21.1637 18.4427 21.2163C18.3512 21.1637 18.2487 21.1285 18.1393 21.1149V16.7659C18.1393 15.0476 16.7414 13.6497 15.0232 13.6497H12.9768C11.2585 13.6497 9.86062 15.0476 9.86062 16.7659V21.1149C9.7513 21.1285 9.64876 21.1637 9.55721 21.2163C9.46567 21.1637 9.36318 21.1285 9.25386 21.1149V16.7659C9.25386 15.0476 7.85589 13.6497 6.13766 13.6497H4.09131C2.37303 13.6497 0.975159 15.0476 0.975159 16.7659V21.1149C0.573644 21.1647 0.261597 21.5074 0.261597 21.9221V23.1607C0.261597 23.6096 0.6268 23.9748 1.07567 23.9748H1.7964C2.02297 23.9748 2.20656 23.7912 2.20656 23.5646C2.20656 23.338 2.02297 23.1545 1.7964 23.1545H1.08185V21.9284H9.14706V23.1545H5.77557C5.0129 23.1545 4.48894 23.1545 3.71041 23.1545C3.48384 23.1545 3.30025 23.338 3.30025 23.5646C3.30025 23.7912 3.48384 23.9748 3.71041 23.9748H4.04324V25.8575H2.91088C2.3202 25.8575 1.83966 26.338 1.83966 26.9288C1.83966 27.5194 2.3202 28 2.91088 28H7.31809C7.90877 28 8.38931 27.5194 8.38931 26.9288C8.38931 26.338 7.90877 25.8575 7.31809 25.8575H6.18568V23.9748H9.15335C9.30035 23.9748 9.43805 23.935 9.55721 23.8665C9.67638 23.935 9.81408 23.9748 9.96114 23.9748H12.9288V25.8575H11.7964C11.2057 25.8575 10.7252 26.338 10.7252 26.9288C10.7252 27.5194 11.2057 28 11.7964 28H16.2036C16.7943 28 17.2749 27.5194 17.2749 26.9288C17.2749 26.338 16.7943 25.8575 16.2036 25.8575H15.0712V23.9748H18.0389C18.186 23.9748 18.3236 23.935 18.4428 23.8665C18.562 23.935 18.6997 23.9748 18.8467 23.9748H21.8144V25.8575H20.682C20.0913 25.8575 19.6108 26.338 19.6108 26.9288C19.6108 27.5194 20.0913 28 20.682 28H25.0892C25.6799 28 26.1604 27.5194 26.1604 26.9288C26.1604 26.338 25.6799 25.8575 25.0892 25.8575H23.9569V23.9748H26.9245C27.3734 23.9748 27.7386 23.6096 27.7386 23.1607V21.9221C27.7384 21.5073 27.4264 21.1647 27.0248 21.1149ZM10.6809 16.7658C10.6809 15.4998 11.7109 14.4699 12.9768 14.4699H15.0232C16.2891 14.4699 17.319 15.4998 17.319 16.7658V21.108H10.6809V16.7658ZM1.79542 21.108V16.7659C1.79542 15.4999 2.82535 14.47 4.09125 14.47H6.1376C7.40357 14.47 8.4335 15.4999 8.4335 16.7659V21.108H1.79542ZM7.56894 26.9287C7.56894 27.067 7.45634 27.1796 7.31803 27.1796H2.91088C2.77257 27.1796 2.65997 27.067 2.65997 26.9287C2.65997 26.7904 2.77257 26.6778 2.91088 26.6778H7.31809C7.45639 26.6778 7.56894 26.7904 7.56894 26.9287ZM5.36536 25.8574H4.8635V23.9747H5.36536V25.8574ZM9.96737 23.1607C9.96737 23.1607 9.96737 23.1607 9.96737 23.1607V23.1607ZM9.96737 21.9284H18.0326V23.1545C17.6398 23.1545 10.3438 23.1545 9.96737 23.1545V21.9284ZM16.4545 26.9287C16.4545 27.067 16.3419 27.1796 16.2036 27.1796H11.7964C11.658 27.1796 11.5454 27.067 11.5454 26.9287C11.5454 26.7904 11.658 26.6778 11.7964 26.6778H16.2036C16.3419 26.6778 16.4545 26.7904 16.4545 26.9287ZM14.2509 25.8574H13.7491V23.9747H14.2509V25.8574ZM18.8529 23.1607C18.8529 23.1607 18.8529 23.1607 18.8529 23.1607V23.1607ZM25.34 26.9287C25.34 27.067 25.2274 27.1796 25.0891 27.1796H20.6819C20.5436 27.1796 20.4309 27.067 20.4309 26.9287C20.4309 26.7904 20.5436 26.6778 20.6819 26.6778H25.0891C25.2274 26.6778 25.34 26.7904 25.34 26.9287ZM23.1364 25.8574H22.6345V23.9747H23.1364V25.8574ZM26.9181 23.1544C26.5417 23.1544 19.246 23.1544 18.8529 23.1544V21.9283H26.9181V23.1544Z" fill="white"/>
<path d="M14 6.56611H15.6918C15.9184 6.56611 16.102 6.38252 16.102 6.15595C16.102 5.92938 15.9184 5.7458 15.6918 5.7458H14.4102V3.96167C14.4102 3.7351 14.2266 3.55151 14 3.55151C13.7734 3.55151 13.5898 3.7351 13.5898 3.96167V6.15595C13.5898 6.38252 13.7734 6.56611 14 6.56611Z" fill="white"/>
<path d="M14 12.3119C17.3943 12.3119 20.1559 9.5503 20.1559 6.15595C20.1559 2.76161 17.3943 0 14 0C10.6056 0 7.84406 2.76155 7.84406 6.1559C7.84406 9.55024 10.6056 12.3119 14 12.3119ZM14 0.820312C16.942 0.820312 19.3355 3.21387 19.3355 6.1559C19.3355 9.09792 16.942 11.4915 14 11.4915C11.0579 11.4915 8.66437 9.09798 8.66437 6.15595C8.66437 3.21393 11.0579 0.820312 14 0.820312Z" fill="white"/>
<path d="M14 10.8473C16.5868 10.8473 18.6913 8.74285 18.6913 6.15602C18.6913 3.56919 16.5868 1.4646 14 1.4646C11.4131 1.4646 9.30865 3.56914 9.30865 6.15597C9.30865 8.74279 11.4131 10.8473 14 10.8473ZM13.5865 2.30728V2.65236C13.5865 2.87893 13.7701 3.06251 13.9967 3.06251C14.2233 3.06251 14.4068 2.87893 14.4068 2.65236V2.30646C16.2094 2.49562 17.6469 3.92696 17.8466 5.72645H17.4889C17.2623 5.72645 17.0787 5.91004 17.0787 6.13661C17.0787 6.36318 17.2623 6.54676 17.4889 6.54676H17.8513C17.6684 8.36337 16.2241 9.81314 14.4101 10.0051V9.62551C14.4101 9.39893 14.2265 9.21535 14 9.21535C13.7734 9.21535 13.5898 9.39893 13.5898 9.62551V10.0051C11.7758 9.81314 10.3316 8.36337 10.1487 6.54676H10.5111C10.7376 6.54676 10.9212 6.36318 10.9212 6.13661C10.9212 5.91004 10.7376 5.72645 10.5111 5.72645H10.1534C10.3527 3.92915 11.7871 2.49923 13.5865 2.30728Z" fill="white"/>
</g>
<defs>
<clipPath id="clip0_490_24">
<rect width="28" height="28" fill="white"/>
</clipPath>
</defs>
</svg>
