<svg width="117" height="25" viewBox="0 0 117 25" fill="none" xmlns="http://www.w3.org/2000/svg">
<g clip-path="url(#clip0_150_225)">
<path d="M7.8764 0.563599C9.30221 0.563599 10.5727 0.750996 11.6849 1.1272C12.7971 1.50341 13.7364 2.01769 14.4984 2.67288C15.2619 3.32807 15.8422 4.09457 16.2422 4.97238C16.6423 5.85019 16.8416 6.79141 16.8416 7.79603C16.8416 8.47799 16.7346 9.12613 16.5206 9.74187C16.3067 10.3576 16.0166 10.9325 15.6487 11.4651C15.2809 11.9977 14.8472 12.4782 14.3475 12.9065C13.8478 13.3348 13.3115 13.7012 12.74 14.0069C12.167 14.3127 11.5721 14.548 10.9552 14.7143C10.3368 14.8805 9.71984 14.9636 9.10145 14.9636H7.61556L6.59419 11.8187V19.4189H0V0.563599H7.8764ZM7.64487 9.81373C9.07947 9.81373 9.7975 9.18954 9.7975 7.93975C9.7975 6.76886 9.07507 6.18412 7.63021 6.18412H6.59419V9.81373H7.6434H7.64487Z" fill="#FFD103"/>
<path d="M33.7125 5.67403V19.4189H29.9377L28.5749 16.4445C28.3023 16.9418 27.9799 17.3941 27.6077 17.7999C27.2355 18.2057 26.812 18.5538 26.3402 18.8412C25.8683 19.13 25.3452 19.3527 24.7737 19.5091C24.2007 19.6669 23.575 19.7444 22.8936 19.7444C21.9675 19.7444 21.204 19.6049 20.6047 19.3245C20.0053 19.0441 19.532 18.6622 19.1877 18.1775C18.8418 17.6928 18.6015 17.118 18.4652 16.4543C18.3289 15.7907 18.2601 15.0791 18.2601 14.3183V5.6698H24.6374V13.0206C24.6374 13.4306 24.7209 13.7744 24.8894 14.0492C25.058 14.3239 25.3686 14.462 25.8229 14.462C26.0412 14.462 26.2845 14.407 26.5512 14.2986C26.8193 14.1901 27.0802 13.9336 27.3351 13.5321V5.6698H33.7125V5.67403Z" fill="#ED6C7C"/>
<path d="M43.1436 19.7332C42.1252 19.7332 41.1654 19.5937 40.2642 19.3133C39.363 19.0329 38.576 18.6102 37.902 18.0424C37.2279 17.4745 36.6974 16.7517 36.3106 15.8739C35.9237 14.9961 35.7303 13.9633 35.7303 12.7755C35.7303 11.6835 35.9354 10.6817 36.3443 9.76868C36.7531 8.85565 37.3246 8.07224 38.0588 7.41705C38.7915 6.76186 39.6663 6.25039 40.6803 5.88405C41.6958 5.51771 42.811 5.33313 44.0287 5.33313C44.9372 5.33313 45.7666 5.41767 46.5154 5.58816C47.2643 5.75865 48.0072 5.99255 48.7428 6.28985L47.2716 10.9156C46.7997 10.6451 46.3088 10.4521 45.8003 10.3393C45.2919 10.2266 44.7731 10.1688 44.2471 10.1688C43.447 10.1688 42.8843 10.3788 42.5575 10.8001C42.2307 11.22 42.0666 11.8329 42.0666 12.6388C42.0666 12.9023 42.0959 13.1672 42.1545 13.4335C42.2131 13.7012 42.3186 13.9408 42.4681 14.1563C42.6176 14.3705 42.8242 14.548 43.0879 14.6889C43.3517 14.8298 43.6829 14.8989 44.0829 14.8989C44.7277 14.8989 45.3256 14.7678 45.8751 14.5058C46.4246 14.2437 47.0034 13.9112 47.613 13.5096L49.9019 16.8842C49.5927 17.2322 49.2088 17.5774 48.7501 17.917C48.2915 18.2565 47.7727 18.5623 47.1968 18.8314C46.6195 19.1019 45.9879 19.3189 45.3021 19.4852C44.6163 19.65 43.8968 19.7332 43.1422 19.7332H43.1436Z" fill="#37914A"/>
<path d="M59.1001 5.3584C60.3266 5.3584 61.3319 5.52466 62.1188 5.85578C62.9042 6.1883 63.5241 6.62932 63.9783 7.17884C64.4326 7.72976 64.7476 8.36522 64.925 9.08522C65.1023 9.80522 65.1902 10.5548 65.1902 11.3326V19.4175H61.4154L60.353 17.0982C59.972 17.4744 59.5719 17.8239 59.1543 18.1465C58.7367 18.4692 58.2956 18.7496 57.8325 18.9849C57.3695 19.2202 56.883 19.4048 56.3745 19.5358C55.866 19.6669 55.3297 19.7331 54.767 19.7331C54.2043 19.7331 53.6635 19.6542 53.1726 19.4978C52.6817 19.34 52.2553 19.1131 51.8919 18.8158C51.5285 18.5185 51.2442 18.1536 51.0405 17.7224C50.8354 17.2899 50.7343 16.7939 50.7343 16.2359C50.7343 15.5018 50.9204 14.8509 51.2926 14.283C51.6648 13.7152 52.1982 13.2235 52.8942 12.8092C53.5888 12.395 54.4358 12.0512 55.4352 11.7807C56.4346 11.5101 57.5614 11.3044 58.8143 11.1649C58.8143 11.0339 58.8055 10.9014 58.7865 10.7648C58.7689 10.6295 58.7162 10.5097 58.6297 10.4041C58.5432 10.2998 58.4099 10.2138 58.2282 10.149C58.0465 10.0828 57.7871 10.0504 57.4515 10.0504C57.0515 10.0504 56.65 10.0856 56.2455 10.1547C55.8411 10.2251 55.4454 10.3139 55.06 10.4238C54.6732 10.5337 54.301 10.6577 53.9434 10.7972C53.5844 10.9367 53.2459 11.0761 52.9279 11.217L51.401 7.31269C51.8186 7.10275 52.3169 6.88294 52.8928 6.65046C53.4701 6.41938 54.0944 6.20944 54.767 6.02204C55.4396 5.83464 56.143 5.67683 56.8786 5.55002C57.6142 5.42321 58.3542 5.35981 59.1001 5.35981V5.3584ZM56.2792 14.7015C56.2792 14.972 56.3745 15.1735 56.565 15.3046C56.7555 15.4356 57.0149 15.5018 57.3416 15.5018C57.5863 15.5018 57.834 15.461 58.0846 15.3778C58.3337 15.2947 58.5769 15.1834 58.8129 15.0439V13.3404C58.004 13.4109 57.3797 13.563 56.9387 13.7983C56.4976 14.0337 56.2778 14.3352 56.2778 14.7029L56.2792 14.7015Z" fill="#186DB5"/>
<path d="M67.8484 0H74.2257V19.4175H67.8484V0Z" fill="#EC6231"/>
<path d="M76.9513 0H83.3286V19.4175H76.9513V0Z" fill="#D73C3A"/>
<path d="M96.1111 5.34577C96.8101 5.34577 97.4988 5.47258 98.1758 5.7262C98.8528 5.97982 99.4565 6.37434 99.9885 6.91258C100.52 7.44942 100.947 8.12856 101.269 8.95001C101.592 9.77146 101.753 10.7535 101.753 11.8976C101.753 13.2433 101.587 14.4071 101.256 15.3892C100.925 16.3712 100.456 17.1842 99.8522 17.8267C99.2484 18.4693 98.5231 18.9469 97.679 19.2611C96.8335 19.5753 95.903 19.7331 94.886 19.7331C94.423 19.7331 93.9863 19.7162 93.5774 19.681C93.1686 19.6458 92.792 19.5936 92.4462 19.5232V25H86.0557L86.0688 10.8747V5.67266H89.8437L90.9207 8.01865C91.3208 7.62554 91.7428 7.26484 92.1883 6.93795C92.6337 6.60965 93.0807 6.32926 93.5305 6.09254C93.9804 5.85583 94.4259 5.67266 94.8655 5.54162C95.3066 5.41058 95.7213 5.34436 96.1125 5.34436L96.1111 5.34577ZM93.9027 14.8974C94.2574 14.8974 94.5387 14.8213 94.7483 14.6692C94.9564 14.517 95.1131 14.3225 95.2187 14.0887C95.3227 13.8533 95.3886 13.5969 95.4165 13.3179C95.4443 13.0389 95.4575 12.7684 95.4575 12.5077C95.4575 11.7412 95.3593 11.1974 95.1644 10.8747C94.9695 10.552 94.6266 10.3914 94.1357 10.3914C93.8178 10.3914 93.5291 10.4224 93.2712 10.483C93.0118 10.5436 92.7378 10.662 92.4462 10.8353V14.5452C92.6455 14.6593 92.8682 14.7453 93.1144 14.8072C93.3606 14.8692 93.6229 14.8988 93.9042 14.8988L93.9027 14.8974Z" fill="#C5D328"/>
<path d="M110.91 5.3584C112.136 5.3584 113.142 5.52466 113.929 5.85578C114.714 6.1883 115.334 6.62932 115.788 7.17884C116.242 7.72976 116.557 8.36522 116.735 9.08522C116.912 9.80522 117 10.5548 117 11.3326V19.4175H113.225L112.163 17.0982C111.782 17.4744 111.382 17.8239 110.964 18.1465C110.546 18.4692 110.105 18.7496 109.642 18.9849C109.179 19.2202 108.693 19.4048 108.184 19.5358C107.676 19.6669 107.139 19.7331 106.577 19.7331C106.014 19.7331 105.473 19.6542 104.982 19.4978C104.492 19.34 104.065 19.1131 103.702 18.8158C103.338 18.5185 103.054 18.1536 102.85 17.7224C102.645 17.2899 102.544 16.7939 102.544 16.2359C102.544 15.5018 102.73 14.8509 103.102 14.283C103.475 13.7152 104.008 13.2235 104.704 12.8092C105.399 12.395 106.246 12.0512 107.245 11.7807C108.244 11.5101 109.371 11.3044 110.624 11.1649C110.624 11.0339 110.615 10.9014 110.596 10.7648C110.579 10.6295 110.526 10.5097 110.44 10.4041C110.353 10.2998 110.22 10.2138 110.038 10.149C109.856 10.0828 109.597 10.0504 109.261 10.0504C108.861 10.0504 108.46 10.0856 108.055 10.1547C107.651 10.2251 107.255 10.3139 106.87 10.4238C106.483 10.5337 106.111 10.6577 105.753 10.7972C105.394 10.9367 105.056 11.0761 104.738 11.217L103.211 7.31269C103.628 7.10275 104.127 6.88294 104.703 6.65046C105.28 6.41938 105.904 6.20944 106.577 6.02204C107.249 5.83464 107.953 5.67683 108.688 5.55002C109.424 5.42321 110.164 5.35981 110.91 5.35981V5.3584ZM108.089 14.7015C108.089 14.972 108.184 15.1735 108.375 15.3046C108.565 15.4356 108.825 15.5018 109.151 15.5018C109.396 15.5018 109.644 15.461 109.894 15.3778C110.144 15.2947 110.387 15.1834 110.623 15.0439V13.3404C109.814 13.4109 109.19 13.563 108.748 13.7983C108.307 14.0337 108.088 14.3352 108.088 14.7029L108.089 14.7015Z" fill="#534778"/>
</g>
<defs>
<clipPath id="clip0_150_225">
<rect width="117" height="25" fill="white"/>
</clipPath>
</defs>
</svg>
