<svg width="51" height="51" viewBox="0 0 51 51" fill="none" xmlns="http://www.w3.org/2000/svg">
<g clip-path="url(#clip0_53_45)">
<path d="M51 21.2502C51.0001 21.0951 50.983 20.9404 50.949 20.7891L48.1865 8.31955C47.6732 5.95281 46.3619 3.83449 44.4723 2.31979C42.5827 0.805089 40.2297 -0.0138898 37.808 0.000178264H13.192C10.7717 -0.0119349 8.42081 0.807937 6.53295 2.32248C4.6451 3.83702 3.33497 5.95424 2.822 8.31955L0.0510029 20.7891C0.0170201 20.9404 -8.42773e-05 21.0951 2.90997e-06 21.2502V23.3752C-0.00171156 25.4441 0.754211 27.442 2.125 28.9916V40.3752C2.12838 43.1921 3.24888 45.8926 5.24072 47.8845C7.23256 49.8763 9.93312 50.9968 12.75 51.0002H38.25C41.0669 50.9968 43.7675 49.8763 45.7593 47.8845C47.7511 45.8926 48.8716 43.1921 48.875 40.3752V28.9916C50.2458 27.442 51.0017 25.4441 51 23.3752V21.2502ZM4.25 21.4818L6.97 9.2418C7.27822 7.82284 8.06441 6.55277 9.19703 5.64413C10.3296 4.73548 11.74 4.24338 13.192 4.25018H14.875V10.6252C14.875 11.1888 15.0989 11.7293 15.4974 12.1278C15.8959 12.5263 16.4364 12.7502 17 12.7502C17.5636 12.7502 18.1041 12.5263 18.5026 12.1278C18.9011 11.7293 19.125 11.1888 19.125 10.6252V4.25018H31.875V10.6252C31.875 11.1888 32.0989 11.7293 32.4974 12.1278C32.8959 12.5263 33.4364 12.7502 34 12.7502C34.5636 12.7502 35.1041 12.5263 35.5026 12.1278C35.9011 11.7293 36.125 11.1888 36.125 10.6252V4.25018H37.808C39.26 4.24338 40.6704 4.73548 41.803 5.64413C42.9356 6.55277 43.7218 7.82284 44.03 9.2418L46.75 21.4818V23.3752C46.75 24.5023 46.3022 25.5834 45.5052 26.3804C44.7082 27.1774 43.6272 27.6252 42.5 27.6252H40.375C39.2478 27.6252 38.1668 27.1774 37.3698 26.3804C36.5728 25.5834 36.125 24.5023 36.125 23.3752C36.125 22.8116 35.9011 22.2711 35.5026 21.8726C35.1041 21.4741 34.5636 21.2502 34 21.2502C33.4364 21.2502 32.8959 21.4741 32.4974 21.8726C32.0989 22.2711 31.875 22.8116 31.875 23.3752C31.875 24.5023 31.4272 25.5834 30.6302 26.3804C29.8332 27.1774 28.7522 27.6252 27.625 27.6252H23.375C22.2478 27.6252 21.1668 27.1774 20.3698 26.3804C19.5728 25.5834 19.125 24.5023 19.125 23.3752C19.125 22.8116 18.9011 22.2711 18.5026 21.8726C18.1041 21.4741 17.5636 21.2502 17 21.2502C16.4364 21.2502 15.8959 21.4741 15.4974 21.8726C15.0989 22.2711 14.875 22.8116 14.875 23.3752C14.875 24.5023 14.4272 25.5834 13.6302 26.3804C12.8332 27.1774 11.7522 27.6252 10.625 27.6252H8.5C7.37283 27.6252 6.29183 27.1774 5.4948 26.3804C4.69777 25.5834 4.25 24.5023 4.25 23.3752V21.4818ZM38.25 46.7502H12.75C11.0592 46.7502 9.43774 46.0785 8.2422 44.883C7.04665 43.6874 6.375 42.0659 6.375 40.3752V31.6053C7.06903 31.785 7.78309 31.8757 8.5 31.8752H10.625C11.8316 31.8758 13.0245 31.6189 14.1238 31.1216C15.2232 30.6243 16.2038 29.8981 17 28.9916C17.7962 29.8981 18.7768 30.6243 19.8762 31.1216C20.9756 31.6189 22.1684 31.8758 23.375 31.8752H27.625C28.8316 31.8758 30.0245 31.6189 31.1238 31.1216C32.2232 30.6243 33.2038 29.8981 34 28.9916C34.7962 29.8981 35.7768 30.6243 36.8762 31.1216C37.9756 31.6189 39.1684 31.8758 40.375 31.8752H42.5C43.2169 31.8757 43.931 31.785 44.625 31.6053V40.3752C44.625 42.0659 43.9534 43.6874 42.7578 44.883C41.5623 46.0785 39.9408 46.7502 38.25 46.7502Z" fill="#27BE4F"/>
</g>
<defs>
<clipPath id="clip0_53_45">
<rect width="51" height="51" fill="white"/>
</clipPath>
</defs>
</svg>
