<svg width="244" height="56" viewBox="0 0 244 56" fill="none" xmlns="http://www.w3.org/2000/svg">
<rect width="244" height="56" rx="10" fill="white"/>
<rect x="80" width="164" height="56" rx="10" fill="#717171"/>
<path d="M109.842 20.568C110.171 20.568 110.425 20.663 110.602 20.853C110.779 21.043 110.868 21.3027 110.868 21.632C110.868 21.9233 110.798 22.1513 110.659 22.316C110.52 22.468 110.298 22.5757 109.994 22.639C109.462 22.753 108.43 22.81 106.897 22.81H106.308C105.561 22.81 104.87 22.7973 104.237 22.772C103.604 22.734 102.837 22.658 101.938 22.544C101.457 22.4933 101.216 22.1703 101.216 21.575C101.216 21.2963 101.273 21.062 101.387 20.872C101.501 20.6693 101.666 20.5617 101.881 20.549H102.109C102.274 19.4977 102.356 18.326 102.356 17.034H102.185C101.64 17.034 101.368 16.6857 101.368 15.989C101.368 15.685 101.431 15.438 101.558 15.248C101.685 15.0453 101.881 14.944 102.147 14.944H102.356V12.949V11.79C101.951 11.6507 101.748 11.3403 101.748 10.859C101.748 10.5043 101.843 10.251 102.033 10.099C102.223 9.93433 102.508 9.833 102.888 9.795C103.559 9.73167 104.674 9.7 106.232 9.7C107.866 9.7 109.114 9.75067 109.975 9.852C110.292 9.89 110.539 9.985 110.716 10.137C110.893 10.289 110.982 10.5297 110.982 10.859C110.982 11.1757 110.9 11.4353 110.735 11.638C110.57 11.828 110.349 11.9167 110.07 11.904C108.879 11.8027 107.809 11.752 106.859 11.752C105.985 11.752 105.244 11.771 104.636 11.809L104.693 13.899L104.712 14.982H105.415C106.378 15.0073 107.036 15.02 107.391 15.02L108.854 15.058C109.297 15.058 109.519 15.3937 109.519 16.065C109.519 16.3943 109.456 16.654 109.329 16.844C109.202 17.0213 109.019 17.11 108.778 17.11C108.385 17.11 108.056 17.1037 107.79 17.091L105.396 17.072H104.712C104.674 18.4273 104.585 19.6307 104.446 20.682C105.193 20.7327 105.922 20.758 106.631 20.758C107.682 20.758 108.683 20.701 109.633 20.587L109.842 20.568ZM116.476 23.152C115.602 23.152 114.836 22.943 114.177 22.525C113.518 22.107 113.037 21.5623 112.733 20.891C112.644 20.6757 112.606 20.511 112.619 20.397C112.644 20.169 112.771 19.96 112.999 19.77C113.227 19.58 113.474 19.485 113.74 19.485C113.917 19.485 114.057 19.5293 114.158 19.618C114.259 19.694 114.373 19.808 114.5 19.96C114.855 20.416 115.171 20.7517 115.45 20.967C115.729 21.1697 116.077 21.271 116.495 21.271C116.888 21.271 117.217 21.1823 117.483 21.005C117.762 20.8277 117.901 20.5933 117.901 20.302C117.901 19.9853 117.749 19.7447 117.445 19.58C117.154 19.4027 116.679 19.2 116.02 18.972C115.349 18.744 114.804 18.5287 114.386 18.326C113.981 18.1233 113.626 17.832 113.322 17.452C113.031 17.0593 112.885 16.5653 112.885 15.97C112.885 15.3873 113.05 14.8743 113.379 14.431C113.708 13.9877 114.152 13.6457 114.709 13.405C115.279 13.1643 115.9 13.044 116.571 13.044C117.28 13.044 117.895 13.177 118.414 13.443C118.946 13.709 119.351 14.0637 119.63 14.507C119.909 14.9377 120.048 15.4063 120.048 15.913C120.048 16.2297 119.966 16.464 119.801 16.616C119.649 16.768 119.389 16.844 119.022 16.844C118.667 16.844 118.427 16.787 118.3 16.673C118.186 16.559 118.11 16.4007 118.072 16.198C117.983 15.3493 117.483 14.925 116.571 14.925C116.115 14.925 115.773 15.0263 115.545 15.229C115.317 15.419 115.203 15.647 115.203 15.913C115.203 16.2297 115.355 16.4767 115.659 16.654C115.963 16.8313 116.451 17.034 117.122 17.262C117.768 17.4647 118.3 17.6673 118.718 17.87C119.136 18.0727 119.491 18.364 119.782 18.744C120.086 19.124 120.238 19.6117 120.238 20.207C120.238 20.8783 120.048 21.4357 119.668 21.879C119.301 22.3097 118.826 22.6327 118.243 22.848C117.673 23.0507 117.084 23.152 116.476 23.152ZM126.87 23C125.907 23 125.059 22.8037 124.324 22.411C123.602 22.0057 123.045 21.4547 122.652 20.758C122.259 20.0487 122.063 19.2443 122.063 18.345C122.063 17.4077 122.266 16.5527 122.671 15.78C123.089 14.9947 123.672 14.374 124.419 13.918C125.179 13.462 126.047 13.234 127.022 13.234C128.061 13.234 128.96 13.4873 129.72 13.994C130.493 14.5007 131.037 15.134 131.354 15.894C131.43 16.084 131.468 16.255 131.468 16.407C131.468 16.7617 131.221 17.0023 130.727 17.129C130.6 17.167 130.474 17.186 130.347 17.186C130.132 17.186 129.954 17.129 129.815 17.015C129.676 16.8883 129.53 16.6983 129.378 16.445C129.163 16.0397 128.871 15.704 128.504 15.438C128.137 15.172 127.687 15.039 127.155 15.039C126.61 15.039 126.129 15.191 125.711 15.495C125.293 15.7863 124.964 16.1853 124.723 16.692C124.495 17.1987 124.381 17.756 124.381 18.364C124.381 19.2253 124.609 19.9157 125.065 20.435C125.534 20.9417 126.211 21.195 127.098 21.195C127.934 21.195 128.561 20.9797 128.979 20.549C129.41 20.1057 129.631 19.6053 129.644 19.048C129.644 18.858 129.733 18.6933 129.91 18.554C130.087 18.4147 130.322 18.345 130.613 18.345C130.968 18.345 131.24 18.4147 131.43 18.554C131.62 18.6933 131.715 18.934 131.715 19.276C131.715 19.884 131.544 20.473 131.202 21.043C130.873 21.613 130.347 22.0817 129.625 22.449C128.903 22.8163 127.985 23 126.87 23ZM138.721 13.177C139.506 13.177 140.158 13.4367 140.678 13.956C141.197 14.4753 141.457 15.1403 141.457 15.951C141.457 16.7363 141.203 17.3443 140.697 17.775C140.203 18.2057 139.563 18.421 138.778 18.421C138.398 18.421 138.132 18.364 137.98 18.25C137.828 18.1233 137.752 17.927 137.752 17.661C137.752 17.4077 137.802 17.2303 137.904 17.129C138.018 17.015 138.176 16.9453 138.379 16.92C139.151 16.8313 139.538 16.4893 139.538 15.894C139.538 15.6153 139.462 15.3873 139.31 15.21C139.17 15.0327 138.961 14.944 138.683 14.944C138.29 14.944 137.929 15.1467 137.6 15.552C137.283 15.9447 137.023 16.4197 136.821 16.977C136.631 17.5343 136.51 18.0347 136.46 18.478C136.384 19.2507 136.346 20.2767 136.346 21.556C136.346 22.1893 136.263 22.62 136.099 22.848C135.934 23.0633 135.643 23.171 135.225 23.171C134.819 23.171 134.522 23.0887 134.332 22.924C134.142 22.7593 134.04 22.4997 134.028 22.145V18.877C134.028 18.1803 134.009 17.5597 133.971 17.015C133.945 16.4703 133.895 15.8117 133.819 15.039L133.705 13.861C133.679 13.5823 133.768 13.3607 133.971 13.196C134.173 13.0187 134.452 12.93 134.807 12.93C135.402 12.93 135.725 13.2087 135.776 13.766C135.801 14.2093 135.826 14.754 135.852 15.4C136.092 14.7413 136.46 14.2093 136.954 13.804C137.448 13.386 138.037 13.177 138.721 13.177ZM145.497 12.797C145.041 12.797 144.667 12.6577 144.376 12.379C144.085 12.0877 143.939 11.7203 143.939 11.277C143.939 10.8337 144.085 10.4727 144.376 10.194C144.667 9.90267 145.047 9.757 145.516 9.757C145.959 9.757 146.327 9.90267 146.618 10.194C146.909 10.4727 147.055 10.8273 147.055 11.258C147.055 11.7013 146.909 12.0687 146.618 12.36C146.327 12.6513 145.953 12.797 145.497 12.797ZM145.212 22.886C144.87 22.886 144.585 22.8037 144.357 22.639C144.142 22.4617 144.04 22.2273 144.053 21.936L144.205 14.564C144.218 14.26 144.332 14.0257 144.547 13.861C144.762 13.6963 145.041 13.614 145.383 13.614C145.738 13.614 146.023 13.7027 146.238 13.88C146.466 14.0447 146.574 14.2853 146.561 14.602L146.409 21.936C146.396 22.2273 146.276 22.4617 146.048 22.639C145.833 22.8037 145.554 22.886 145.212 22.886ZM154.867 13.291C155.766 13.291 156.583 13.4937 157.318 13.899C158.053 14.2917 158.629 14.8553 159.047 15.59C159.478 16.3247 159.693 17.186 159.693 18.174C159.693 19.1747 159.471 20.0423 159.028 20.777C158.597 21.5117 158.008 22.0753 157.261 22.468C156.514 22.848 155.684 23.038 154.772 23.038C154.151 23.0253 153.524 22.886 152.891 22.62C152.27 22.3413 151.846 22.05 151.618 21.746C151.491 21.9613 151.327 22.164 151.124 22.354C150.934 22.5313 150.763 22.6517 150.611 22.715C150.459 22.791 150.294 22.829 150.117 22.829C149.826 22.829 149.579 22.7213 149.376 22.506C149.173 22.2907 149.072 22.0563 149.072 21.803C149.072 21.613 149.167 21.423 149.357 21.233C149.408 21.1823 149.477 21.1127 149.566 21.024C149.667 20.9353 149.737 20.8467 149.775 20.758C149.851 20.568 149.889 20.1817 149.889 19.599C149.889 19.0923 149.883 18.649 149.87 18.269L149.832 15.78C149.832 15.2607 149.826 14.8743 149.813 14.621C149.788 11.1757 149.75 8.769 149.699 7.401C149.686 7.10967 149.794 6.88167 150.022 6.717C150.263 6.53967 150.548 6.451 150.877 6.451C151.194 6.451 151.46 6.527 151.675 6.679C151.89 6.831 152.004 7.04 152.017 7.306C152.042 7.838 152.061 8.50933 152.074 9.32C152.087 10.118 152.099 10.7893 152.112 11.334C152.112 11.8533 152.125 12.8223 152.15 14.241C152.416 13.9623 152.777 13.7343 153.233 13.557C153.702 13.3797 154.246 13.291 154.867 13.291ZM154.753 21.214C155.488 21.214 156.108 20.9417 156.615 20.397C157.122 19.8523 157.375 19.0923 157.375 18.117C157.375 17.1543 157.128 16.4133 156.634 15.894C156.14 15.362 155.481 15.096 154.658 15.096C154.088 15.096 153.588 15.229 153.157 15.495C152.726 15.761 152.41 16.0523 152.207 16.369V17.756C152.207 18.402 152.226 18.9593 152.264 19.428C152.277 19.732 152.403 20.0233 152.644 20.302C152.885 20.5807 153.189 20.8023 153.556 20.967C153.936 21.1317 154.335 21.214 154.753 21.214ZM166.642 23.152C165.527 23.152 164.577 22.9367 163.792 22.506C163.019 22.0627 162.437 21.4673 162.044 20.72C161.651 19.96 161.455 19.1113 161.455 18.174C161.455 17.2367 161.67 16.3943 162.101 15.647C162.544 14.887 163.146 14.298 163.906 13.88C164.679 13.4493 165.546 13.234 166.509 13.234C167.383 13.234 168.168 13.405 168.865 13.747C169.562 14.089 170.113 14.5767 170.518 15.21C170.923 15.8433 171.126 16.578 171.126 17.414C171.126 17.908 171.044 18.2627 170.879 18.478C170.727 18.6807 170.436 18.782 170.005 18.782L163.488 18.839C163.488 19.1937 163.608 19.561 163.849 19.941C164.09 20.321 164.444 20.644 164.913 20.91C165.382 21.1633 165.933 21.29 166.566 21.29C166.997 21.29 167.358 21.2393 167.649 21.138C167.953 21.024 168.2 20.891 168.39 20.739C168.58 20.587 168.802 20.378 169.055 20.112C169.245 19.922 169.454 19.827 169.682 19.827C169.923 19.827 170.151 19.922 170.366 20.112C170.594 20.302 170.708 20.5173 170.708 20.758C170.708 20.9353 170.638 21.1317 170.499 21.347C170.195 21.803 169.733 22.221 169.112 22.601C168.504 22.9683 167.681 23.152 166.642 23.152ZM168.979 17.262C169.08 17.262 169.144 17.243 169.169 17.205C169.207 17.167 169.226 17.0973 169.226 16.996C169.226 16.4133 168.966 15.932 168.447 15.552C167.928 15.172 167.282 14.982 166.509 14.982C165.914 14.982 165.382 15.115 164.913 15.381C164.457 15.6343 164.102 15.951 163.849 16.331C163.608 16.6983 163.488 17.0277 163.488 17.319L168.979 17.262ZM185.342 19.447C185.696 19.447 185.95 19.523 186.102 19.675C186.266 19.827 186.349 20.0677 186.349 20.397C186.349 21.1697 186.095 21.803 185.589 22.297C185.095 22.7783 184.461 23.019 183.689 23.019C182.637 23.019 181.871 22.5883 181.39 21.727C180.921 20.853 180.687 19.4723 180.687 17.585C180.687 17.1923 180.699 16.654 180.725 15.97L180.041 15.932C179.433 15.9067 179.129 15.609 179.129 15.039C179.129 14.7223 179.211 14.4943 179.376 14.355C179.54 14.203 179.813 14.1333 180.193 14.146L180.877 14.184C180.965 13.2847 181.111 12.2523 181.314 11.087C181.415 10.5423 181.789 10.27 182.435 10.27C182.827 10.27 183.125 10.3713 183.328 10.574C183.543 10.7767 183.625 11.0173 183.575 11.296C183.372 12.664 183.239 13.6647 183.176 14.298L184.335 14.317C184.892 14.3297 185.171 14.6147 185.171 15.172C185.171 15.4633 185.095 15.6787 184.943 15.818C184.791 15.9573 184.531 16.027 184.164 16.027H183.024C182.998 16.6857 182.986 17.205 182.986 17.585C182.986 18.9277 183.049 19.865 183.176 20.397C183.302 20.929 183.524 21.195 183.841 21.195C184.043 21.195 184.189 21.1253 184.278 20.986C184.366 20.834 184.417 20.587 184.43 20.245C184.442 19.9663 184.518 19.7637 184.658 19.637C184.797 19.5103 185.025 19.447 185.342 19.447ZM196.16 20.302C196.16 20.6693 196.191 20.967 196.255 21.195C196.331 21.423 196.413 21.613 196.502 21.765C196.59 21.9043 196.635 21.993 196.635 22.031C196.635 22.2843 196.533 22.506 196.331 22.696C196.128 22.8733 195.875 22.962 195.571 22.962C195.317 22.962 195.058 22.8163 194.792 22.525C194.526 22.2337 194.367 21.9297 194.317 21.613C193.823 22.5503 192.936 23.019 191.657 23.019C190.555 23.019 189.706 22.639 189.111 21.879C188.528 21.1063 188.237 20.0803 188.237 18.801V14.241C188.237 14.0003 188.344 13.804 188.56 13.652C188.775 13.4873 189.047 13.405 189.377 13.405C189.693 13.405 189.966 13.4873 190.194 13.652C190.422 13.804 190.536 14.0003 190.536 14.241V18.782C190.536 19.504 190.65 20.093 190.878 20.549C191.106 20.9923 191.467 21.214 191.961 21.214C192.581 21.214 193.037 20.929 193.329 20.359C193.62 19.7763 193.766 18.877 193.766 17.661V14.26C193.766 13.956 193.867 13.7217 194.07 13.557C194.285 13.3923 194.564 13.31 194.906 13.31C195.26 13.31 195.545 13.3987 195.761 13.576C195.989 13.7407 196.103 13.9687 196.103 14.26L196.16 20.302ZM202.514 23.152C201.64 23.152 200.874 22.943 200.215 22.525C199.557 22.107 199.075 21.5623 198.771 20.891C198.683 20.6757 198.645 20.511 198.657 20.397C198.683 20.169 198.809 19.96 199.037 19.77C199.265 19.58 199.512 19.485 199.778 19.485C199.956 19.485 200.095 19.5293 200.196 19.618C200.298 19.694 200.412 19.808 200.538 19.96C200.893 20.416 201.21 20.7517 201.488 20.967C201.767 21.1697 202.115 21.271 202.533 21.271C202.926 21.271 203.255 21.1823 203.521 21.005C203.8 20.8277 203.939 20.5933 203.939 20.302C203.939 19.9853 203.787 19.7447 203.483 19.58C203.192 19.4027 202.717 19.2 202.058 18.972C201.387 18.744 200.842 18.5287 200.424 18.326C200.019 18.1233 199.664 17.832 199.36 17.452C199.069 17.0593 198.923 16.5653 198.923 15.97C198.923 15.3873 199.088 14.8743 199.417 14.431C199.747 13.9877 200.19 13.6457 200.747 13.405C201.317 13.1643 201.938 13.044 202.609 13.044C203.319 13.044 203.933 13.177 204.452 13.443C204.984 13.709 205.39 14.0637 205.668 14.507C205.947 14.9377 206.086 15.4063 206.086 15.913C206.086 16.2297 206.004 16.464 205.839 16.616C205.687 16.768 205.428 16.844 205.06 16.844C204.706 16.844 204.465 16.787 204.338 16.673C204.224 16.559 204.148 16.4007 204.11 16.198C204.022 15.3493 203.521 14.925 202.609 14.925C202.153 14.925 201.811 15.0263 201.583 15.229C201.355 15.419 201.241 15.647 201.241 15.913C201.241 16.2297 201.393 16.4767 201.697 16.654C202.001 16.8313 202.489 17.034 203.16 17.262C203.806 17.4647 204.338 17.6673 204.756 17.87C205.174 18.0727 205.529 18.364 205.82 18.744C206.124 19.124 206.276 19.6117 206.276 20.207C206.276 20.8783 206.086 21.4357 205.706 21.879C205.339 22.3097 204.864 22.6327 204.281 22.848C203.711 23.0507 203.122 23.152 202.514 23.152ZM104.731 45.152C103.857 45.152 103.091 44.943 102.432 44.525C101.773 44.107 101.292 43.5623 100.988 42.891C100.899 42.6757 100.861 42.511 100.874 42.397C100.899 42.169 101.026 41.96 101.254 41.77C101.482 41.58 101.729 41.485 101.995 41.485C102.172 41.485 102.312 41.5293 102.413 41.618C102.514 41.694 102.628 41.808 102.755 41.96C103.11 42.416 103.426 42.7517 103.705 42.967C103.984 43.1697 104.332 43.271 104.75 43.271C105.143 43.271 105.472 43.1823 105.738 43.005C106.017 42.8277 106.156 42.5933 106.156 42.302C106.156 41.9853 106.004 41.7447 105.7 41.58C105.409 41.4027 104.934 41.2 104.275 40.972C103.604 40.744 103.059 40.5287 102.641 40.326C102.236 40.1233 101.881 39.832 101.577 39.452C101.286 39.0593 101.14 38.5653 101.14 37.97C101.14 37.3873 101.305 36.8743 101.634 36.431C101.963 35.9877 102.407 35.6457 102.964 35.405C103.534 35.1643 104.155 35.044 104.826 35.044C105.535 35.044 106.15 35.177 106.669 35.443C107.201 35.709 107.606 36.0637 107.885 36.507C108.164 36.9377 108.303 37.4063 108.303 37.913C108.303 38.2297 108.221 38.464 108.056 38.616C107.904 38.768 107.644 38.844 107.277 38.844C106.922 38.844 106.682 38.787 106.555 38.673C106.441 38.559 106.365 38.4007 106.327 38.198C106.238 37.3493 105.738 36.925 104.826 36.925C104.37 36.925 104.028 37.0263 103.8 37.229C103.572 37.419 103.458 37.647 103.458 37.913C103.458 38.2297 103.61 38.4767 103.914 38.654C104.218 38.8313 104.706 39.034 105.377 39.262C106.023 39.4647 106.555 39.6673 106.973 39.87C107.391 40.0727 107.746 40.364 108.037 40.744C108.341 41.124 108.493 41.6117 108.493 42.207C108.493 42.8783 108.303 43.4357 107.923 43.879C107.556 44.3097 107.081 44.6327 106.498 44.848C105.928 45.0507 105.339 45.152 104.731 45.152ZM118.564 42.302C118.564 42.6693 118.596 42.967 118.659 43.195C118.735 43.423 118.817 43.613 118.906 43.765C118.995 43.9043 119.039 43.993 119.039 44.031C119.039 44.2843 118.938 44.506 118.735 44.696C118.532 44.8733 118.279 44.962 117.975 44.962C117.722 44.962 117.462 44.8163 117.196 44.525C116.93 44.2337 116.772 43.9297 116.721 43.613C116.227 44.5503 115.34 45.019 114.061 45.019C112.959 45.019 112.11 44.639 111.515 43.879C110.932 43.1063 110.641 42.0803 110.641 40.801V36.241C110.641 36.0003 110.749 35.804 110.964 35.652C111.179 35.4873 111.452 35.405 111.781 35.405C112.098 35.405 112.37 35.4873 112.598 35.652C112.826 35.804 112.94 36.0003 112.94 36.241V40.782C112.94 41.504 113.054 42.093 113.282 42.549C113.51 42.9923 113.871 43.214 114.365 43.214C114.986 43.214 115.442 42.929 115.733 42.359C116.024 41.7763 116.17 40.877 116.17 39.661V36.26C116.17 35.956 116.271 35.7217 116.474 35.557C116.689 35.3923 116.968 35.31 117.31 35.31C117.665 35.31 117.95 35.3987 118.165 35.576C118.393 35.7407 118.507 35.9687 118.507 36.26L118.564 42.302ZM130.315 41.732C130.403 42.3907 130.479 43.005 130.543 43.575C130.606 44.1323 130.638 44.601 130.638 44.981C130.638 45.8803 130.441 46.691 130.049 47.413C129.656 48.1477 129.099 48.7177 128.377 49.123C127.667 49.541 126.844 49.75 125.907 49.75C125.172 49.75 124.494 49.6107 123.874 49.332C123.266 49.0533 122.778 48.6733 122.411 48.192C122.056 47.7233 121.879 47.2103 121.879 46.653C121.879 46.349 121.967 46.1273 122.145 45.988C122.322 45.8487 122.594 45.779 122.962 45.779C123.456 45.779 123.741 45.988 123.817 46.406C124.007 47.3813 124.684 47.869 125.85 47.869C126.648 47.869 127.262 47.622 127.693 47.128C128.123 46.6467 128.339 45.912 128.339 44.924C128.339 44.658 128.32 44.373 128.282 44.069C127.99 44.3477 127.61 44.5757 127.142 44.753C126.673 44.9303 126.147 45.019 125.565 45.019C124.665 45.019 123.867 44.81 123.171 44.392C122.474 43.9613 121.936 43.385 121.556 42.663C121.176 41.9283 120.986 41.124 120.986 40.25C120.986 39.3507 121.176 38.5337 121.556 37.799C121.948 37.0517 122.493 36.469 123.19 36.051C123.886 35.6203 124.684 35.405 125.584 35.405C126.496 35.405 127.211 35.6267 127.731 36.07C127.819 35.8167 127.927 35.5823 128.054 35.367C128.193 35.0883 128.446 34.949 128.814 34.949C129.105 34.949 129.384 35.0313 129.65 35.196C129.916 35.348 130.055 35.5507 130.068 35.804C130.068 35.8293 130.055 35.9053 130.03 36.032C129.954 36.2347 129.833 36.6147 129.669 37.172C129.909 38.768 130.125 40.288 130.315 41.732ZM125.793 43.195C126.287 43.195 126.755 43.0683 127.199 42.815C127.642 42.5617 127.914 42.2767 128.016 41.96C127.864 40.6807 127.68 39.395 127.465 38.103C127.351 37.8877 127.135 37.6913 126.819 37.514C126.515 37.3367 126.166 37.248 125.773 37.248C125.052 37.248 124.456 37.5393 123.988 38.122C123.519 38.7047 123.285 39.4267 123.285 40.288C123.285 41.0987 123.5 41.789 123.931 42.359C124.361 42.9163 124.982 43.195 125.793 43.195ZM137.474 45.152C136.359 45.152 135.409 44.9367 134.624 44.506C133.851 44.0627 133.269 43.4673 132.876 42.72C132.483 41.96 132.287 41.1113 132.287 40.174C132.287 39.2367 132.502 38.3943 132.933 37.647C133.376 36.887 133.978 36.298 134.738 35.88C135.511 35.4493 136.378 35.234 137.341 35.234C138.215 35.234 139 35.405 139.697 35.747C140.394 36.089 140.945 36.5767 141.35 37.21C141.755 37.8433 141.958 38.578 141.958 39.414C141.958 39.908 141.876 40.2627 141.711 40.478C141.559 40.6807 141.268 40.782 140.837 40.782L134.32 40.839C134.32 41.1937 134.44 41.561 134.681 41.941C134.922 42.321 135.276 42.644 135.745 42.91C136.214 43.1633 136.765 43.29 137.398 43.29C137.829 43.29 138.19 43.2393 138.481 43.138C138.785 43.024 139.032 42.891 139.222 42.739C139.412 42.587 139.634 42.378 139.887 42.112C140.077 41.922 140.286 41.827 140.514 41.827C140.755 41.827 140.983 41.922 141.198 42.112C141.426 42.302 141.54 42.5173 141.54 42.758C141.54 42.9353 141.47 43.1317 141.331 43.347C141.027 43.803 140.565 44.221 139.944 44.601C139.336 44.9683 138.513 45.152 137.474 45.152ZM139.811 39.262C139.912 39.262 139.976 39.243 140.001 39.205C140.039 39.167 140.058 39.0973 140.058 38.996C140.058 38.4133 139.798 37.932 139.279 37.552C138.76 37.172 138.114 36.982 137.341 36.982C136.746 36.982 136.214 37.115 135.745 37.381C135.289 37.6343 134.934 37.951 134.681 38.331C134.44 38.6983 134.32 39.0277 134.32 39.319L139.811 39.262ZM149.093 35.177C149.878 35.177 150.531 35.4367 151.05 35.956C151.569 36.4753 151.829 37.1403 151.829 37.951C151.829 38.7363 151.576 39.3443 151.069 39.775C150.575 40.2057 149.935 40.421 149.15 40.421C148.77 40.421 148.504 40.364 148.352 40.25C148.2 40.1233 148.124 39.927 148.124 39.661C148.124 39.4077 148.175 39.2303 148.276 39.129C148.39 39.015 148.548 38.9453 148.751 38.92C149.524 38.8313 149.91 38.4893 149.91 37.894C149.91 37.6153 149.834 37.3873 149.682 37.21C149.543 37.0327 149.334 36.944 149.055 36.944C148.662 36.944 148.301 37.1467 147.972 37.552C147.655 37.9447 147.396 38.4197 147.193 38.977C147.003 39.5343 146.883 40.0347 146.832 40.478C146.756 41.2507 146.718 42.2767 146.718 43.556C146.718 44.1893 146.636 44.62 146.471 44.848C146.306 45.0633 146.015 45.171 145.597 45.171C145.192 45.171 144.894 45.0887 144.704 44.924C144.514 44.7593 144.413 44.4997 144.4 44.145V40.877C144.4 40.1803 144.381 39.5597 144.343 39.015C144.318 38.4703 144.267 37.8117 144.191 37.039L144.077 35.861C144.052 35.5823 144.14 35.3607 144.343 35.196C144.546 35.0187 144.824 34.93 145.179 34.93C145.774 34.93 146.097 35.2087 146.148 35.766C146.173 36.2093 146.199 36.754 146.224 37.4C146.465 36.7413 146.832 36.2093 147.326 35.804C147.82 35.386 148.409 35.177 149.093 35.177ZM158.719 45.152C157.605 45.152 156.655 44.9367 155.869 44.506C155.097 44.0627 154.514 43.4673 154.121 42.72C153.729 41.96 153.532 41.1113 153.532 40.174C153.532 39.2367 153.748 38.3943 154.178 37.647C154.622 36.887 155.223 36.298 155.983 35.88C156.756 35.4493 157.624 35.234 158.586 35.234C159.46 35.234 160.246 35.405 160.942 35.747C161.639 36.089 162.19 36.5767 162.595 37.21C163.001 37.8433 163.203 38.578 163.203 39.414C163.203 39.908 163.121 40.2627 162.956 40.478C162.804 40.6807 162.513 40.782 162.082 40.782L155.565 40.839C155.565 41.1937 155.686 41.561 155.926 41.941C156.167 42.321 156.522 42.644 156.99 42.91C157.459 43.1633 158.01 43.29 158.643 43.29C159.074 43.29 159.435 43.2393 159.726 43.138C160.03 43.024 160.277 42.891 160.467 42.739C160.657 42.587 160.879 42.378 161.132 42.112C161.322 41.922 161.531 41.827 161.759 41.827C162 41.827 162.228 41.922 162.443 42.112C162.671 42.302 162.785 42.5173 162.785 42.758C162.785 42.9353 162.716 43.1317 162.576 43.347C162.272 43.803 161.81 44.221 161.189 44.601C160.581 44.9683 159.758 45.152 158.719 45.152ZM161.056 39.262C161.158 39.262 161.221 39.243 161.246 39.205C161.284 39.167 161.303 39.0973 161.303 38.996C161.303 38.4133 161.044 37.932 160.524 37.552C160.005 37.172 159.359 36.982 158.586 36.982C157.991 36.982 157.459 37.115 156.99 37.381C156.534 37.6343 156.18 37.951 155.926 38.331C155.686 38.6983 155.565 39.0277 155.565 39.319L161.056 39.262ZM170.433 35.31C171.522 35.31 172.365 35.6963 172.96 36.469C173.555 37.229 173.853 38.369 173.853 39.889L173.834 44.24C173.834 44.4933 173.726 44.6833 173.511 44.81C173.296 44.9367 173.023 45 172.694 45C172.365 45 172.086 44.943 171.858 44.829C171.63 44.715 171.516 44.544 171.516 44.316V39.87C171.516 38.8947 171.408 38.198 171.193 37.78C170.978 37.3493 170.617 37.134 170.11 37.134C169.629 37.134 169.242 37.3367 168.951 37.742C168.66 38.1347 168.432 38.787 168.267 39.699C168.178 40.2563 168.134 40.8897 168.134 41.599L168.153 44.164C168.153 44.4427 168.045 44.658 167.83 44.81C167.627 44.9493 167.349 45.019 166.994 45.019C166.639 45.019 166.354 44.943 166.139 44.791C165.936 44.639 165.835 44.43 165.835 44.164C165.835 42.036 165.791 39.9333 165.702 37.856C165.702 37.6533 165.67 37.476 165.607 37.324C165.544 37.172 165.468 37.0327 165.379 36.906C165.303 36.7793 165.252 36.6907 165.227 36.64C165.151 36.5387 165.113 36.4183 165.113 36.279C165.113 36.051 165.246 35.8357 165.512 35.633C165.791 35.4303 166.05 35.329 166.291 35.329C166.418 35.329 166.538 35.367 166.652 35.443C166.766 35.519 166.893 35.652 167.032 35.842C167.336 36.2473 167.488 36.6273 167.488 36.982V37.134C167.716 36.6147 168.064 36.184 168.533 35.842C169.014 35.4873 169.648 35.31 170.433 35.31ZM180.567 45C179.605 45 178.756 44.8037 178.021 44.411C177.299 44.0057 176.742 43.4547 176.349 42.758C175.957 42.0487 175.76 41.2443 175.76 40.345C175.76 39.4077 175.963 38.5527 176.368 37.78C176.786 36.9947 177.369 36.374 178.116 35.918C178.876 35.462 179.744 35.234 180.719 35.234C181.758 35.234 182.657 35.4873 183.417 35.994C184.19 36.5007 184.735 37.134 185.051 37.894C185.127 38.084 185.165 38.255 185.165 38.407C185.165 38.7617 184.918 39.0023 184.424 39.129C184.298 39.167 184.171 39.186 184.044 39.186C183.829 39.186 183.652 39.129 183.512 39.015C183.373 38.8883 183.227 38.6983 183.075 38.445C182.86 38.0397 182.569 37.704 182.201 37.438C181.834 37.172 181.384 37.039 180.852 37.039C180.308 37.039 179.826 37.191 179.408 37.495C178.99 37.7863 178.661 38.1853 178.42 38.692C178.192 39.1987 178.078 39.756 178.078 40.364C178.078 41.2253 178.306 41.9157 178.762 42.435C179.231 42.9417 179.909 43.195 180.795 43.195C181.631 43.195 182.258 42.9797 182.676 42.549C183.107 42.1057 183.329 41.6053 183.341 41.048C183.341 40.858 183.43 40.6933 183.607 40.554C183.785 40.4147 184.019 40.345 184.31 40.345C184.665 40.345 184.937 40.4147 185.127 40.554C185.317 40.6933 185.412 40.934 185.412 41.276C185.412 41.884 185.241 42.473 184.899 43.043C184.57 43.613 184.044 44.0817 183.322 44.449C182.6 44.8163 181.682 45 180.567 45ZM189.416 34.797C188.96 34.797 188.586 34.6577 188.295 34.379C188.004 34.0877 187.858 33.7203 187.858 33.277C187.858 32.8337 188.004 32.4727 188.295 32.194C188.586 31.9027 188.966 31.757 189.435 31.757C189.878 31.757 190.246 31.9027 190.537 32.194C190.828 32.4727 190.974 32.8273 190.974 33.258C190.974 33.7013 190.828 34.0687 190.537 34.36C190.246 34.6513 189.872 34.797 189.416 34.797ZM189.131 44.886C188.789 44.886 188.504 44.8037 188.276 44.639C188.061 44.4617 187.959 44.2273 187.972 43.936L188.124 36.564C188.137 36.26 188.251 36.0257 188.466 35.861C188.681 35.6963 188.96 35.614 189.302 35.614C189.657 35.614 189.942 35.7027 190.157 35.88C190.385 36.0447 190.493 36.2853 190.48 36.602L190.328 43.936C190.315 44.2273 190.195 44.4617 189.967 44.639C189.752 44.8037 189.473 44.886 189.131 44.886ZM202.586 43.176C202.801 43.214 202.966 43.2963 203.08 43.423C203.207 43.537 203.27 43.746 203.27 44.05C203.27 44.316 203.2 44.5377 203.061 44.715C202.922 44.8923 202.738 44.981 202.51 44.981C201.965 44.981 201.554 44.9113 201.275 44.772C200.996 44.6327 200.749 44.373 200.534 43.993C200.002 44.791 199.039 45.19 197.646 45.19C196.189 45.19 195.1 44.7657 194.378 43.917C193.656 43.0557 193.295 41.9283 193.295 40.535C193.295 39.6103 193.479 38.7743 193.846 38.027C194.226 37.2797 194.764 36.6907 195.461 36.26C196.158 35.8293 196.962 35.614 197.874 35.614C198.393 35.614 198.862 35.7217 199.28 35.937C199.698 36.1397 200.015 36.412 200.23 36.754L200.287 36.355C200.3 36.1777 200.382 36.0257 200.534 35.899C200.686 35.7723 200.927 35.709 201.256 35.709C201.636 35.709 201.908 35.7977 202.073 35.975C202.25 36.1523 202.32 36.374 202.282 36.64C202.206 37.0453 202.124 37.761 202.035 38.787C201.997 39.2937 201.978 39.946 201.978 40.744V41.637C201.978 42.169 202.01 42.5553 202.073 42.796C202.136 43.024 202.307 43.1507 202.586 43.176ZM199.736 41.618C199.749 41.0733 199.755 40.2817 199.755 39.243C199.755 38.6603 199.565 38.2107 199.185 37.894C198.818 37.5773 198.393 37.419 197.912 37.419C197.215 37.419 196.658 37.723 196.24 38.331C195.822 38.939 195.613 39.6673 195.613 40.516C195.613 41.3393 195.797 42.0233 196.164 42.568C196.531 43.1127 197.07 43.385 197.779 43.385C198.362 43.385 198.83 43.233 199.185 42.929C199.54 42.625 199.723 42.188 199.736 41.618ZM208.878 45.152C208.004 45.152 207.238 44.943 206.579 44.525C205.921 44.107 205.439 43.5623 205.135 42.891C205.047 42.6757 205.009 42.511 205.021 42.397C205.047 42.169 205.173 41.96 205.401 41.77C205.629 41.58 205.876 41.485 206.142 41.485C206.32 41.485 206.459 41.5293 206.56 41.618C206.662 41.694 206.776 41.808 206.902 41.96C207.257 42.416 207.574 42.7517 207.852 42.967C208.131 43.1697 208.479 43.271 208.897 43.271C209.29 43.271 209.619 43.1823 209.885 43.005C210.164 42.8277 210.303 42.5933 210.303 42.302C210.303 41.9853 210.151 41.7447 209.847 41.58C209.556 41.4027 209.081 41.2 208.422 40.972C207.751 40.744 207.206 40.5287 206.788 40.326C206.383 40.1233 206.028 39.832 205.724 39.452C205.433 39.0593 205.287 38.5653 205.287 37.97C205.287 37.3873 205.452 36.8743 205.781 36.431C206.111 35.9877 206.554 35.6457 207.111 35.405C207.681 35.1643 208.302 35.044 208.973 35.044C209.683 35.044 210.297 35.177 210.816 35.443C211.348 35.709 211.754 36.0637 212.032 36.507C212.311 36.9377 212.45 37.4063 212.45 37.913C212.45 38.2297 212.368 38.464 212.203 38.616C212.051 38.768 211.792 38.844 211.424 38.844C211.07 38.844 210.829 38.787 210.702 38.673C210.588 38.559 210.512 38.4007 210.474 38.198C210.386 37.3493 209.885 36.925 208.973 36.925C208.517 36.925 208.175 37.0263 207.947 37.229C207.719 37.419 207.605 37.647 207.605 37.913C207.605 38.2297 207.757 38.4767 208.061 38.654C208.365 38.8313 208.853 39.034 209.524 39.262C210.17 39.4647 210.702 39.6673 211.12 39.87C211.538 40.0727 211.893 40.364 212.184 40.744C212.488 41.124 212.64 41.6117 212.64 42.207C212.64 42.8783 212.45 43.4357 212.07 43.879C211.703 44.3097 211.228 44.6327 210.645 44.848C210.075 45.0507 209.486 45.152 208.878 45.152Z" fill="white"/>
<g clip-path="url(#clip0_809_2)">
<path d="M60.0395 17.7394C61.4765 19.34 62.9602 20.9265 64.3972 22.5223C64.8428 23.0157 66.6531 25.0011 66.6811 25.1451C66.3312 25.0696 65.9089 25.0177 65.5473 25.0271C59.7875 25.1853 54.6786 26.9157 49.6957 29.7132C47.1505 31.1415 44.7057 32.853 42.2072 34.2907C42.0089 34.404 40.8589 35.0651 40.7632 35.0651C40.7142 33.7029 40.7352 22.1068 40.7352 22.1068C40.7352 22.1068 42.2516 20.1545 43.2407 19.2503C46.3317 16.4221 50.8038 14.2975 54.9959 14.0094C55.5604 13.9717 56.5402 14.0803 56.5402 14.0803C56.5402 14.0803 59.4399 17.0737 60.0395 17.7418V17.7394Z" fill="#717171"/>
<path d="M39.6924 34.1682C39.6924 34.1682 38.3581 33.5048 38.1154 33.3868C29.5259 29.2248 21.3703 29.7229 12.1462 29.3216C11.9689 29.3145 11.4417 29.3286 11.4417 29.3286C11.4417 29.3286 13.7536 27.0576 14.1898 26.6445C15.8508 25.0698 17.5328 23.507 19.2054 21.9395C20.6075 20.6245 22.973 18.6934 22.973 18.6934C22.973 18.6934 28.4108 17.4611 33.4171 19.1372C34.3246 19.4418 35.7523 20.065 37.0283 20.6505C38.519 21.3327 39.7998 22.1921 39.7998 22.1921C39.7998 22.1921 39.7811 24.9187 39.7788 25.339C39.7671 28.009 39.6924 34.1682 39.6924 34.1682Z" fill="#717171"/>
<path d="M75 40.8892C73.9549 40.7877 72.8958 40.7854 71.853 40.7098C65.1251 40.2212 58.1849 39.3477 51.4523 39.1824C48.5129 39.1092 46.6257 39.4374 43.8076 39.8033C40.2524 40.266 37.1847 39.4633 33.7904 39.5413C32.8223 39.5625 31.7515 39.7679 30.7764 39.8127C24.1744 40.1126 17.5888 40.4171 10.9939 40.7995C9.69447 40.8751 8.31576 41.1843 7.04202 40.8397C6.76675 40.7665 7.88651 39.3453 8.11047 39.0526C8.2621 38.8543 8.99928 37.9241 9.12292 37.8344C9.55916 37.5134 10.0467 37.9477 10.434 38.0469C11.3298 38.2782 12.0203 38.3207 12.9488 38.2924C19.3851 38.0941 25.8447 37.7211 32.281 37.5677C34.7958 37.5086 36.2912 37.6338 38.7197 38.1508C41.9087 38.8307 42.6995 38.4104 45.7205 37.7919C47.0013 37.5299 47.8621 37.4567 49.0728 37.511C54.1281 37.7353 58.8194 38.139 63.87 38.375C65.9953 38.4742 68.7224 38.918 70.7893 38.741C71.8927 38.6465 72.175 37.8628 72.5599 36.9468L75 40.8869V40.8892Z" fill="#717171"/>
<path d="M11.1268 33.9014L15.6968 33.5449C22.0795 33.2333 28.2289 33.6747 34.3899 35.3627C35.2507 35.5987 36.1279 35.8372 36.9444 36.1889L11.1268 36.9066V33.9037V33.9014Z" fill="#717171"/>
<path d="M68.8786 28.8823C66.5621 28.8092 64.2363 28.6746 61.9268 28.9839C60.0302 29.2388 57.0325 29.9848 55.2502 30.6624C55.0146 30.7521 54.7859 30.8796 54.7859 30.8796L56.118 30.7072L59.1763 30.3625C59.1763 30.3625 66.3522 29.4112 68.587 30.4806C68.755 30.5608 70.045 31.491 69.8561 31.661H60.2285C57.0628 31.8711 53.8855 31.9726 50.7828 32.6903C49.1335 33.0727 47.5541 33.7007 45.9048 34.0784C45.7392 33.9485 47.6171 32.4495 47.7734 32.3385C51.8302 29.4678 61.2572 26.0187 66.1492 26.8474C67.2806 27.0386 68.7107 27.5721 68.881 28.8823H68.8786Z" fill="#717171"/>
<path d="M47.0549 36.3209L48.4383 35.7519C54.7906 33.665 61.3155 32.9568 67.9851 33.259C68.601 33.2873 69.5038 33.2731 70.0847 33.4455C70.2877 33.6084 70.3157 34.8855 70.3017 35.2066C70.2877 35.5277 70.2433 36.0754 70.0754 36.3232H47.0549V36.3209Z" fill="#717171"/>
<path d="M33.837 33.8093C32.5913 33.6747 31.3782 33.3206 30.1441 33.1034C26.3136 32.433 22.4364 32.1639 18.5359 32.0128C17.0289 31.9538 15.5149 31.9892 14.0079 31.9278C13.9005 31.9231 13.6789 31.9962 13.6976 31.8381L17.4628 31.4745C21.9325 31.2857 28.9357 31.8499 33.1232 33.4056C33.3331 33.4835 33.6994 33.6252 33.8347 33.8069L33.837 33.8093Z" fill="#717171"/>
</g>
<defs>
<clipPath id="clip0_809_2">
<rect width="68" height="27" fill="white" transform="translate(7 14)"/>
</clipPath>
</defs>
</svg>
