<svg width="125" height="25" viewBox="0 0 125 25" fill="none" xmlns="http://www.w3.org/2000/svg">
<g clip-path="url(#clip0_150_215)">
<path d="M5.26555 5.80494H0V0H17.1229V5.80494H11.8706V19.2902H5.26702V5.80494H5.26555Z" fill="#186DB5"/>
<path d="M24.9677 4.90686C26.1957 4.90686 27.2022 5.07696 27.99 5.41571C28.7764 5.75591 29.397 6.2071 29.8518 6.76928C30.3066 7.33291 30.6221 7.98303 30.7996 8.71964C30.9771 9.45625 31.0652 10.2231 31.0652 11.0188V19.2902H27.2858L26.2221 16.9175C25.8407 17.3024 25.4402 17.6598 25.022 17.99C24.6039 18.3201 24.1623 18.6069 23.6987 18.8476C23.2351 19.0884 22.748 19.2772 22.2389 19.4113C21.7298 19.5453 21.1928 19.6131 20.6294 19.6131C20.066 19.6131 19.5247 19.5324 19.0332 19.3724C18.5417 19.2109 18.1147 18.9788 17.7509 18.6747C17.387 18.3705 17.1024 17.9972 16.8985 17.5561C16.6931 17.1135 16.5919 16.6061 16.5919 16.0353C16.5919 15.2842 16.7782 14.6183 17.1508 14.0373C17.5235 13.4564 18.0575 12.9533 18.7544 12.5295C19.4498 12.1057 20.2978 11.754 21.2984 11.4772C22.299 11.2005 23.4272 10.99 24.6816 10.8473C24.6816 10.7132 24.6728 10.5777 24.6538 10.4379C24.6362 10.2995 24.5833 10.177 24.4968 10.0689C24.4102 9.96221 24.2767 9.87428 24.0948 9.80797C23.9129 9.74022 23.6532 9.70707 23.3172 9.70707C22.9167 9.70707 22.5147 9.74311 22.1098 9.81374C21.7048 9.88582 21.3087 9.97663 20.9228 10.0891C20.5355 10.2015 20.1629 10.3284 19.8049 10.4711C19.4454 10.6138 19.1065 10.7565 18.7882 10.9006L17.2594 6.90623C17.6775 6.69144 18.1764 6.46657 18.7529 6.22872C19.331 5.99231 19.956 5.77753 20.6294 5.58581C21.3028 5.39409 22.0071 5.23264 22.7436 5.1029C23.4801 4.97317 24.221 4.9083 24.9677 4.9083V4.90686ZM22.1435 14.464C22.1435 14.7408 22.2389 14.9469 22.4296 15.081C22.6203 15.2151 22.88 15.2828 23.2072 15.2828C23.4522 15.2828 23.7001 15.241 23.951 15.156C24.2004 15.0709 24.444 14.957 24.6802 14.8143V13.0715C23.8703 13.1436 23.2453 13.2993 22.8037 13.54C22.3621 13.7808 22.142 14.0892 22.142 14.4655L22.1435 14.464Z" fill="#37914A"/>
<path d="M43.3993 4.89246C43.8717 4.89246 44.2605 4.953 44.5657 5.07409C44.8709 5.19517 45.1775 5.33067 45.4871 5.48347L44.4645 11.248C44.1182 11.052 43.8145 10.8992 43.5504 10.7925C43.2864 10.6859 43.0472 10.6051 42.8345 10.5518C42.6203 10.4985 42.4207 10.4668 42.2344 10.4581C42.0481 10.4495 41.8588 10.4451 41.6681 10.4451C41.4407 10.4451 41.1972 10.4812 40.9375 10.5518C40.6778 10.6239 40.4034 10.7478 40.1115 10.9266V19.2916H33.7265V5.22833H37.5058L38.7749 8.05656C39.0478 7.67168 39.3662 7.29112 39.73 6.91056C40.0939 6.53145 40.4783 6.19125 40.8832 5.89142C41.2881 5.59159 41.7033 5.35085 42.1317 5.16778C42.5587 4.98471 42.9827 4.89246 43.4008 4.89246H43.3993Z" fill="#ED6C7C"/>
<path d="M53.8366 4.90686C55.0646 4.90686 56.071 5.07696 56.8589 5.41571C57.6453 5.75591 58.2659 6.2071 58.7207 6.76928C59.1755 7.33291 59.4909 7.98303 59.6684 8.71964C59.846 9.45625 59.934 10.2231 59.934 11.0188V19.2902H56.1546L55.091 16.9175C54.7095 17.3024 54.309 17.6598 53.8909 17.99C53.4727 18.3201 53.0311 18.6069 52.5675 18.8476C52.1039 19.0884 51.6168 19.2772 51.1077 19.4113C50.5986 19.5453 50.0616 19.6131 49.4983 19.6131C48.9349 19.6131 48.3935 19.5324 47.902 19.3724C47.4105 19.2109 46.9836 18.9788 46.6197 18.6747C46.2559 18.3705 45.9713 17.9972 45.7673 17.5561C45.5619 17.1135 45.4607 16.6061 45.4607 16.0353C45.4607 15.2842 45.647 14.6183 46.0197 14.0373C46.3923 13.4564 46.9264 12.9533 47.6233 12.5295C48.3187 12.1057 49.1667 11.754 50.1673 11.4772C51.1679 11.2005 52.2961 10.99 53.5505 10.8473C53.5505 10.7132 53.5417 10.5777 53.5226 10.4379C53.505 10.2995 53.4522 10.177 53.3656 10.0689C53.2791 9.96221 53.1456 9.87428 52.9636 9.80797C52.7817 9.74022 52.522 9.70707 52.186 9.70707C51.7855 9.70707 51.3835 9.74311 50.9786 9.81374C50.5737 9.88582 50.1775 9.97663 49.7917 10.0891C49.4044 10.2015 49.0317 10.3284 48.6737 10.4711C48.3143 10.6138 47.9754 10.7565 47.657 10.9006L46.1282 6.90623C46.5464 6.69144 47.0452 6.46657 47.6218 6.22872C48.1998 5.99231 48.8248 5.77753 49.4983 5.58581C50.1717 5.39409 50.8759 5.23264 51.6124 5.1029C52.3489 4.97317 53.0898 4.9083 53.8366 4.9083V4.90686ZM51.0123 14.464C51.0123 14.7408 51.1077 14.9469 51.2984 15.081C51.4892 15.2151 51.7488 15.2828 52.076 15.2828C52.321 15.2828 52.569 15.241 52.8198 15.156C53.0693 15.0709 53.3128 14.957 53.549 14.8143V13.0715C52.7392 13.1436 52.1142 13.2993 51.6726 13.54C51.2309 13.7808 51.0109 14.0892 51.0109 14.4655L51.0123 14.464Z" fill="#FFD103"/>
<path d="M72.6643 4.89243C73.3641 4.89243 74.0537 5.02217 74.7315 5.28164C75.4093 5.54111 76.0138 5.94473 76.5463 6.49539C77.0789 7.0446 77.5058 7.7394 77.8286 8.5798C78.1514 9.4202 78.3128 10.4249 78.3128 11.5954C78.3128 12.9721 78.147 14.1627 77.8154 15.1675C77.4838 16.1722 77.0143 17.0039 76.4099 17.6613C75.8054 18.3186 75.0792 18.8073 74.2341 19.1287C73.3876 19.4502 72.456 19.6116 71.4378 19.6116C70.9742 19.6116 70.5369 19.5943 70.1276 19.5583C69.7183 19.5223 69.3412 19.4689 68.995 19.3968V25H62.5968L62.61 10.5489V5.22686H66.3893L67.4677 7.62697C67.8682 7.22479 68.2908 6.85576 68.7368 6.52133C69.1828 6.18546 69.6303 5.8986 70.0807 5.65643C70.5311 5.41426 70.9771 5.22686 71.4172 5.0928C71.8588 4.95874 72.274 4.89099 72.6658 4.89099L72.6643 4.89243ZM70.4533 14.6644C70.8084 14.6644 71.0901 14.5865 71.2999 14.4309C71.5082 14.2752 71.6652 14.0763 71.7708 13.837C71.875 13.5962 71.941 13.3339 71.9689 13.0485C71.9967 12.763 72.0099 12.4863 72.0099 12.2196C72.0099 11.4354 71.9116 10.879 71.7165 10.5489C71.5214 10.2188 71.1781 10.0545 70.6866 10.0545C70.3682 10.0545 70.0792 10.0862 69.821 10.1482C69.5613 10.2101 69.2869 10.3312 68.995 10.5085V14.304C69.1945 14.4208 69.4175 14.5087 69.664 14.5721C69.9105 14.6356 70.1731 14.6658 70.4548 14.6658L70.4533 14.6644Z" fill="#D73C3A"/>
<path d="M87.4868 19.6117C86.4143 19.6117 85.4005 19.4257 84.4469 19.0552C83.4932 18.6848 82.6584 18.1702 81.9454 17.5143C81.2324 16.8569 80.6661 16.0829 80.2479 15.1891C79.8298 14.2954 79.6215 13.3209 79.6215 12.2672C79.6215 11.2135 79.8298 10.2361 80.2479 9.33807C80.6661 8.44001 81.2324 7.66304 81.9454 7.00571C82.6584 6.34839 83.4932 5.83521 84.4469 5.46475C85.4005 5.09428 86.4143 4.90833 87.4868 4.90833C88.5593 4.90833 89.573 5.09428 90.5267 5.46475C91.4803 5.83521 92.3166 6.34983 93.034 7.00571C93.7514 7.66304 94.3222 8.44001 94.7447 9.33807C95.1672 10.2361 95.3785 11.212 95.3785 12.2672C95.3785 13.3224 95.1672 14.2954 94.7447 15.1891C94.3222 16.0829 93.7514 16.8584 93.034 17.5143C92.3166 18.1716 91.4803 18.6848 90.5267 19.0552C89.573 19.4257 88.5593 19.6117 87.4868 19.6117ZM87.522 14.6644C88.0487 14.6644 88.4331 14.4612 88.6752 14.0532C88.9158 13.6453 89.0361 13.0514 89.0361 12.2715C89.0361 11.4297 88.9158 10.8156 88.6752 10.4307C88.4345 10.0458 88.0414 9.85268 87.4956 9.85268C86.9498 9.85268 86.5815 10.043 86.3365 10.4235C86.0915 10.8041 85.9683 11.421 85.9683 12.2715C85.9683 13.0326 86.093 13.6222 86.3439 14.0388C86.5933 14.4554 86.9865 14.6644 87.5235 14.6644H87.522Z" fill="#534778"/>
<path d="M102.72 19.6116C101.665 19.6116 100.81 19.4444 100.155 19.1085C99.5012 18.7741 98.9906 18.333 98.6267 17.7881C98.2629 17.2432 98.0179 16.6292 97.8902 15.9444C97.7626 15.2597 97.6995 14.5664 97.6995 13.86V9.06126H96.0622V6.25898L98.8453 5.22686L99.7315 2.66675H104.07V5.22686H107.331V9.06126H104.07V13.5919C104.07 13.8067 104.099 13.9826 104.158 14.1209C104.217 14.2593 104.29 14.3674 104.376 14.4424C104.463 14.5188 104.558 14.5721 104.663 14.6038C104.767 14.6356 104.865 14.6514 104.956 14.6514C105.274 14.6514 105.6 14.6038 105.932 14.5101C106.263 14.4164 106.611 14.2896 106.975 14.1281L108.762 17.5733C108.361 17.7968 107.927 18.0289 107.459 18.271C106.991 18.5118 106.501 18.7309 105.992 18.9284C105.483 19.1244 104.953 19.2887 104.403 19.417C103.853 19.5468 103.291 19.6116 102.719 19.6116H102.72Z" fill="#EC6231"/>
<path d="M117.107 19.6117C116.034 19.6117 115.021 19.4257 114.067 19.0552C113.113 18.6848 112.278 18.1702 111.565 17.5143C110.852 16.8569 110.286 16.0829 109.868 15.1891C109.45 14.2954 109.242 13.3209 109.242 12.2672C109.242 11.2135 109.45 10.2361 109.868 9.33807C110.286 8.44001 110.852 7.66304 111.565 7.00571C112.278 6.34839 113.113 5.83521 114.067 5.46475C115.021 5.09428 116.034 4.90833 117.107 4.90833C118.179 4.90833 119.193 5.09428 120.147 5.46475C121.1 5.83521 121.937 6.34983 122.654 7.00571C123.372 7.66304 123.942 8.44001 124.365 9.33807C124.787 10.2361 124.999 11.212 124.999 12.2672C124.999 13.3224 124.787 14.2954 124.365 15.1891C123.942 16.0829 123.372 16.8584 122.654 17.5143C121.937 18.1716 121.1 18.6848 120.147 19.0552C119.193 19.4257 118.179 19.6117 117.107 19.6117ZM117.141 14.6644C117.667 14.6644 118.052 14.4612 118.294 14.0532C118.534 13.6453 118.655 13.0514 118.655 12.2715C118.655 11.4297 118.534 10.8156 118.294 10.4307C118.053 10.0458 117.66 9.85268 117.114 9.85268C116.568 9.85268 116.2 10.043 115.955 10.4235C115.71 10.8041 115.587 11.421 115.587 12.2715C115.587 13.0326 115.712 13.6222 115.962 14.0388C116.212 14.4554 116.605 14.6644 117.142 14.6644H117.141Z" fill="#FFD103"/>
</g>
<defs>
<clipPath id="clip0_150_215">
<rect width="125" height="25" fill="white"/>
</clipPath>
</defs>
</svg>
