<svg width="69" height="22" viewBox="0 0 69 22" fill="none" xmlns="http://www.w3.org/2000/svg">
<path d="M5.49 6.76999H0V0.609985H17.86V6.76999H12.38V21.09H5.49V6.76999Z" fill="#ED6C7C"/>
<path d="M24.55 21.4399C23.43 21.4399 22.37 21.2399 21.38 20.8499C20.38 20.4599 19.51 19.9099 18.77 19.2099C18.03 18.5099 17.44 17.6899 17 16.7399C16.56 15.7899 16.35 14.7599 16.35 13.6399C16.35 12.5199 16.57 11.4799 17 10.5299C17.44 9.57995 18.03 8.74995 18.77 8.04995C19.51 7.34995 20.38 6.80995 21.38 6.40995C22.38 6.01995 23.43 5.81995 24.55 5.81995C25.67 5.81995 26.73 6.01995 27.72 6.40995C28.72 6.79995 29.59 7.34995 30.34 8.04995C31.09 8.74995 31.68 9.56995 32.12 10.5299C32.56 11.4799 32.78 12.5199 32.78 13.6399C32.78 14.7599 32.56 15.7899 32.12 16.7399C31.68 17.6899 31.08 18.5099 30.34 19.2099C29.59 19.9099 28.72 20.4499 27.72 20.8499C26.72 21.2399 25.67 21.4399 24.55 21.4399ZM24.58 16.1799C25.13 16.1799 25.53 15.9599 25.78 15.5299C26.03 15.0999 26.16 14.4699 26.16 13.6399C26.16 12.7499 26.03 12.0899 25.78 11.6799C25.53 11.2699 25.12 11.0699 24.55 11.0699C23.98 11.0699 23.6 11.2699 23.34 11.6799C23.08 12.0799 22.96 12.7399 22.96 13.6399C22.96 14.4499 23.09 15.0699 23.35 15.5199C23.61 15.9599 24.02 16.1799 24.58 16.1799Z" fill="#37914A"/>
<path d="M50.3 0V15.44L50.29 21.09H46.35L45.3 18.71C44.69 19.54 44.03 20.21 43.32 20.7C42.61 21.19 41.83 21.44 40.97 21.44C39.97 21.44 39.06 21.25 38.23 20.88C37.4 20.51 36.68 19.97 36.08 19.26C35.48 18.55 35.01 17.69 34.67 16.67C34.33 15.65 34.16 14.49 34.16 13.19C34.16 12.04 34.31 11.01 34.6 10.1C34.89 9.19 35.31 8.42 35.83 7.78C36.35 7.14 36.99 6.66 37.74 6.31C38.49 5.97 39.3 5.8 40.2 5.8C40.87 5.8 41.5 5.9 42.06 6.08C42.63 6.27 43.15 6.53 43.63 6.86V0H50.31H50.3ZM40.75 13.71C40.75 14.52 40.85 15.13 41.06 15.55C41.27 15.97 41.61 16.18 42.09 16.18C42.32 16.18 42.57 16.11 42.84 15.98C43.11 15.85 43.37 15.69 43.63 15.5V12.18C43.38 11.85 43.12 11.61 42.85 11.46C42.58 11.31 42.29 11.24 41.98 11.24C41.73 11.24 41.53 11.3 41.37 11.41C41.21 11.52 41.08 11.69 40.99 11.9C40.9 12.11 40.84 12.37 40.8 12.68C40.76 12.99 40.75 13.33 40.75 13.71Z" fill="#D73C3A"/>
<path d="M60.61 21.4399C59.49 21.4399 58.43 21.2399 57.44 20.8499C56.44 20.4599 55.57 19.9099 54.83 19.2099C54.09 18.5099 53.5 17.6899 53.06 16.7399C52.62 15.7899 52.41 14.7599 52.41 13.6399C52.41 12.5199 52.63 11.4799 53.06 10.5299C53.5 9.57995 54.09 8.74995 54.83 8.04995C55.57 7.34995 56.44 6.80995 57.44 6.40995C58.44 6.01995 59.49 5.81995 60.61 5.81995C61.73 5.81995 62.79 6.01995 63.78 6.40995C64.78 6.79995 65.65 7.34995 66.4 8.04995C67.15 8.74995 67.74 9.56995 68.18 10.5299C68.62 11.4799 68.84 12.5199 68.84 13.6399C68.84 14.7599 68.62 15.7899 68.18 16.7399C67.74 17.6899 67.14 18.5099 66.4 19.2099C65.65 19.9099 64.78 20.4499 63.78 20.8499C62.78 21.2399 61.73 21.4399 60.61 21.4399ZM60.65 16.1799C61.2 16.1799 61.6 15.9599 61.85 15.5299C62.1 15.0999 62.23 14.4699 62.23 13.6399C62.23 12.7499 62.1 12.0899 61.85 11.6799C61.6 11.2699 61.19 11.0699 60.62 11.0699C60.05 11.0699 59.67 11.2699 59.41 11.6799C59.15 12.0799 59.03 12.7399 59.03 13.6399C59.03 14.4499 59.16 15.0699 59.42 15.5199C59.68 15.9599 60.09 16.1799 60.65 16.1799Z" fill="#FFD103"/>
</svg>
