<svg width="51" height="51" viewBox="0 0 51 51" fill="none" xmlns="http://www.w3.org/2000/svg">
<g clip-path="url(#clip0_53_68)">
<path d="M25.5 25.5C32.5316 25.5 38.25 19.7816 38.25 12.75C38.25 5.71838 32.5316 0 25.5 0C18.4684 0 12.75 5.71838 12.75 12.75C12.75 19.7816 18.4684 25.5 25.5 25.5ZM25.5 4.25C30.1877 4.25 34 8.06225 34 12.75C34 17.4377 30.1877 21.25 25.5 21.25C20.8123 21.25 17 17.4377 17 12.75C17 8.06225 20.8123 4.25 25.5 4.25ZM44.625 48.875C44.625 50.048 43.6751 51 42.5 51C41.3249 51 40.375 50.048 40.375 48.875C40.375 42.4596 36.2844 36.9963 30.5809 34.9137L27.3572 39.7502L29.6799 48.229C30.0688 49.6442 28.8193 51.0021 27.1278 51.0021H23.8722C22.1808 51.0021 20.9334 49.6442 21.3201 48.229L23.6428 39.7502L20.4191 34.9137C14.7156 36.9963 10.625 42.4596 10.625 48.8771C10.625 50.0501 9.673 51.0021 8.5 51.0021C7.327 51.0021 6.375 50.0501 6.375 48.8771C6.375 38.3329 14.9558 29.7521 25.5 29.7521C36.0443 29.7521 44.625 38.3307 44.625 48.875Z" fill="#EA0029"/>
</g>
<defs>
<clipPath id="clip0_53_68">
<rect width="51" height="51" fill="white"/>
</clipPath>
</defs>
</svg>
